<svg xmlns="http://www.w3.org/2000/svg" fill="none" viewBox="0 0 24 24"><path fill="#000" d="M9 3a3 3 0 0 0-3 3v4.511c-1.029.298-1.947.675-2.704 1.122C2.063 12.36 1 13.44 1 14.864c0 .922.456 1.708 1.087 2.325.627.613 1.483 1.12 2.46 1.524 1.864.77 4.341 1.24 7.042 1.284l-1.296 1.296 1.414 1.414 3-3 .707-.707-.707-.707-3-3-1.414 1.414 1.29 1.29c-2.493-.045-4.698-.482-6.272-1.132-.833-.345-1.441-.73-1.826-1.106-.381-.373-.485-.675-.485-.895 0-.339.272-.895 1.313-1.51a9.107 9.107 0 0 1 1.744-.767A3.001 3.001 0 0 0 9 15h6a3.001 3.001 0 0 0 2.943-2.413c.68.226 1.267.486 1.744.768 1.041.614 1.313 1.17 1.313 1.51 0 .291-.195.745-.953 1.278-.74.518-1.859.991-3.28 1.331l.466 1.945c1.568-.375 2.948-.928 3.962-1.639.994-.697 1.805-1.677 1.805-2.916 0-1.424-1.063-2.503-2.296-3.232-.757-.446-1.675-.823-2.704-1.12V6a3 3 0 0 0-3-3H9ZM8 6a1 1 0 0 1 1-1h6a1 1 0 0 1 1 1v6a1 1 0 0 1-1 1H9a1 1 0 0 1-1-1V6Z" data-follow-fill="#000"/></svg>