<svg xmlns="http://www.w3.org/2000/svg" fill="none" viewBox="0 0 24 24"><path fill="#000" d="M19 1h2v2h2v2h-2v2h-2V5h-2V3h2V1Z" data-follow-fill="#000"/><path fill="#000" d="M4.5 4a.5.5 0 0 0-.5.5v11.23l3.522-3.22a1.456 1.456 0 0 1 1.825-.113l1.855 1.314 3.984-4.088a1.457 1.457 0 0 1 2.041-.044L20 12.187V9h2v10.5a2.5 2.5 0 0 1-2.5 2.5h-15A2.5 2.5 0 0 1 2 19.5v-15A2.5 2.5 0 0 1 4.5 2H15v2H4.5ZM4 18.44v1.06a.5.5 0 0 0 .5.5h15a.5.5 0 0 0 .5-.5v-4.568l-3.754-3.53-4.208 4.318a1 1 0 0 1-1.295.118l-2.195-1.556L4 18.441Z" data-follow-fill="#000"/><path fill="#000" d="M6 7.75a1.75 1.75 0 1 1 3.5 0 1.75 1.75 0 0 1-3.5 0Z" data-follow-fill="#000"/></svg>