<svg xmlns="http://www.w3.org/2000/svg" fill="none" viewBox="0 0 24 24"><path fill="#000" d="M5 2a3 3 0 0 0-3 3v14a3 3 0 0 0 3 3h6v-2H5a1 1 0 0 1-1-1V5a1 1 0 0 1 1-1h14a1 1 0 0 1 1 1v4h2V5a3 3 0 0 0-3-3H5Z" data-follow-fill="#000"/><path fill="#000" d="M7 10h9V8H7v2ZM13 15H7v-2h6v2ZM19.864 11.21a1 1 0 0 0-1.424.204l-5.25 7.25a1 1 0 0 0-.19.586v2a1 1 0 0 0 1 1h2a1 1 0 0 0 .806-.409l5.5-7.5a1 1 0 0 0-.192-1.38l-2.25-1.75ZM15 19.575l4.453-6.15.666.519-4.626 6.307H15v-.676Z" data-follow-fill="#000"/></svg>