<svg xmlns="http://www.w3.org/2000/svg" fill="none" viewBox="0 0 24 24"><path data-follow-fill="#000" d="M14 7a4 4 0 0 0-4-4H2a1 1 0 0 0-1 1v4h2V5h7a2 2 0 0 1 2 2v9H8.95a3.489 3.489 0 0 0-2.45-1c-.954 0-1.818.381-2.45 1H1v2h2.035a3.5 3.5 0 1 0 6.93 0h4.07a3.5 3.5 0 1 0 6.93 0H22a1 1 0 0 0 1-1v-4a4 4 0 0 0-4-4h-2.727v2H19a2 2 0 0 1 2 2v3h-1.05a3.489 3.489 0 0 0-2.45-1c-.954 0-1.818.381-2.45 1H14V7ZM6.5 17a1.5 1.5 0 1 1 0 3 1.5 1.5 0 0 1 0-3Zm11 0a1.5 1.5 0 1 1 0 3 1.5 1.5 0 0 1 0-3Z" fill="#000"/><path data-follow-fill="#000" d="m5.543 7.543-2.25 2.25a1 1 0 0 0 0 1.414l2.25 2.25 1.414-1.414-.543-.543H10v-2H6.414l.543-.543-1.414-1.414Z" fill="#000"/></svg>