<svg xmlns="http://www.w3.org/2000/svg" fill="none" viewBox="0 0 24 24"><path fill="#000" d="M13 17v-2h2v-2h2v2h2v2h-2v2h-2v-2h-2Z" data-follow-fill="#000"/><path fill="#000" d="M6.34 2a3 3 0 0 0-2.99 2.75l-1.166 14A3 3 0 0 0 5.174 22h4.763c.548.612 1.344 1 2.237 1h7.652a3 3 0 0 0 2.99-3.25l-.667-8A2.994 2.994 0 0 0 21.06 9.68l-.41-4.928A3 3 0 0 0 17.66 2H6.34Zm12.657 7h-1.582a1.5 1.5 0 1 0-2.83 0H12.84a3 3 0 0 0-2.99 2.75l-.026.316A2.99 2.99 0 0 1 9 10v-.382a1.5 1.5 0 1 0-2 0V10a5 5 0 0 0 2.63 4.403l-.446 5.348c-.007.083-.01.167-.01.249h-4a1 1 0 0 1-.997-1.083l1.167-14A1 1 0 0 1 6.34 4h11.32a1 1 0 0 1 .996.917L18.996 9Zm-7.153 2.917A1 1 0 0 1 12.84 11h6.32a1 1 0 0 1 .996.917l.667 8A1 1 0 0 1 19.826 21h-7.652a1 1 0 0 1-.997-1.083l.667-8Z" data-follow-fill="#000"/></svg>