<svg xmlns="http://www.w3.org/2000/svg" fill="none" viewBox="0 0 24 24"><path data-follow-fill="#202426" fill="#202426" d="m6.343 3.207.81-.586L5.983 1l-.811.586-3.362 2.43L1 4.6l1.171 1.62.81-.585 3.362-2.43ZM22 13c-.001 5.523-4.478 10-10 10s-9.999-4.477-9.999-10C2.001 7.479 6.478 3 12 3s9.999 4.478 9.999 10ZM18.018 1l.81.586 3.362 2.43.81.585-1.171 1.62-.81-.585-3.362-2.43-.81-.585L18.017 1Zm-5.134 6.915v-1h-2v6.35a1 1 0 0 0 .289.703l3.732 3.778.703.712 1.422-1.406-.703-.711-3.443-3.486v-4.94Z"/></svg>