<svg xmlns="http://www.w3.org/2000/svg" fill="none" viewBox="0 0 24 24"><path fill="#000" d="m7.153 2.62-.81.587-3.361 2.429-.81.586L1 4.6l.81-.586 3.362-2.43.81-.585 1.171 1.62ZM12 3.179c-5.426 0-9.804 4.449-9.804 9.911S6.574 23 12 23s9.804-4.449 9.804-9.911S17.426 3.178 12 3.178Zm-7.804 9.911c0-4.38 3.505-7.911 7.804-7.911s7.804 3.53 7.804 7.911C19.804 17.469 16.299 21 12 21s-7.804-3.53-7.804-7.911Zm8.688-5.175v-1h-2v6.351a1 1 0 0 0 .289.703l3.732 3.778.703.711 1.422-1.405-.703-.712-3.443-3.486v-4.94Zm5.944-6.328L18.018 1l-1.172 1.62.81.587 3.362 2.429.81.586L23 4.6l-.81-.586-3.362-2.43Z" data-follow-fill="#000"/></svg>