<svg xmlns="http://www.w3.org/2000/svg" fill="none" viewBox="0 0 24 24"><path fill="#202426" d="m6.343 3.207.81-.586L5.983 1l-.811.586-3.362 2.43L1 4.6l1.171 1.62.81-.585 3.362-2.43ZM22 13C21.999 18.523 17.522 23 12 23s-9.999-4.477-9.999-10C2.001 7.479 6.478 3 12 3s9.999 4.478 9.999 10ZM18.018 1l.81.586 3.362 2.43.81.585-1.171 1.62-.81-.585-3.362-2.43-.81-.585L18.017 1ZM8.723 13.31l-.69-.723-1.446 1.382.69.722L9.79 17.32a1 1 0 0 0 1.438.007l5.487-5.627.698-.716-1.431-1.397-.698.716-4.764 4.886-1.797-1.879Z" data-follow-fill="#202426"/></svg>