<svg xmlns="http://www.w3.org/2000/svg" fill="none" viewBox="0 0 24 24"><path data-follow-fill="#202426" fill="#202426" d="M23 12a10.97 10.97 0 0 1-.88 4.301c-1.155-.462-4.653-1.826-7.128-2.706 1.111-1.969 1.474-3.96 1.474-3.96h-3.564v-1.43h4.455V7.49h-4.455V5.708h-1.606c-.308 0-.352.154-.352.352v1.43H6.852v.726h4.092v1.43H7.556v.715h6.6c-.176.671-.462 1.672-.902 2.607-1.584-.561-3.476-1.034-4.554-1.045-.737-.011-2.145.044-3.201 1.078a2.563 2.563 0 0 0-.759 1.408c-.033.176-.044.352-.033.517a1.15 1.15 0 0 0 0 .275c.01.119.038.229.067.345l.01.04c.066.253.165.418.165.418 0-.022-.011-.044-.022-.066.165.33.385.594.583.814.385.418 1.045.836 1.947 1.023.902.187 1.771.077 2.728-.209 1.529-.451 2.882-1.496 3.795-2.541 1.38.67 3.372 1.658 5.086 2.508l1.844.913C18.908 21.196 15.663 23 12 23 5.939 23 1 18.061 1 12S5.939 1 12 1s11 4.939 11 11ZM5.334 14.288c.077-.385.352-.693.616-.902.451-.242 1.078-.418 1.947-.45 1.694-.067 3.29.66 4.565 1.32a6.662 6.662 0 0 1-1.507 1.495c-.89.616-2.068 1.166-3.168 1.09-.407-.034-1.353-.21-1.969-.837a1.89 1.89 0 0 1-.484-1.716Z"/></svg>