<svg xmlns="http://www.w3.org/2000/svg" fill="none" viewBox="0 0 24 24"><path fill="#02A9F1" d="M15.567 13.448 22 15.61V5.697A3.7 3.7 0 0 0 18.297 2h-12.6A3.7 3.7 0 0 0 2 5.703v12.6A3.7 3.7 0 0 0 5.703 22h12.594a3.7 3.7 0 0 0 3.65-3.072l-7.498-3.641s-1.461 1.654-2.95 2.382c-1.49.729-3.2 1.182-5.051.733-1.852-.446-3.167-1.66-2.941-3.9.226-2.24 2.564-3.013 4.486-3.013 1.923 0 5.57 1.277 5.57 1.277s.307-.705.605-1.51a7.466 7.466 0 0 0 .383-1.45H6.782v-.797h3.775V7.483l-4.706.034V6.51h4.706V4.222h2.47v2.289h5.044v1.006l-5.043.035v1.423l4.164.034s-.075.797-.603 2.248c-.528 1.45-1.022 2.19-1.022 2.19Zm-8.041 3.864c2.757 0 5.098-2.954 5.098-2.954h.001s-3.17-1.882-5.517-1.724c-2.347.16-2.92 1.256-2.92 2.265 0 1.01.579 2.414 3.338 2.414Z" clip-rule="evenodd" fill-rule="evenodd"/><path fill="#202426" d="M15.567 13.448 22 15.61V5.697A3.7 3.7 0 0 0 18.297 2h-12.6A3.7 3.7 0 0 0 2 5.703v12.6A3.7 3.7 0 0 0 5.703 22h12.594a3.7 3.7 0 0 0 3.65-3.072l-7.498-3.641s-1.461 1.654-2.95 2.382c-1.49.729-3.2 1.182-5.051.733-1.852-.446-3.167-1.66-2.941-3.9.226-2.24 2.564-3.013 4.486-3.013 1.923 0 5.57 1.277 5.57 1.277s.307-.705.605-1.51a7.466 7.466 0 0 0 .383-1.45H6.782v-.797h3.775V7.483l-4.706.034V6.51h4.706V4.222h2.47v2.289h5.044v1.006l-5.043.035v1.423l4.164.034s-.075.797-.603 2.248c-.528 1.45-1.022 2.19-1.022 2.19Zm-8.041 3.864c2.757 0 5.098-2.954 5.098-2.954h.001s-3.17-1.882-5.517-1.724c-2.347.16-2.92 1.256-2.92 2.265 0 1.01.579 2.414 3.338 2.414Z"/></svg>