<svg xmlns="http://www.w3.org/2000/svg" fill="none" viewBox="0 0 24 24"><path fill="#000" d="M22.5 5.589c0-2.259-1.79-4.089-4-4.089h-13c-2.21 0-4 1.83-4 4.089v10.299c0 2.258 1.79 4.088 4 4.088h.25v.988c0 1.239 1.362 1.966 2.357 1.259l1.301-.926 1.988-1.32H13.5v-2.045h-2.696l-.249.165-2.25 1.494-.013.01-.013.009-.529.376v-1.032c0-.564-.448-1.022-1-1.022H5.5c-1.105 0-2-.915-2-2.044v-10.3c0-1.128.895-2.044 2-2.044h13c1.105 0 2 .916 2 2.045v6.773h2V5.589ZM9 11.21c0 .565-.448 1.022-1 1.022s-1-.457-1-1.022c0-.564.448-1.022 1-1.022s1 .458 1 1.022Zm4 0c0 .565-.448 1.022-1 1.022s-1-.457-1-1.022c0-.564.448-1.022 1-1.022s1 .458 1 1.022Zm3 1.022c.552 0 1-.457 1-1.022 0-.564-.448-1.022-1-1.022s-1 .458-1 1.022c0 .565.448 1.022 1 1.022Zm.5 3.169h-.9v1.84h.883l.98 3.523c.315 1.138 1.846 1.257 2.327.181l1.656-3.704h.954V15.4h-1.444c-.407 0-.775.242-.944.62l-1.231 2.755-.724-2.604a1.041 1.041 0 0 0-.998-.771H16.5Z" clip-rule="evenodd" fill-rule="evenodd" data-follow-fill="#000"/></svg>