<svg xmlns="http://www.w3.org/2000/svg" fill="none" viewBox="0 0 24 24"><path fill="#202426" d="M12 23c6.075 0 11-4.925 11-11S18.075 1 12 1 1 5.925 1 12s4.925 11 11 11Zm-6.41-9.907a.917.917 0 0 1 1.296-1.296l3.89 3.889a.917.917 0 0 1-1.297 1.296l-3.89-3.889Zm2.512-1.377a.802.802 0 0 1 0-1.135l2.754-2.754a.802.802 0 0 1 1.135 0l2.755 2.754a.802.802 0 0 1 0 1.135L11.99 14.47a.802.802 0 0 1-1.135 0l-2.754-2.755Zm3.97-6.401a.917.917 0 0 1 1.296 0l3.89 3.889A.917.917 0 0 1 15.96 10.5l-3.89-3.889a.917.917 0 0 1 0-1.296Zm1.455 9.312a.349.349 0 0 1 .043-.44l.892-.892a.349.349 0 0 1 .44-.043l2.126 1.417a1.503 1.503 0 1 1-2.084 2.084l-1.417-2.126Z" data-follow-fill="#202426"/></svg>