<svg xmlns="http://www.w3.org/2000/svg" fill="none" viewBox="0 0 24 24"><path data-follow-fill="#202426" d="M12 3.947a.472.472 0 0 0-.472.474.473.473 0 1 0 .943 0A.473.473 0 0 0 12 3.947Zm-1.414.474C10.586 3.636 11.219 3 12 3c.78 0 1.414.636 1.414 1.421 0 .783-.63 1.418-1.408 1.421l.404.713 3.453 6.104 6.05-3.21L23 8.873l-.425 1.159-3.299 9-.114.31H4.838l-.114-.31-3.299-9L1 8.872l1.087.577 6.05 3.21 3.453-6.104.404-.713a1.418 1.418 0 0 1-1.408-1.42ZM4.93 21h14.14v-.947H4.93V21Zm5.574-7.264-.267.483 1.572 2.528h.533l1.572-2.528-.267-.483h-.482l-.094.14-.996 1.502-.995-1.502-.094-.14h-.482Z" fill="#202426"/></svg>