<svg xmlns="http://www.w3.org/2000/svg" fill="none" viewBox="0 0 24 24"><path fill="#000" d="m6.5 8.511 4.914-5.254a.795.795 0 0 1 .58-.257c.217 0 .426.092.58.256L17.5 8.511 16.341 9.75l-4.346-4.636L7.66 9.75 6.5 8.511Zm8.938 8.71c0 .747-.145 1.408-.436 1.984a3.142 3.142 0 0 1-1.244 1.332c-.534.309-1.144.463-1.83.463-.685 0-1.293-.15-1.824-.447a3.166 3.166 0 0 1-1.244-1.29c-.295-.558-.45-1.199-.464-1.922v-.431c0-.751.144-1.413.431-1.985a3.141 3.141 0 0 1 1.244-1.332c.542-.312 1.157-.468 1.846-.468.682 0 1.29.154 1.824.463.535.31.95.75 1.244 1.322.299.568.45 1.22.453 1.958v.352Zm-1.973-.322c0-.761-.135-1.339-.404-1.732-.265-.396-.646-.594-1.144-.594-.973 0-1.487.694-1.542 2.084l-.006.563c0 .751.131 1.329.393 1.732.261.404.65.606 1.166.606.49 0 .868-.199 1.133-.595.266-.397.4-.967.404-1.711v-.353Zm-5.738-2.242H5.312v6.238h-1.94v-6.238H1V13.23h6.727v1.427Zm10.878 6.238v-2.6h1.239c.98 0 1.75-.224 2.31-.67.564-.448.846-1.047.846-1.794a2.4 2.4 0 0 0-.392-1.353 2.482 2.482 0 0 0-1.1-.921c-.472-.218-1.016-.327-1.631-.327h-3.212v7.665h1.94Zm1.272-4.027h-1.272v-2.211H19.9c.35.003.626.112.83.326.202.214.303.5.303.858 0 .327-.1.58-.298.758-.196.18-.481.269-.857.269Z" data-follow-fill="#000"/></svg>