<svg xmlns="http://www.w3.org/2000/svg" fill="none" viewBox="0 0 24 24"><path fill="#000" d="M11.5 2a5.5 5.5 0 1 1 0 11 5.5 5.5 0 0 1 0-11Zm3.755 11.994a7.5 7.5 0 1 0-7.913-.251c-.798.312-1.518.688-2.132 1.056a16.7 16.7 0 0 0-2.254 1.625c-.058.05-.103.091-.135.12l-.038.035-.01.01-.004.004h-.002l.016-.014-.017.016-.766.722L3.316 19l.765-.722.005-.004.023-.02c.022-.02.056-.052.103-.092a14.695 14.695 0 0 1 1.966-1.416c1.316-.788 3.037-1.528 4.822-1.528 1.528 0 3.009.542 4.229 1.192a4.5 4.5 0 1 0 2.119-1.261 14.927 14.927 0 0 0-2.093-1.155ZM21.5 19.5a3 3 0 0 1-4.25 2.728l3.978-3.978c.175.38.272.804.272 1.25Zm-5.687 1.337a3 3 0 0 1 4.023-4.023l-4.023 4.023Z" data-follow-fill="#000"/></svg>