<svg xmlns="http://www.w3.org/2000/svg" fill="none" viewBox="0 0 24 24"><path data-follow-fill="#202426" d="M12 23c6.075 0 11-4.925 11-11S18.075 1 12 1 1 5.925 1 12s4.925 11 11 11Zm5.376-12.207c.05.543-.143 1.08-.529 1.466l-4.75 4.75a1.833 1.833 0 0 1-2.592 0l-3.24-3.242a1.833 1.833 0 0 1 0-2.592l4.749-4.75a1.83 1.83 0 0 1 1.466-.529l2.965.276A1.833 1.833 0 0 1 17.1 7.828l.276 2.965Zm-5.278.382A1.834 1.834 0 1 0 14.69 8.58a1.834 1.834 0 0 0-2.593 2.594Zm.66 6.47 4.546-4.546-.199 2.845A2 2 0 0 1 14.97 17.8l-2.212-.155Z" fill="#202426"/></svg>