<svg xmlns="http://www.w3.org/2000/svg" fill="none" viewBox="0 0 24 24"><path fill="#2B263B" d="M16 3H8V1h8v2ZM3.5 6h17c.189 0 .5.2.5.65v13.2c0 .45-.311.65-.5.65h-17c-.189 0-.5-.2-.5-.65V6.65c0-.45.311-.65.5-.65ZM1 6.65v13.2c0 1.372 1.032 2.65 2.5 2.65h17c1.468 0 2.5-1.278 2.5-2.65V6.65C23 5.278 21.968 4 20.5 4h-17C2.032 4 1 5.278 1 6.65Z" data-follow-fill="#2B263B"/><path fill="#2B263B" d="M7.5 13.25a4.5 4.5 0 1 1 9 0 4.5 4.5 0 0 1-9 0Zm4.5-2.5a2.5 2.5 0 1 0 0 5 2.5 2.5 0 0 0 0-5Z" data-follow-fill="#2B263B"/></svg>