<svg xmlns="http://www.w3.org/2000/svg" fill="none" viewBox="0 0 24 24"><path fill="#000" d="M9 2a1 1 0 0 0-1 1v2.5H3a1 1 0 0 0-1 1V12a1 1 0 0 0 1 1h1v1.838c0 1.98-.318 3.946-.942 5.824A1 1 0 0 0 4 22h15a1 1 0 0 0 1-1v-8h1a1 1 0 0 0 1-1V6.5a1 1 0 0 0-1-1h-5V3a1 1 0 0 0-1-1H9Zm6.01 18H18v-7H6v1.838A20.51 20.51 0 0 1 5.339 20h3.016c.025-.039.059-.1.1-.191.154-.343.279-.86.369-1.457.087-.581.131-1.17.154-1.62A19.066 19.066 0 0 0 9 16.046V16h2v.066a16.054 16.054 0 0 1-.025.765 18.93 18.93 0 0 1-.173 1.818A9.776 9.776 0 0 1 10.51 20h2.344c.025-.039.059-.1.1-.191.155-.343.279-.86.369-1.457a18.734 18.734 0 0 0 .176-2.306V16h2v.066a16.054 16.054 0 0 1-.025.765 18.93 18.93 0 0 1-.173 1.818A9.776 9.776 0 0 1 15.01 20ZM19 11h1V7.5h-5a1 1 0 0 1-1-1V4h-4v2.5a1 1 0 0 1-1 1H4V11h15Z" clip-rule="evenodd" fill-rule="evenodd" data-follow-fill="#000"/></svg>