<svg xmlns="http://www.w3.org/2000/svg" fill="none" viewBox="0 0 24 24"><path fill="#000" d="M11.86 23.36c-.23.38-.682.564-1.112.453-.555-.144-1.197-.56-1.674-.993a4.15 4.15 0 0 1-.698-.803C8.19 21.728 8 21.327 8 20.866v-4.914a.216.216 0 0 0-.052-.047l-.005-.004H3.117c-.28 0-.538-.082-.728-.163a2.673 2.673 0 0 1-.591-.353c-.318-.25-.798-.754-.798-1.47v-.05L2.008 3.854l.006-.034c.072-.416.283-.82.531-1.12C2.757 2.44 3.211 2 3.862 2h17.399C22.308 2 23 2.939 23 3.896v8.124c0 .442-.12.906-.427 1.28a1.675 1.675 0 0 1-1.312.615h-3.695L11.86 23.36ZM18 11.93h3V3.985h-3v7.943Zm-2-7.944H4.07a.666.666 0 0 0-.08.154l-.974 9.669a.592.592 0 0 0 .099.07.58.58 0 0 0 .067.036H8c.549 0 1.034.27 1.356.575.33.311.644.803.644 1.411v4.933a.619.619 0 0 0 .06.111c.075.117.199.26.363.408.068.062.139.12.21.176L16 12.647V3.986Zm4.992 8.107.001-.002Z" data-follow-fill="#000"/></svg>