<svg xmlns="http://www.w3.org/2000/svg" fill="none" viewBox="0 0 24 24"><path fill="#202426" d="M10.21 23.983a.524.524 0 0 0 .58-.236L16.988 13.5a.523.523 0 0 0 .076-.271V2.524A.524.524 0 0 0 16.54 2H3.475c-.753 0-1.197.673-1.297 1.26l-.002.015-.002.017-1.171 10.98a.522.522 0 0 0-.003.055v.091c0 .793.581 1.439 1.304 1.439h6.087c.087 0 .134.03.167.068.04.046.09.145.09.323v5.49c0 .995.57 1.987 1.562 2.245Zm11.414-10.46c.394 0 .753-.15 1.008-.436.251-.28.368-.651.368-1.04v-8.57C23 2.636 22.36 2 21.624 2H19.07a.524.524 0 0 0-.524.52l-.085 10.476a.524.524 0 0 0 .524.528h2.64Z" data-follow-fill="#202426"/></svg>