<svg xmlns="http://www.w3.org/2000/svg" fill="none" viewBox="0 0 24 24"><path fill="#000" d="M13.79.017a.524.524 0 0 0-.58.236L7.012 10.5a.523.523 0 0 0-.076.271v10.705c0 .29.235.524.524.524h13.065c.753 0 1.197-.672 1.297-1.26l.002-.014.002-.018 1.171-10.98A.515.515 0 0 0 23 9.674v-.091c0-.793-.581-1.439-1.304-1.439h-6.087c-.087 0-.134-.03-.167-.068-.04-.046-.09-.145-.09-.323v-5.49c0-.995-.57-1.987-1.562-2.245ZM2.376 10.477c-.394 0-.753.15-1.008.436-.251.28-.368.651-.368 1.04v8.57C1 21.364 1.64 22 2.376 22H4.93a.524.524 0 0 0 .524-.52l.085-10.476a.524.524 0 0 0-.524-.528h-2.64Z" data-follow-fill="#000"/></svg>