<svg xmlns="http://www.w3.org/2000/svg" fill="none" viewBox="0 0 24 24"><g clip-path="url(#2b488__a)"><path fill="#000" d="M10.162 13.58a5.427 5.427 0 0 0 7.676 0l3.94-3.94a5 5 0 0 0-7.07-7.071l-2.821 2.82-.707.707 1.414 1.414.707-.707 2.82-2.82a3 3 0 1 1 4.243 4.243l-3.94 3.94a3.428 3.428 0 0 1-4.848 0l-1.414 1.414Zm3.676-4.156a5.428 5.428 0 0 0-7.676 0l-3.94 3.94a5 5 0 0 0 7.071 7.071l2.82-2.82.707-.707-1.414-1.414-.707.707-2.82 2.82a3 3 0 0 1-4.243-4.243l3.94-3.94a3.428 3.428 0 0 1 4.848 0l1.414-1.414Z"/></g><defs><clipPath id="2b488__a"><path fill="#fff" d="M0 0h24v24H0z"/></clipPath></defs></svg>