<svg xmlns="http://www.w3.org/2000/svg" fill="none" viewBox="0 0 24 24"><path data-follow-fill="#000" d="M18 18h1.833C21.03 18 22 17.03 22 15.833V4.167C22 2.97 21.03 2 19.833 2H8.167C6.97 2 6 2.97 6 4.167V6H4.167C2.97 6 2 6.97 2 8.167v11.666C2 21.03 2.97 22 4.167 22h11.666C17.03 22 18 21.03 18 19.833V18ZM8.167 4h11.666c.092 0 .167.075.167.167v11.666a.167.167 0 0 1-.167.167H18V8.167C18 6.97 17.03 6 15.833 6H8V4.167C8 4.075 8.075 4 8.167 4ZM4 8.167C4 8.075 4.075 8 4.167 8h11.666c.092 0 .167.075.167.167v11.666a.167.167 0 0 1-.167.167H4.167A.167.167 0 0 1 4 19.833V8.167Z" fill="#000"/></svg>