<svg xmlns="http://www.w3.org/2000/svg" fill="none" viewBox="0 0 24 24"><path data-follow-fill="#000" d="M5 4v15a1 1 0 0 0 1 1h4.022A6.5 6.5 0 0 1 19 11.022V9h-3a3 3 0 0 1-3-3V3H6a1 1 0 0 0-1 1Zm7.034 18H6a3 3 0 0 1-3-3V4a3 3 0 0 1 3-3h8.172a3 3 0 0 1 2.12.879l1.415 1.414 2.414 2.414A3 3 0 0 1 21 7.828v5.206A6.5 6.5 0 0 1 12.034 22ZM15 6a1 1 0 0 0 1 1h2.586l-2.293-2.293L15 3.414V6ZM6 8h6V6H6v2Zm3 5H6v-2h3v2Zm2 3.5a4.5 4.5 0 1 0 9 0 4.5 4.5 0 0 0-9 0Zm4.5-1.414 1.414-1.414 1.414 1.414-1.414 1.414 1.414 1.414-1.414 1.414-1.414-1.414-1.414 1.414-1.415-1.414 1.415-1.414-1.415-1.414 1.415-1.414 1.414 1.414Z" fill="#000"/></svg>