<svg xmlns="http://www.w3.org/2000/svg" fill="none" viewBox="0 0 24 24"><path fill="#2B263B" d="M5 5.5a2 2 0 0 1 2-2h7v-2H7a4 4 0 0 0-4 4v13a1 1 0 0 0 1 1h15a4 4 0 0 0 4-4v-7h-2v7a2 2 0 0 1-2 2H5v-12ZM8 23h10v-2H8v2ZM18.434 8.445l-2.312 5.01a1.3 1.3 0 0 1-2.232.22l-2.73-3.756-2.265 4.528-1.788-.894 2.779-5.559a1.3 1.3 0 0 1 2.214-.183l2.707 3.722 1.324-2.867-.017-.009.512-1.065.467-1.011.016.007.111-.23-1.946.938-.868-1.802 4.52-2.178a1 1 0 0 1 1.335 1.335l-1.826 3.794Z" data-follow-fill="#2B263B"/></svg>