<svg xmlns="http://www.w3.org/2000/svg" fill="none" viewBox="0 0 24 24"><path fill="#2B263B" d="M12 21a9.004 9.004 0 0 0 8.558-6.206c-.786.358-1.688.7-2.683 1.013A6.994 6.994 0 0 1 12 19a6.97 6.97 0 0 1-4.327-1.497c-1.024.028-1.98.005-2.846-.066A8.986 8.986 0 0 0 12 21Zm6.965-9.7c-1.763.705-4.095 1.344-6.73 1.761-2.7.428-5.168.536-7.083.395a7.029 7.029 0 0 1 .273-3.863 7.003 7.003 0 0 1 13.54 1.706Zm1.804-1.333c.2.044.379.09.537.139-.131.091-.28.187-.45.287a8.934 8.934 0 0 0-.087-.426Zm-.805-2.163A8.999 8.999 0 0 0 12 3c-4.465 0-8.17 3.251-8.878 7.515-1.978.952-3.123 2.005-2.974 2.942.302 1.91 5.853 2.616 12.4 1.58C19.092 14 24.153 11.612 23.851 9.702c-.152-.958-1.627-1.614-3.888-1.898Zm-16.89 5.352a6.828 6.828 0 0 1-.38-.102c.103-.072.217-.147.344-.224.01.11.022.218.036.326Z" clip-rule="evenodd" fill-rule="evenodd" data-follow-fill="#2B263B"/></svg>