<svg xmlns="http://www.w3.org/2000/svg" fill="none" viewBox="0 0 24 24"><path data-follow-fill="#000" d="M11.49 3a5.499 5.499 0 0 1 5.491 5.5c0 3.036-2.461 5.5-5.491 5.5a5.499 5.499 0 0 1-5.492-5.5c0-3.036 2.461-5.5 5.492-5.5Zm3.75 11.993A7.502 7.502 0 0 0 18.98 8.5c0-4.138-3.354-7.5-7.491-7.5-4.138 0-7.492 3.362-7.492 7.5a7.498 7.498 0 0 0 3.339 6.242c-.797.313-1.517.69-2.13 1.057a16.681 16.681 0 0 0-2.252 1.625c-.058.05-.103.091-.135.12l-.037.035-.012.01-.003.004h-.002s0 .002.657.843l-.658-.841-.765.722L3.315 20l.764-.722.004-.004.024-.02a11.697 11.697 0 0 1 .52-.438c.367-.29.898-.68 1.547-1.07 1.313-.788 3.033-1.528 4.816-1.528 1.784 0 3.503.74 4.816 1.528a14.684 14.684 0 0 1 1.822 1.294L19 17.401a16.678 16.678 0 0 0-2.227-1.603 14.902 14.902 0 0 0-1.534-.806ZM15 21v2h8v-2h-8Z" fill="#000"/></svg>