<svg xmlns="http://www.w3.org/2000/svg" fill="none" viewBox="0 0 24 24"><path data-follow-fill="#2B263B" d="M6.5 6.5a5.5 5.5 0 1 1 11 0 5.5 5.5 0 0 1-11 0ZM12 3a3.5 3.5 0 1 0 0 7 3.5 3.5 0 0 0 0-7Zm3.077 14.5a2 2 0 0 0 0 2l1.096 1.897a2 2 0 0 0 1.732 1h2.19a2 2 0 0 0 1.732-1l1.096-1.897a2 2 0 0 0 0-2l-1.096-1.897a2 2 0 0 0-1.732-1h-2.19a2 2 0 0 0-1.732 1L15.077 17.5Zm2.828-.897h2.19l1.096 1.897-1.096 1.897h-2.19L16.809 18.5l1.096-1.897Z" fill="#2B263B"/><path data-follow-fill="#2B263B" d="M8.93 12.316a1 1 0 0 0-1.037-.268c-1.589.513-3.175 1.895-4.35 3.624C2.355 17.422 1.5 19.652 1.5 22h2c0-1.872.689-3.718 1.698-5.204.84-1.238 1.845-2.14 2.744-2.605.236.253.543.586.886.96.77.842 1.709 1.885 2.408 2.713a1 1 0 0 0 1.507.024l3.8-4.219-1.486-1.338-3.041 3.376a129.999 129.999 0 0 0-1.713-1.905 192.422 192.422 0 0 0-1.267-1.372l-.107-.114Z" fill="#2B263B"/></svg>