<svg xmlns="http://www.w3.org/2000/svg" fill="none" viewBox="0 0 24 24"><path fill="#000" d="M10 7a4 4 0 0 1 4-4h8a1 1 0 0 1 1 1v1c0 1.014-.378 1.94-1 2.646V9a4 4 0 0 1-4 4h-3v-2h3a2 2 0 0 0 2-2v-.126c-.32.082-.655.126-1 .126h-2V7h2a2 2 0 0 0 2-2h-7a2 2 0 0 0-2 2v9h3.05c.632-.619 1.496-1 2.45-1 .954 0 1.818.381 2.45 1H23v2h-2.035a3.5 3.5 0 1 1-6.93 0h-4.07a3.5 3.5 0 1 1-6.93 0H2a1 1 0 0 1-1-1v-4a4 4 0 0 1 4-4h2.727v2H5a2 2 0 0 0-2 2v3h1.05c.632-.619 1.496-1 2.45-1 .954 0 1.818.381 2.45 1H10V7ZM6.5 17a1.5 1.5 0 1 0 0 3 1.5 1.5 0 0 0 0-3Zm9.5 1.5a1.5 1.5 0 1 0 3 0 1.5 1.5 0 0 0-3 0Z" data-follow-fill="#000"/></svg>