<svg xmlns="http://www.w3.org/2000/svg" fill="none" viewBox="0 0 24 24"><path data-follow-fill="#202426" d="M15.486 12.941a3.083 3.083 0 1 1-4.36-4.36 3.083 3.083 0 0 1 4.36 4.36Z" fill="#202426"/><path data-follow-fill="#202426" d="M1 12C1 5.925 5.925 1 12 1s11 4.925 11 11-4.925 11-11 11S1 18.075 1 12Zm9.448 2.966a5.085 5.085 0 0 0 6.453-7.8 5.083 5.083 0 0 0-7.853 6.372l-.313.312-1.149-1.149-1.414 1.414 1.15 1.15-1.356 1.355 1.414 1.414 1.356-1.355 1.148 1.149 1.415-1.415-1.15-1.149.3-.298Z" fill="#202426"/></svg>