<svg xmlns="http://www.w3.org/2000/svg" fill="none" viewBox="0 0 24 24"><path fill="#2B263B" d="M2.957 12a9.043 9.043 0 0 1 16.031-5.74A9.002 9.002 0 0 1 21.043 12 9.043 9.043 0 0 1 12 21.043a9.001 9.001 0 0 1-4.11-.985L7 21.8c1.5.767 3.201 1.2 5 1.2 6.075 0 11-4.925 11-11 0-2.65-.939-5.084-2.5-6.983A10.98 10.98 0 0 0 12 1C5.925 1 1 5.925 1 12c0 2.022.547 3.92 1.5 5.55l1.69-.989A8.997 8.997 0 0 1 2.956 12Z" data-follow-fill="#2B263B"/><path fill="#2B263B" d="M7.407 6.99c0 .317-.082.538-.187.663-.081.097-.262.242-.732.242v1.837c.643 0 1.202-.156 1.648-.456h6.966l-.223.444H7.407a.919.919 0 0 0-.919.918v2.737a.92.92 0 0 0 .919.919h2.041c-.69.833-1.674 1.355-2.96 1.355v1.838c1.897 0 3.421-.82 4.451-2.115a6.33 6.33 0 0 0 .602-.91v2.105c0 .508.41.92.918.92h5.053v-1.838h-4.134v-1.355h3.215a.919.919 0 0 0 .919-.919v-2.737a.919.919 0 0 0-.604-.863l.506-1.005a.919.919 0 0 0-.82-1.331h-7.38a3.5 3.5 0 0 0 .029-.45H7.407Zm4.865 5.466a8.49 8.49 0 0 0 .14-.9h3.263v.9h-3.403Zm-1.709-.9c-.04.313-.102.613-.182.9H8.325v-.9h2.238Z" data-follow-fill="#2B263B"/></svg>