<svg xmlns="http://www.w3.org/2000/svg" fill="none" viewBox="0 0 24 24"><path fill="#000" d="M5.11 17.792a.993.993 0 0 0 .055-.045l2.406-2.14 2.825 1.345a1 1 0 0 0 .997-.08l5.302-3.655 3.523 2.457a9.002 9.002 0 0 1-15.107 2.118Zm-1.117-1.68a9 9 0 1 1 16.852-2.44l-3.315-2.311a1.457 1.457 0 0 0-1.66-.005l-5.136 3.542-2.629-1.252a1.457 1.457 0 0 0-1.594.227l-2.518 2.24ZM12 1C5.925 1 1 5.925 1 12s4.925 11 11 11 11-4.925 11-11S18.075 1 12 1ZM7 9a2 2 0 1 1 4 0 2 2 0 0 1-4 0Z" data-follow-fill="#000"/></svg>