<svg xmlns="http://www.w3.org/2000/svg" fill="none" viewBox="0 0 24 24"><path fill="#2B263B" d="M7.427 2.944a4.19 4.19 0 0 1 8.056.199h3.374a2 2 0 0 1 2 2v3.37C22.665 8.978 24 10.476 24 12.571c0 2.096-1.048 3.667-3.143 4.054V20a2 2 0 0 1-2 2h-4.286c-.537 0-.98-.404-1.04-.925l-.013-.279a2.096 2.096 0 0 0-4.185.156c0 .579-.469 1.048-1.047 1.048H4a2 2 0 0 1-2-2v-4.285c0-.538.404-.98.925-1.041l.279-.013a2.095 2.095 0 0 0 0-4.18l-.279-.012A1.048 1.048 0 0 1 2 9.43V5.143a2 2 0 0 1 2-2h3.37l.057-.199Zm11.335 2.294h-4.19c-.567 0-1.031-.45-1.048-1.017l-.004-.155a2.095 2.095 0 0 0-4.187.124c0 .58-.469 1.048-1.047 1.048h-4.19v3.275a4.192 4.192 0 0 1 0 8.117v3.275H7.37a4.192 4.192 0 0 1 8.117 0h3.275v-4.19c0-.567.45-1.031 1.017-1.048 1.104-.064 2.126-.524 2.126-2.096 0-1.571-1.011-2.015-2.096-2.095a1.048 1.048 0 0 1-1.047-1.047v-4.19Z" data-follow-fill="#2B263B"/></svg>