<svg xmlns="http://www.w3.org/2000/svg" fill="none" viewBox="0 0 24 24"><path data-follow-fill="#000" d="M6.427 3.944a4.19 4.19 0 0 1 8.056.199h4.326c.58 0 1.048.469 1.048 1.047v4.323C21.665 9.978 23 11.476 23 13.571c0 2.096-1.048 3.667-3.143 4.054v4.327c0 .579-.469 1.048-1.047 1.048h-5.24c-.537 0-.98-.404-1.04-.925l-.013-.279a2.096 2.096 0 0 0-4.185.156c0 .579-.469 1.048-1.047 1.048H2.048A1.048 1.048 0 0 1 1 21.952v-5.238c0-.537.404-.98.925-1.04l.279-.013a2.095 2.095 0 0 0 0-4.18l-.279-.012A1.048 1.048 0 0 1 1 10.43V5.19c0-.578.469-1.047 1.048-1.047H6.37l.057-.199Zm11.335 2.294h-4.19c-.567 0-1.031-.45-1.048-1.017l-.004-.155a2.095 2.095 0 0 0-4.187.124c0 .58-.469 1.048-1.047 1.048h-4.19v3.275a4.192 4.192 0 0 1 0 8.117v3.275H6.37a4.192 4.192 0 0 1 8.117 0h3.275v-4.19c0-.567.45-1.031 1.017-1.048 1.104-.064 2.126-.524 2.126-2.096 0-1.571-1.011-2.015-2.096-2.095a1.048 1.048 0 0 1-1.047-1.047v-4.19Z" fill="#000"/></svg>