<svg xmlns="http://www.w3.org/2000/svg" fill="none" viewBox="0 0 24 24"><path data-follow-fill="#000" d="M15 7a2 2 0 1 0 0 4 2 2 0 0 0 0-4Z" fill="#000"/><path data-follow-fill="#000" d="M22.3 4.372a3 3 0 0 0-2.717-2.716l-7.13-.648a3 3 0 0 0-2.393.867l-8.353 8.353a3 3 0 0 0 0 4.242l7.778 7.779a3 3 0 0 0 4.243 0l8.353-8.354a3 3 0 0 0 .867-2.393l-.649-7.13Zm-2.898-.724a1 1 0 0 1 .906.906l.648 7.13a1 1 0 0 1-.289.797l-8.353 8.353a1 1 0 0 1-1.414 0l-7.78-7.778a1 1 0 0 1 0-1.414l8.354-8.353A1 1 0 0 1 12.272 3l7.13.648Z" fill="#000"/></svg>