<svg xmlns="http://www.w3.org/2000/svg" fill="none" viewBox="0 0 24 24"><path fill="#000" d="M14 14a2 2 0 0 1-1 1.732V18a1 1 0 1 1-2 0v-2.268A2 2 0 0 1 12 12a2 2 0 0 1 2 2Z" data-follow-fill="#000"/><path fill="#000" d="M6 8V7a6 6 0 0 1 12 0v1h.667C19.75 8 21 8.749 21 10.083v10.834C21 22.25 19.751 23 18.667 23H5.333C4.25 23 3 22.251 3 20.917V10.083C3 8.75 4.249 8 5.333 8H6Zm2-1v1h8V7a4 4 0 0 0-8 0Zm-3.008 3.123c0 .001 0 0 0 0Zm.03-.03a.213.213 0 0 0-.022.02v10.774a.213.213 0 0 0 .021.02c.052.042.16.093.312.093h13.334c.153 0 .26-.051.312-.093a.218.218 0 0 0 .021-.02V10.113a.218.218 0 0 0-.021-.02.504.504 0 0 0-.312-.093H5.333a.504.504 0 0 0-.312.093Z" data-follow-fill="#000"/></svg>