<svg xmlns="http://www.w3.org/2000/svg" fill="none" viewBox="0 0 24 24"><path data-follow-fill="#000" d="M8.5 10.564V3.682l2.93.871a2 2 0 0 0 1.14 0l2.93-.871v6.882l-3.11-.617h-.002a2 2 0 0 0-.776 0l-3.112.617Zm4.5 1.543V20h-2v-7.893l1-.198 1 .198Zm-4.741.544L9 12.504V21a1 1 0 0 0 1 1h4a1 1 0 0 0 1-1v-8.496l.741.147A.998.998 0 0 0 16.5 13h5a1 1 0 0 0 1-1V2a1 1 0 0 0-1-1h-5a1 1 0 0 0-.901.566L12 2.636l-3.599-1.07A1 1 0 0 0 7.5 1h-5a1 1 0 0 0-1 1v10a1 1 0 0 0 1 1h5a.998.998 0 0 0 .759-.349ZM6.5 11h-3V3h3v8Zm11-8h3v8h-3V3Z" fill="#000"/></svg>