<svg xmlns="http://www.w3.org/2000/svg" fill="none" viewBox="0 0 24 24"><path data-follow-fill="#2B263B" d="M9.946 3.777c-.319.42-.548 1.012-.621 1.724C9.297 5.775 9.076 6 8.8 6H4v3.51a4.925 4.925 0 0 1 1.433.744C6.39 10.98 7 12.067 7 13.4c0 1.334-.611 2.42-1.567 3.147-.424.322-.91.57-1.433.743V21h3.61a4.926 4.926 0 0 1 .744-1.433C9.08 18.61 10.167 18 11.5 18c1.334 0 2.42.611 3.146 1.567.323.424.57.91.744 1.433H19v-4.9c0-.276.224-.497.5-.525.71-.073 1.303-.302 1.723-.62.493-.375.777-.888.777-1.555 0-.666-.284-1.18-.777-1.553-.42-.32-1.012-.548-1.724-.622-.274-.028-.499-.249-.499-.525V6h-4.8c-.276 0-.497-.225-.525-.5-.074-.711-.302-1.303-.621-1.723C12.68 3.284 12.166 3 11.5 3s-1.18.284-1.554.777ZM2 17.6v-1.5c0-.276.225-.497.5-.525.711-.073 1.304-.302 1.723-.62.493-.375.777-.888.777-1.555 0-.666-.284-1.18-.777-1.553-.42-.32-1.012-.548-1.724-.622C2.225 11.197 2 10.976 2 10.7V6a2 2 0 0 1 2-2h3.61a4.926 4.926 0 0 1 .744-1.433C9.08 1.61 10.167 1 11.5 1c1.334 0 2.42.611 3.146 1.567.323.424.57.91.744 1.433H19a2 2 0 0 1 2 2v3.51a4.925 4.925 0 0 1 1.433.744C23.39 10.98 24 12.067 24 13.4c0 1.334-.611 2.42-1.567 3.147-.424.322-.91.57-1.433.743V21a2 2 0 0 1-2 2h-4.8c-.276 0-.497-.224-.525-.5-.074-.71-.302-1.303-.621-1.723-.374-.493-.888-.777-1.554-.777s-1.18.284-1.554.777c-.319.42-.548 1.012-.621 1.724-.028.274-.249.499-.525.499H4a2 2 0 0 1-2-2v-3.4Z" fill="#2B263B"/></svg>