<svg xmlns="http://www.w3.org/2000/svg" fill="none" viewBox="0 0 24 24"><path fill="#202426" d="M9.246 3.021A1.51 1.51 0 0 1 9.5 3h1.132V1H9.5a3.502 3.502 0 0 0-3.163 5H2a.996.996 0 0 0-.8.4.996.996 0 0 0-.2.6v5a.996.996 0 0 0 .4.8c.167.126.375.2.6.2h.5v6.5a3 3 0 0 0 3 3h13a3 3 0 0 0 3-3V13h.5a.995.995 0 0 0 .8-.4.995.995 0 0 0 .2-.6V7a.995.995 0 0 0-.4-.8.996.996 0 0 0-.6-.2h-4.337a3.486 3.486 0 0 0 .324-1.8A3.5 3.5 0 0 0 14.5 1h-.833A2.673 2.673 0 0 0 11 3.667V4.5a1.5 1.5 0 1 1-1.754-1.479Zm5.339 2.977A1.5 1.5 0 0 0 14.5 3h-.833a.667.667 0 0 0-.667.667V4.5c0 .537-.12 1.045-.337 1.5H14.5c.028 0 .057 0 .085-.002ZM4.5 19.5a1 1 0 0 0 1 1h13a1 1 0 0 0 1-1V13h-15v6.5ZM21 8v3H3V8h18Z" clip-rule="evenodd" fill-rule="evenodd" data-follow-fill="#202426"/></svg>