<svg xmlns="http://www.w3.org/2000/svg" fill="none" viewBox="0 0 24 24"><path data-follow-fill="#000" d="M9.037 3.073C9.183 3.025 9.34 3 9.5 3h.132V1H9.5a3.501 3.501 0 0 0-3.163 5H3a1 1 0 0 0-1 1v5a1 1 0 0 0 1 1h8v7H6a1 1 0 0 1-1-1v-4.823H3V19a3 3 0 0 0 3 3h12a3 3 0 0 0 3-3v-5h-2v5a1 1 0 0 1-1 1h-5v-7h8a1 1 0 0 0 1-1V7a1 1 0 0 0-1-1h-3.337a3.486 3.486 0 0 0 .302-2A3.5 3.5 0 0 0 14.5 1h-.833a2.66 2.66 0 0 0-2.583 2 2.674 2.674 0 0 0-.084.667V4.5A1.497 1.497 0 0 1 9.5 6a1.5 1.5 0 0 1-.463-2.927ZM9.501 8H11v3H4V8h5.501ZM13 8h7v3h-7V8Zm2-2.085a1.498 1.498 0 0 1-.5.085H13V5h-.035c.023-.163.035-.33.035-.5v-.833c0-.369.299-.667.667-.667h.833A1.498 1.498 0 0 1 16 4.5a1.5 1.5 0 0 1-1 1.415Z" fill="#000"/></svg>