<svg xmlns="http://www.w3.org/2000/svg" fill="none" viewBox="0 0 24 24"><path fill="#2B263B" d="M9.5 3A1.5 1.5 0 1 0 11 4.5v-.833A2.673 2.673 0 0 1 13.667 1h.833a3.5 3.5 0 0 1 3.163 5H21a2 2 0 0 1 2 2v3a2 2 0 0 1-2 2v4a5 5 0 0 1-5 5H5a2 2 0 0 1-2-2v-7a2 2 0 0 1-2-2V8a2 2 0 0 1 2-2h3.337a3.486 3.486 0 0 1-.324-1.8A3.502 3.502 0 0 1 9.5 1h1.132v2H9.5Zm5 3c.028 0 .057 0 .085-.002A1.5 1.5 0 0 0 14.5 3h-.833a.667.667 0 0 0-.667.667V4.5c0 .537-.12 1.045-.337 1.5H14.5ZM21 8H3v3h18V8ZM5 13v7h11a3 3 0 0 0 3-3v-4H5Z" data-follow-fill="#2B263B"/></svg>