<svg xmlns="http://www.w3.org/2000/svg" fill="none" viewBox="0 0 24 24"><path fill="#0C0C0C" d="M9.246 3.021A1.51 1.51 0 0 1 9.5 3h1.132V1H9.5a3.502 3.502 0 0 0-3.163 5H2a.996.996 0 0 0-.8.4.996.996 0 0 0-.2.6v5a.996.996 0 0 0 .4.8c.167.126.375.2.6.2h.5v6.5a3 3 0 0 0 3 3h13a3 3 0 0 0 3-3V13h.5a.995.995 0 0 0 .8-.4.995.995 0 0 0 .2-.6V7a.995.995 0 0 0-.4-.8.996.996 0 0 0-.6-.2h-4.337a3.486 3.486 0 0 0 .324-1.8A3.5 3.5 0 0 0 14.5 1h-.833A2.673 2.673 0 0 0 11 3.667V4.5a1.5 1.5 0 1 1-1.754-1.479Zm5.339 2.977A1.528 1.528 0 0 1 14.5 6h-1.837c.216-.455.337-.963.337-1.5v-.833c0-.369.299-.667.667-.667h.833a1.5 1.5 0 0 1 .085 2.998ZM4.5 19.5V13h15v6.5a1 1 0 0 1-1 1h-13a1 1 0 0 1-1-1ZM21 8v3H3V8h18Z" data-follow-fill="#0C0C0C"/></svg>