<svg xmlns="http://www.w3.org/2000/svg" fill="none" viewBox="0 0 24 24"><path fill="#0C0C0C" d="M4.5 4.5V20h15V4.5h-15Zm-1-2a1 1 0 0 0-1 1V21a1 1 0 0 0 1 1h17a1 1 0 0 0 1-1V3.5a1 1 0 0 0-1-1h-17Z" clip-rule="evenodd" fill-rule="evenodd" data-follow-fill="#0C0C0C"/><path fill="#0C0C0C" d="M3.836 4.014a1 1 0 0 1 1.15.822L4 5l.986-.165v-.003.004l.006.03c.007.031.018.082.035.15A6.981 6.981 0 0 0 6.175 7.4C7.127 8.668 8.84 9.999 12 9.999s4.873-1.33 5.825-2.6a6.98 6.98 0 0 0 1.148-2.385c.017-.067.028-.118.035-.149l.006-.031v-.003a1 1 0 0 1 1.972.332l-.966-.16c.966.16.966.161.966.162v.004l-.002.008-.004.022a3.61 3.61 0 0 1-.067.3c-.048.193-.124.46-.238.777a8.98 8.98 0 0 1-1.25 2.323C18.127 10.33 15.84 12 12 12s-6.127-1.67-7.425-3.4a8.98 8.98 0 0 1-1.489-3.1 5.65 5.65 0 0 1-.066-.3l-.004-.022-.001-.008-.001-.003v-.001c0-.001 0-.002.986-.166l-.986.164a1 1 0 0 1 .822-1.15Z" clip-rule="evenodd" fill-rule="evenodd" data-follow-fill="#0C0C0C"/></svg>