<svg xmlns="http://www.w3.org/2000/svg" fill="none" viewBox="0 0 24 24"><path fill="#0C0C0C" d="M4.5 4.5h15V20h-15V4.5Zm-1-2a1 1 0 0 0-1 1V21a1 1 0 0 0 1 1h17a1 1 0 0 0 1-1V3.5a1 1 0 0 0-1-1h-17Z" data-follow-fill="#0C0C0C"/><path fill="#0C0C0C" d="M3.836 4.014a1 1 0 0 0-.822 1.15L4 5c-.986.164-.986.165-.986.166v.004l.002.008.004.022a3.701 3.701 0 0 0 .067.3c.048.193.124.46.238.777A8.98 8.98 0 0 0 4.575 8.6C5.873 10.33 8.16 12 12 12s6.127-1.67 7.425-3.4a8.98 8.98 0 0 0 1.488-3.1 5.708 5.708 0 0 0 .067-.3l.004-.022.001-.008.001-.003v-.001c0-.001 0-.002-.966-.163l.966.161a1 1 0 0 0-1.972-.332v.003l-.006.031a6.05 6.05 0 0 1-.214.732 6.98 6.98 0 0 1-.969 1.802C16.873 8.67 15.16 10 12 10S7.127 8.67 6.175 7.4a6.981 6.981 0 0 1-1.148-2.385 3.678 3.678 0 0 1-.04-.18l-.001-.004v.004L4 5l.986-.164a1 1 0 0 0-1.15-.822Z" data-follow-fill="#0C0C0C"/></svg>