<svg xmlns="http://www.w3.org/2000/svg" fill="none" viewBox="0 0 24 24"><path data-follow-fill="#000" d="M5 4h14v16H5V4ZM4 2a1 1 0 0 0-1 1v18a1 1 0 0 0 1 1h16a1 1 0 0 0 1-1V3a1 1 0 0 0-1-1H4Z" fill="#000"/><path data-follow-fill="#000" d="M3.836 3.014a1 1 0 0 1 1.15.822L4 4l.986-.165v-.003.004l.006.03c.007.031.018.082.035.15A6.981 6.981 0 0 0 6.175 6.4C7.127 7.668 8.84 8.999 12 8.999s4.873-1.33 5.825-2.6a6.981 6.981 0 0 0 1.148-2.385 3.89 3.89 0 0 0 .041-.183 1 1 0 0 1 1.972.332l-.966-.16c.966.16.966.161.966.162v.004l-.002.008-.004.022a3.742 3.742 0 0 1-.067.3c-.048.193-.124.46-.238.777a8.98 8.98 0 0 1-1.25 2.323C18.127 9.33 15.84 11 12 11S5.873 9.33 4.575 7.6a8.98 8.98 0 0 1-1.488-3.1 5.667 5.667 0 0 1-.067-.3l-.004-.022-.001-.008-.001-.003v-.001c0-.001 0-.002.986-.166l-.986.164a1 1 0 0 1 .822-1.15Z" fill="#000"/></svg>