<svg xmlns="http://www.w3.org/2000/svg" fill="none" viewBox="0 0 24 24"><path fill="#2B263B" d="M19 3v.901a6.048 6.048 0 0 1-.206.696 6.98 6.98 0 0 1-.969 1.803c-.64.853-1.624 1.734-3.16 2.22a3 3 0 0 0-5.33 0C7.8 8.134 6.815 7.253 6.175 6.4a6.963 6.963 0 0 1-.908-1.64A3 3 0 0 1 8 3h11Zm2 .982V3a2 2 0 0 0-2-2H8a5 5 0 0 0-5 5v15a2 2 0 0 0 2 2h11a5 5 0 0 0 5-5V3.982Zm-2 4.14V18a3 3 0 0 1-3 3H5V8.122c.92 1.041 2.232 1.999 4.065 2.504a3.001 3.001 0 0 0 5.87 0C16.768 10.12 18.08 9.163 19 8.122ZM13 10a1 1 0 1 1-2 0 1 1 0 0 1 2 0Z" data-follow-fill="#2B263B"/></svg>