<svg xmlns="http://www.w3.org/2000/svg" fill="none" viewBox="0 0 24 24"><path data-follow-fill="#000" d="M12 21a9 9 0 1 1 8.957-9.887l-.395-.316-.703-.562-1.124 1.406.703.562 2 1.6A.9.9 0 0 0 22.894 13h.061c.03-.33.045-.663.045-1 0-6.075-4.925-11-11-11S1 5.925 1 12s4.925 11 11 11c3.65 0 6.886-1.778 8.886-4.516l-1.805-.928A8.984 8.984 0 0 1 12 21ZM8.737 7.477l1.64 2.623H8v1.8h3.1v1.7H8v1.8h3.1v2.1h1.8v-2.1H16v-1.8h-3.1v-1.7H16v-1.8h-2.376l1.64-2.623-1.527-.954L12 9.302l-1.737-2.779-1.526.954Z" fill="#000"/></svg>