<svg xmlns="http://www.w3.org/2000/svg" fill="none" viewBox="0 0 24 24"><path fill="#000" d="M3.91 11.5a8.59 8.59 0 1 1 14.604 6.135.955.955 0 0 0-.287.682v1.774H12.5A8.59 8.59 0 0 1 3.91 11.5ZM12.5 1C6.701 1 2 5.701 2 11.5S6.701 22 12.5 22h6.682a.955.955 0 0 0 .954-.954v-2.34A10.467 10.467 0 0 0 23 11.5C23 5.701 18.299 1 12.5 1ZM9.16 11.5a1.432 1.432 0 1 1-2.864 0 1.432 1.432 0 0 1 2.863 0Zm3.34 1.432a1.432 1.432 0 1 0 0-2.864 1.432 1.432 0 0 0 0 2.864Zm6.204-1.432a1.432 1.432 0 1 1-2.863 0 1.432 1.432 0 0 1 2.864 0Z" data-follow-fill="#000"/></svg>