<svg xmlns="http://www.w3.org/2000/svg" fill="none" viewBox="0 0 24 24"><path fill="#000" d="M15.592 15.67c3.756-1.237 5.936-5.217 4.9-9.092C19.42 2.565 15.304.183 11.3 1.258c-3.867 1.039-6.216 4.92-5.406 8.8L3.43 17.9a3.926 3.926 0 0 0 1.776 4.574c1.588.92 3.6.61 4.84-.745l5.545-6.059Zm2.967-8.573a5.503 5.503 0 0 0-6.741-3.901A5.518 5.518 0 0 0 7.936 9.99l.065.147c.104.227.267.545.492.902.458.72 1.144 1.544 2.095 2.094.95.55 2.005.734 2.857.77a7.732 7.732 0 0 0 1.185-.04 5.518 5.518 0 0 0 3.929-6.767ZM7.11 12.867a7.525 7.525 0 0 0 5.447 3.152l-3.985 4.354a1.908 1.908 0 0 1-2.364.364 1.918 1.918 0 0 1-.868-2.234l1.77-5.636Z" clip-rule="evenodd" fill-rule="evenodd" data-follow-fill="#000"/></svg>