<svg xmlns="http://www.w3.org/2000/svg" fill="none" viewBox="0 0 24 24"><path data-follow-fill="#000" d="m7.92 1.29-.202.474A10.912 10.912 0 0 1 12 .895c6.075 0 11 4.948 11 11.053C23 18.052 18.075 23 12 23S1 18.052 1 11.948c0-2.012.536-3.9 1.472-5.527l1.731 1.006A9.03 9.03 0 0 0 3 11.947c0 4.995 4.03 9.044 9 9.044s9-4.05 9-9.043c0-4.995-4.03-9.043-9-9.043-2.204 0-4.22.794-5.785 2.115a.996.996 0 0 1-1.24.038 1.008 1.008 0 0 1-.323-1.202L6.081.5l1.838.79Zm2.907 8.806L8.364 7.634 9.636 6.36 12 8.724l2.364-2.364 1.272 1.273-2.463 2.464H16.5v1.8h-3.6v1.7h3.6v1.8h-3.6v2.6h-1.8v-2.6H7.5v-1.8h3.6v-1.7H7.5v-1.8h3.327Z" fill="#000"/></svg>