<svg xmlns="http://www.w3.org/2000/svg" fill="none" viewBox="0 0 24 24"><path fill="#000" d="m9.11 9.616-.555-.834L8 7.948l.002-.001.003-.002.007-.005.021-.015a5.429 5.429 0 0 1 .3-.184c.197-.112.476-.257.825-.4A7.486 7.486 0 0 1 12 6.76c1.162 0 2.15.293 2.843.58a7.357 7.357 0 0 1 1.056.54l.068.044.021.015.008.005.003.002H16s.001.001-.555.835l-.555.834a5.413 5.413 0 0 0-.783-.402A5.56 5.56 0 0 0 12 8.782c-.844 0-1.578.214-2.106.432a5.413 5.413 0 0 0-.753.383 1.75 1.75 0 0 0-.035.022h.002v-.002h.002Zm5.78 0 .002.001.001.001.001.001-.004-.003Zm-5.784.003ZM5.06 4.987l.56.822.016-.011.08-.052c.075-.046.19-.115.342-.2.304-.17.756-.4 1.328-.632C8.532 4.45 10.14 3.991 12 3.991c1.86 0 3.468.46 4.616.923.572.232 1.023.462 1.328.632a7.986 7.986 0 0 1 .422.252l.016.01.56-.821c.56-.822.558-.823.558-.823l-.002-.001-.003-.003-.01-.007-.035-.022a10.004 10.004 0 0 0-.544-.326 13.98 13.98 0 0 0-1.55-.737C16.045 2.536 14.182 2 12 2c-2.18 0-4.043.536-5.356 1.068-.659.266-1.184.533-1.55.737a10.007 10.007 0 0 0-.544.326l-.034.022-.01.007-.004.003-.002.001.56.823Zm17.667 15.46c.368-.505.58-1.081.634-1.73l-2.096.025c-.084.492-.277.874-.578 1.145-.301.267-.705.393-1.211.376-.783-.03-1.163-.567-1.142-1.61 0-.352.056-.939.17-1.762.246-1.819.934-2.71 2.064-2.671.452.017.782.146.992.388.209.242.31.644.3 1.208l2.141.007c-.05-1.035-.366-1.847-.948-2.436-.577-.59-1.364-.893-2.36-.91a3.814 3.814 0 0 0-1.876.432c-.57.297-1.065.747-1.488 1.349-.418.598-.721 1.302-.91 2.112-.184.81-.257 1.558-.22 2.245.051 1.03.35 1.847.898 2.45.548.601 1.3.913 2.253.934a4.397 4.397 0 0 0 1.933-.388 3.548 3.548 0 0 0 1.444-1.164ZM7.412 21.872H5.335L3.15 16.026l-1.005 5.846H0l1.582-9.261h2.096l2.178 5.845.998-5.845H9l-1.588 9.26Zm7.638-3.69h-3.445l-.634 3.69H8.824l1.582-9.261h5.943l-.295 1.723h-3.79l-.364 2.131h3.445l-.295 1.718Z" data-follow-fill="#000"/></svg>