<svg xmlns="http://www.w3.org/2000/svg" fill="none" viewBox="0 0 24 24"><path data-follow-fill="#202426" d="M12.048 2c2.49 0 4.518 2.717 4.518 6.058 0 1.698-.537 3.328-1.472 4.47a6.061 6.061 0 0 1-.325.358c-.287.348-.417.673-.417 1.017 0 .8.752 1.595 1.98 2.116l.237.094c.218.082.457.15.694.218l.131.034C20.286 17.46 22 19.333 22 21.386c0 .301-.203.553-.471.603l-.102.011H2.573a.54.54 0 0 1-.22-.047.57.57 0 0 1-.186-.133.652.652 0 0 1-.167-.435c0-2.143 1.835-4.058 4.904-5.115.162-.057.324-.11.488-.157l.164-.045c1.376-.496 2.23-1.31 2.23-2.127 0-.413-.21-.76-.416-1l-.088-.096c-1.114-1.149-1.754-2.89-1.754-4.79 0-3.34 2.03-6.055 4.52-6.055Zm-.111 11.928-1.578 4.636 1.576 2.18 1.704-2.18-1.704-4.636h.002Z" fill="#202426"/></svg>