<svg xmlns="http://www.w3.org/2000/svg" fill="none" viewBox="0 0 24 24"><path fill="#2B263B" d="M13.02 17.795v-2h6.37l-1.664-2.033 1.548-1.267 3 3.667a1 1 0 0 1 0 1.266l-3 3.667-1.548-1.266 1.664-2.034h-6.37Z" data-follow-fill="#2B263B"/><path fill="#2B263B" d="M3.503 4.825a.04.04 0 0 0-.003.016V19.16a.04.04 0 0 0 .003.016.026.026 0 0 0 .004.007h8.979v2H3.5c-1.126 0-2-.927-2-2.023V4.841c0-1.096.874-2.023 2-2.023h17c1.126 0 2 .927 2 2.023v6.65h-2V4.84c0-.008.998-.013.997-.016a.027.027 0 0 0-.004-.007H3.507a.027.027 0 0 0-.004.007Z" data-follow-fill="#2B263B"/><path fill="#2B263B" d="m9.132 8.557 1.697-1.697 1.273 1.273-1.576 1.576h2.106v1.8h-2.6v.921h2.6v1.8h-2.6v1.822h-1.8V14.23h-2.6v-1.8h2.6v-.921h-2.6v-1.8h2.106L6.162 8.133 7.435 6.86l1.697 1.697Z" data-follow-fill="#2B263B"/></svg>