<svg xmlns="http://www.w3.org/2000/svg" fill="none" viewBox="0 0 24 24"><path fill="#000" d="M1 12c0 6.075 4.925 11 11 11s11-4.925 11-11S18.075 1 12 1 1 5.925 1 12Zm9.646-5.917a2.437 2.437 0 1 1 0 4.875 2.437 2.437 0 0 1 0-4.875Zm4.062 2.438c0-.492-.262-.923-.656-1.161l.559-.928a2.436 2.436 0 0 1 0 4.178l-.56-.928c.395-.238.657-.67.657-1.161Zm-4.681 3.52h1.238c.587 0 1.06 0 1.444.032.395.032.741.1 1.062.264.51.26.924.674 1.184 1.183.163.321.231.668.264 1.063.031.383.031.857.031 1.444v.348c0 .3-.243.542-.542.542H6.583a.542.542 0 0 1-.541-.542v-.348c0-.587 0-1.06.03-1.444.033-.395.101-.742.265-1.063.26-.51.674-.924 1.183-1.183.321-.164.668-.232 1.063-.264.383-.031.857-.031 1.444-.031Zm5.95 1.255.486-.973.041.027c.498.26.904.669 1.16 1.17.162.321.23.668.263 1.063.031.383.031.857.031 1.444v.348h-1.083v-.325c0-.616 0-1.045-.028-1.379-.027-.328-.077-.516-.15-.659a1.625 1.625 0 0 0-.71-.71l-.01-.006Z" data-follow-fill="#000"/></svg>