<svg xmlns="http://www.w3.org/2000/svg" fill="none" viewBox="0 0 24 24"><path fill="#000" d="M7.896 2H5.104C2.997 2 1.488 3.992 2.16 5.988c1.387 4.11 3.252 7.75 5.676 10.175 2.424 2.424 6.065 4.29 10.175 5.675 1.996.674 3.988-.835 3.988-2.942v-2.793c0-.762-.413-1.465-1.08-1.836l-2.433-1.352-.154-.078a2.1 2.1 0 0 0-1.806.035l-2.262 1.13-.13-.042-.262-.093a6.689 6.689 0 0 1-1.646-.9 5.964 5.964 0 0 1-1.201-1.203 6.744 6.744 0 0 1-.899-1.645l-.093-.262-.042-.13 1.13-2.26a2.1 2.1 0 0 0-.042-1.96L9.733 3.081A2.101 2.101 0 0 0 7.896 2ZM5.104 4h2.792a.1.1 0 0 1 .088.052l1.347 2.426a.1.1 0 0 1 .002.094L8.036 9.167a1 1 0 0 0-.087.638c.16.822.6 1.987 1.475 3.156a7.97 7.97 0 0 0 1.604 1.607c1.171.878 2.339 1.32 3.163 1.478a1 1 0 0 0 .636-.088l2.594-1.297a.101.101 0 0 1 .094.002l2.433 1.352a.1.1 0 0 1 .052.088v2.793c0 .764-.674 1.275-1.349 1.047-3.842-1.296-7.243-3.038-9.4-5.194-2.156-2.157-3.898-5.558-5.195-9.4C3.83 4.674 4.34 4 5.104 4Z" data-follow-fill="#000"/></svg>