<svg xmlns="http://www.w3.org/2000/svg" fill="none" viewBox="0 0 24 24"><path data-follow-fill="#202426" d="M5.104 2h2.792c.763 0 1.466.414 1.837 1.081l1.347 2.426a2.1 2.1 0 0 1 .042 1.96l-1.13 2.26.042.13.093.262c.213.561.51 1.124.899 1.645a5.985 5.985 0 0 0 1.201 1.204c.522.39 1.084.687 1.646.899l.261.093.131.042 2.262-1.13a2.1 2.1 0 0 1 1.806-.035l.154.078 2.433 1.352A2.101 2.101 0 0 1 22 16.103v2.793c0 2.107-1.992 3.616-3.988 2.942-4.11-1.386-7.75-3.25-10.175-5.675-2.424-2.424-4.289-6.065-5.676-10.175C1.488 3.992 2.997 2 5.104 2Z" fill="#202426"/></svg>