<svg xmlns="http://www.w3.org/2000/svg" fill="none" viewBox="0 0 24 24"><path fill="#2B263B" d="M20 4v14a2 2 0 0 1-2 2H4V6a2 2 0 0 1 2-2h14ZM6 2a4 4 0 0 0-4 4v15a1 1 0 0 0 1 1h15a4 4 0 0 0 4-4V3a1 1 0 0 0-1-1H6Zm0 5.75a1.75 1.75 0 1 1 3.5 0 1.75 1.75 0 0 1-3.5 0Zm11.92 5.662-1.737-1.946-4.145 4.254a1 1 0 0 1-1.295.118l-2.317-1.642-2.761 1.678-1.039-1.709 3.067-1.864a1.457 1.457 0 0 1 1.598.057l1.911 1.354 3.955-4.06a1.456 1.456 0 0 1 2.13.048l2.125 2.38-1.492 1.332Z" data-follow-fill="#2B263B"/></svg>