<svg xmlns="http://www.w3.org/2000/svg" fill="none" viewBox="0 0 24 24"><path fill="#000" d="M6 7.75a1.75 1.75 0 1 1 3.5 0 1.75 1.75 0 0 1-3.5 0Z" data-follow-fill="#000"/><path fill="#000" d="M22 14.496V4.5A2.5 2.5 0 0 0 19.5 2h-15A2.5 2.5 0 0 0 2 4.5v15A2.5 2.5 0 0 0 4.5 22h15a2.5 2.5 0 0 0 2.5-2.5V14.496ZM4.5 4h15a.5.5 0 0 1 .5.5v7.687l-2.773-2.608a1.457 1.457 0 0 0-2.041.044l-3.984 4.088-1.855-1.314a1.456 1.456 0 0 0-1.825.114L4 15.73V4.5a.5.5 0 0 1 .5-.5ZM20 14.932V19.5a.5.5 0 0 1-.5.5h-15a.5.5 0 0 1-.5-.5v-1.06l4.548-4.158 2.195 1.556a1 1 0 0 0 1.295-.118l4.208-4.318L20 14.932Z" data-follow-fill="#000"/></svg>