<svg xmlns="http://www.w3.org/2000/svg" fill="none" viewBox="0 0 24 24"><path fill="#202426" d="M4.099 5.772c.926-1.18 1.165-2.593 1.86-3.756a23.895 23.895 0 0 1 1.627 3.53c.463 0 .926.242 1.629.242v1.397c.702-.242 1.388-.242 2.322-.468-.463-1.648-1.165-3.288-1.628-4.71 1.628.711 3.025 1.18 4.413 1.883-.462.937-.702 2.116-1.165 3.288.703-.242 1.39-.242 1.86-.469.24 0 .24-.242.463-.468A31.976 31.976 0 0 0 17.108 2c1.165.71 2.091 1.648 3.248 2.35l-.702.711c-.702.711-1.628 1.18-2.322 1.882h3.024c.24.711.463 1.648.703 2.351h-1.845c-.239.937-.462 1.882-.702 3.061.88.125 1.736.367 2.562.711.448.718.764 1.515.926 2.35-.926.243-2.091.243-3.025.47l-.702 4.935A7.133 7.133 0 0 1 16.645 22c-.463-2.116-.702-4.24-1.165-6.35a6.292 6.292 0 0 1-2.091-.241c-.463 1.648-.702 3.53-1.165 5.178-.463.71-1.165.71-1.86 1.179a52.203 52.203 0 0 0-.239-6.115 2.91 2.91 0 0 1-1.389-.242c-.24-.71-.463-1.18-.702-1.882-.926.937-.702 2.35-.926 3.53-.24 1.647-.463 3.287-.702 4.709a38.513 38.513 0 0 1-3.712-2.82c.703-.242 1.629-.468 2.323-.71-.24-1.18-.24-2.35-.463-3.53-.463.242-.926.71-1.389.937-.463-1.18-.702-2.593-1.165-3.756a8.442 8.442 0 0 0 2.562-.469c0-.937-.24-1.648-.24-2.593-.239 0-.462-.242-.702-.242-.517-.75-.98-1.538-1.389-2.35a4.4 4.4 0 0 0 1.86-.469l.008.008Zm3.017 5.88h2.322l-.702 1.406 2.091-.71c-.239-.711-.239-1.648-.463-2.351-.463-.242-.926-.242-1.389-.469-.463-.468-.463-.937-.702-1.405-.926.71-.926 2.116-1.165 3.53h.008Zm6.736-1.882c-.24.938-.24 1.883-.463 2.82.926-.242 1.628-.242 2.562-.469 0-.937-.24-1.882-.24-2.593a5.171 5.171 0 0 0-1.86.242Z" data-follow-fill="#202426"/></svg>