<svg xmlns="http://www.w3.org/2000/svg" fill="none" viewBox="0 0 24 24"><path fill="#000" d="M12 3.5a8.5 8.5 0 1 0 0 17 8.5 8.5 0 0 0 0-17ZM22.5 12c0 5.799-4.701 10.5-10.5 10.5S1.5 17.799 1.5 12 6.201 1.5 12 1.5 22.5 6.201 22.5 12Zm-5.375-2.22L15.6 11l1.524 1.22-1.25 1.56-2.5-2a1 1 0 0 1 0-1.56l2.5-2 1.25 1.56ZM6.899 11l-1.524 1.22 1.25 1.56 2.5-2a1 1 0 0 0 0-1.56l-2.5-2-1.25 1.56L6.9 11Zm2.339 6.615a.8.8 0 0 0 1.118-.093l.003-.002a1.492 1.492 0 0 1 .272-.209c.209-.125.537-.261.994-.261.457 0 .786.136.995.261a1.492 1.492 0 0 1 .271.209l.003.002a.8.8 0 0 0 1.22-1.034l-.6.5.6-.5v-.001l-.002-.002-.002-.002-.005-.007-.014-.016a1.783 1.783 0 0 0-.173-.172c-.11-.1-.269-.225-.475-.349a3.502 3.502 0 0 0-1.818-.489c-.793 0-1.402.24-1.818.489a3.08 3.08 0 0 0-.607.477 1.82 1.82 0 0 0-.04.044l-.015.016-.005.007-.002.002-.002.002.614.513-.615-.512a.8.8 0 0 0 .103 1.127Z" data-follow-fill="#000"/></svg>