<svg xmlns="http://www.w3.org/2000/svg" fill="none" viewBox="0 0 24 24"><path fill="#000" d="M13.929 11.715a.5.5 0 0 0-.858 0l-1.734 2.89-.953-1.144a.5.5 0 0 0-.768 0L8.183 15.18a.5.5 0 0 0 .385.82h7.049a.5.5 0 0 0 .429-.757l-2.117-3.528ZM10 12a1.5 1.5 0 1 0 0-3 1.5 1.5 0 0 0 0 3Z" data-follow-fill="#000"/><path fill="#000" d="M1 3a1 1 0 0 1 1-1h20a1 1 0 0 1 1 1v7a1 1 0 0 1-1 1h-2v10.5a1 1 0 0 1-1.575.818L15.5 20.262l-2.925 2.056a1 1 0 0 1-1.15 0L8.5 20.262l-2.925 2.056A1 1 0 0 1 4 21.5V11H2a1 1 0 0 1-1-1V3Zm20 6V4H3v5h1V6a1 1 0 0 1 1-1h14a1 1 0 0 1 1 1v3h1ZM6 7v12.575l1.925-1.353a1 1 0 0 1 1.15 0L12 20.278l2.925-2.056a1 1 0 0 1 1.15 0L18 19.575V7H6Z" data-follow-fill="#000"/></svg>