<svg xmlns="http://www.w3.org/2000/svg" fill="none" viewBox="0 0 24 24"><path data-follow-fill="#2B263B" d="M.5 5a3 3 0 0 1 3-3h17a3 3 0 0 1 3 3v6.47h-2V5a1 1 0 0 0-1-1h-17a1 1 0 0 0-1 1v14a1 1 0 0 0 1 1h9.55v2H3.5a3 3 0 0 1-3-3V5Z" fill="#2B263B"/><path data-follow-fill="#2B263B" d="M15.077 16.5a2 2 0 0 0 0 2l1.096 1.897a2 2 0 0 0 1.732 1h2.19a2 2 0 0 0 1.732-1l1.096-1.897a2 2 0 0 0 0-2l-1.096-1.897a2 2 0 0 0-1.732-1h-2.19a2 2 0 0 0-1.732 1L15.077 16.5Zm2.828-.897h2.19l1.096 1.897-1.096 1.897h-2.19L16.809 17.5l1.096-1.897ZM13 9.707h-1.593l1.3-1.3-1.414-1.414L9.5 8.786 7.707 6.993 6.293 8.407l1.3 1.3H6v2h2.5v1H6v2h2.5v2h2v-2H13v-2h-2.5v-1H13v-2Z" fill="#2B263B"/></svg>