<svg xmlns="http://www.w3.org/2000/svg" fill="none" viewBox="0 0 24 24"><path data-follow-fill="#000" d="M21 12a9 9 0 1 1-18 0 9 9 0 0 1 18 0Zm-9 11c6.075 0 11-4.925 11-11S18.075 1 12 1 1 5.925 1 12s4.925 11 11 11ZM7.015 12.75h.22c.558 0 1.015-.507 1.015-1.127v-1.496C8.25 9.507 7.793 9 7.235 9h-.22C6.457 9 6 9.507 6 10.127v1.496c0 .62.457 1.127 1.015 1.127Zm6 0h.22c.559 0 1.015-.507 1.015-1.127v-1.496c0-.62-.457-1.127-1.015-1.127h-.22C12.457 9 12 9.507 12 10.127v1.496c0 .62.457 1.127 1.015 1.127ZM9.75 15.7a.8.8 0 0 0 0 1.6h3.75a.8.8 0 0 0 0-1.6H9.75Z" fill="#000"/></svg>