<svg xmlns="http://www.w3.org/2000/svg" fill="none" viewBox="0 0 24 24"><path fill="#000" d="M3.85 14.895h-.964c0 1.012.954 1.102.954 1.102h.487c.98 0 1.02-1.005 1.02-1.005V9H3.85v5.895Zm-2.495-4.103h1.53s.022 4.08-1.065 4.498L1 13.942s.488-1.358.355-3.15Zm4.966 0h1.53c-.133 1.792.355 3.15.355 3.149l-.82 1.35c-1.087-.418-1.065-4.499-1.065-4.499Zm3.672 1.233h-.997c-.71-.026-.266-.81-.266-.81L9.956 9h1.434l-1.03 1.764c-.047.085.02.184.126.184h.095l.085-.156H12.1l-1.236 2.175c-.048.084.02.183.125.183h.827l-.662 1.079H9.5c-.71-.028-.266-.81-.266-.81l.76-1.394Zm-.78 2.637s-.182.016-.304-.094l-.743 1.283s.123.149.372.149h1.84l.787-1.338H9.214Zm6.51-3.87h-.947v3.915h1.434v1.29h-5.044l.714-1.29h1.42v-3.915h-.961V9.425h3.385v1.367Zm5.832 1.008h-.174v-.884c0-.828-.748-1.5-1.67-1.5h-.576V9H17.67v.416h-.918v1.34h.918V11.8h-1.463v1.341h1.463v2.857h1.464V13.14h2.013c.198 0 .359.144.359.322v1.407H20.11c0 .623.562 1.128 1.256 1.128h.377c.694 0 1.256-.505 1.256-1.128v-1.772c0-.716-.647-1.297-1.445-1.297Zm-2.42-1.043h.525c.126 0 .228.092.228.205v.838h-.753v-1.043Zm3.118-1.332c.4 0 .724.291.724.65 0 .36-.323.65-.724.65h-.724v-.65c0-.359.324-.65.724-.65Z" data-follow-fill="#000"/></svg>