<svg xmlns="http://www.w3.org/2000/svg" fill="none" viewBox="0 0 24 24"><path fill="#202426" d="M3 3a2 2 0 0 1 2-2h14a2 2 0 0 1 2 2v3a1 1 0 0 1-.649.936L15.35 8.812A3.996 3.996 0 0 0 12 7c-1.402 0-2.635.72-3.35 1.812L3.65 6.936A1 1 0 0 1 3 6V3ZM8 11c0-.188.013-.373.038-.554L4.351 9.064A1 1 0 0 0 3 10v10a3 3 0 0 0 3 3h12a3 3 0 0 0 3-3V10a1 1 0 0 0-1.351-.936l-3.687 1.382A4 4 0 1 1 8 11Z" data-follow-fill="#202426"/><path fill="#202426" d="M10 11a2 2 0 1 1 4 0 2 2 0 0 1-4 0Z" data-follow-fill="#202426"/></svg>