<svg xmlns="http://www.w3.org/2000/svg" fill="none" viewBox="0 0 24 24"><path fill="#000" d="M8.13 4.003A4.04 4.04 0 0 1 12.03 1a4.04 4.04 0 0 1 3.902 3.005 4.6 4.6 0 0 1 4.371 4.264l.692 9.587A2 2 0 0 1 19 20h-2.313a5.16 5.16 0 0 1-9.372 0H5a2 2 0 0 1-1.995-2.144l.691-9.587A4.6 4.6 0 0 1 8.13 4.003ZM10.278 4h3.506a2.04 2.04 0 0 0-1.753-1c-.746 0-1.4.405-1.753 1ZM6.616 18H19l-.691-9.587A2.6 2.6 0 0 0 15.716 6H8.284a2.6 2.6 0 0 0-2.593 2.413L5 18h1.616Zm3.079 2a3.158 3.158 0 0 0 4.612 0H9.695Z" data-follow-fill="#000"/></svg>