<svg xmlns="http://www.w3.org/2000/svg" fill="none" viewBox="0 0 24 24"><path data-follow-fill="#000" d="M12.03 1a4.04 4.04 0 0 0-3.9 3.003 4.6 4.6 0 0 0-4.434 4.266l-.69 9.587A2 2 0 0 0 5 20h2.315a5.16 5.16 0 0 0 9.372 0H19a2 2 0 0 0 1.995-2.144l-.692-9.587a4.6 4.6 0 0 0-4.37-4.264A4.04 4.04 0 0 0 12.03 1Zm1.754 3h-3.506a2.04 2.04 0 0 1 1.753-1c.746 0 1.4.405 1.753 1Zm-5.78 14H5l.691-9.587A2.6 2.6 0 0 1 8.284 6h7.432a2.6 2.6 0 0 1 2.593 2.413L19 18H8.003ZM12 21a3.158 3.158 0 0 1-2.306-1h4.612c-.584.624-1.412 1-2.306 1Zm3.251-12.417-4.737 4.715-1.768-1.76-1.411 1.417 2.474 2.462a1 1 0 0 0 1.41 0l5.443-5.416-1.41-1.418Z" fill="#000"/></svg>