<svg xmlns="http://www.w3.org/2000/svg" fill="none" viewBox="0 0 24 24"><path fill="#000" d="M12 15.922c-1.105 0-2-.906-2-2.025H8c0 2.237 1.79 4.051 4 4.051s4-1.814 4-4.051h-2c0 1.119-.895 2.025-2 2.025Z" data-follow-fill="#000"/><path fill="#000" d="M13.228 1.427a1.98 1.98 0 0 0-2.456 0l-8 6.302A2.035 2.035 0 0 0 2 9.328v10.14C2 20.866 3.12 22 4.5 22h15c1.38 0 2.5-1.134 2.5-2.532V9.328c0-.625-.285-1.215-.772-1.599l-8-6.302ZM4 9.328l8-6.302 8 6.302v10.14c0 .28-.224.506-.5.506h-15a.503.503 0 0 1-.5-.506V9.328Z" clip-rule="evenodd" fill-rule="evenodd" data-follow-fill="#000"/></svg>