<svg xmlns="http://www.w3.org/2000/svg" fill="none" viewBox="0 0 24 24"><path fill="#2B263B" d="M8.467 1.026c-1.471-.237-2.65 1.198-2.128 2.59l.87 2.309 1.817-.68-.869-2.309 3.688.594a.974.974 0 0 0 .31 0l3.688-.594-.87 2.31 1.819.679.868-2.31c.524-1.39-.656-2.826-2.127-2.59L12 1.596l-3.533-.57ZM20.033 18.82l-1.282-7.895a2.91 2.91 0 0 0-2.874-2.438H8.123a2.91 2.91 0 0 0-2.875 2.439l-1.28 7.894a1.937 1.937 0 0 0 1.916 2.244h12.232a1.937 1.937 0 0 0 1.917-2.244Zm.635-8.204 1.281 7.895C22.331 20.865 20.51 23 18.116 23H5.884c-2.392 0-4.215-2.135-3.833-4.488l1.281-7.895a4.849 4.849 0 0 1 4.791-4.065h7.754a4.849 4.849 0 0 1 4.791 4.066ZM12 13.16l-1.716 1.71L12 16.58l1.716-1.71L12 13.16Zm.335-2.403 3.792 3.78c.185.184.135.532-.112.778l-3.569 3.558c-.246.245-.596.295-.78.11l-3.793-3.78c-.185-.183-.135-.532.112-.777l3.569-3.558c.246-.245.596-.295.78-.111Z" data-follow-fill="#2B263B"/></svg>