<svg xmlns="http://www.w3.org/2000/svg" fill="none" viewBox="0 0 24 24"><path fill="#000" d="M12.567 12.14a.688.688 0 0 0-1.134 0l-.453.66-.768.227a.687.687 0 0 0-.35 1.079l.488.634-.022.8a.687.687 0 0 0 .918.667L12 15.94l.755.268a.687.687 0 0 0 .917-.667l-.022-.8.488-.635a.687.687 0 0 0-.35-1.078l-.768-.227-.453-.66Z" data-follow-fill="#000"/><path fill="#000" d="M2 14.857a8.572 8.572 0 0 1 4.774-7.686 5.694 5.694 0 0 1-.488-2.314V3.43c0-.79.64-1.429 1.428-1.429h8.572c.789 0 1.428.64 1.428 1.429v1.428c0 .824-.174 1.607-.487 2.314A8.572 8.572 0 0 1 22 14.857v4.286A2.857 2.857 0 0 1 19.143 22H4.857A2.857 2.857 0 0 1 2 19.143v-4.286Zm5.66-5.894A6.572 6.572 0 0 0 4 14.857v4.286c0 .473.384.857.857.857h14.286a.857.857 0 0 0 .857-.857v-4.286a6.572 6.572 0 0 0-3.66-5.894 2 2 0 0 1-.942-2.603c.203-.457.316-.964.316-1.503V4H8.286v.857c0 .54.113 1.046.316 1.503a2 2 0 0 1-.941 2.603Z" data-follow-fill="#000"/></svg>