<svg xmlns="http://www.w3.org/2000/svg" fill="none" viewBox="0 0 24 24"><path fill="#000" d="M19.463 3.632a.994.994 0 0 1 .9.9l.645 7.088a.994.994 0 0 1-.287.793l-8.304 8.304a.994.994 0 0 1-1.406 0L3.28 12.985a.994.994 0 0 1 0-1.406l8.304-8.304a.994.994 0 0 1 .793-.287l7.088.644Zm2.88.72a2.982 2.982 0 0 0-2.7-2.7l-7.087-.644a2.982 2.982 0 0 0-2.379.861l-8.304 8.304a2.982 2.982 0 0 0 0 4.217l7.732 7.732a2.982 2.982 0 0 0 4.218 0l8.303-8.303a2.982 2.982 0 0 0 .862-2.379l-.645-7.088Zm-6.844 6.83 1.406-1.406-2.812-2.812-1.405 1.406 2.811 2.812Z" data-follow-fill="#000"/></svg>