<svg xmlns="http://www.w3.org/2000/svg" fill="none" viewBox="0 0 24 24"><path data-follow-fill="#2B263B" d="M1.5 1.957c0-.529.448-.957 1-.957h13c2.761 0 5 2.141 5 4.783v6.695h-2V5.783c0-1.585-1.343-2.87-3-2.87h-12v15.352c.162-.031.329-.048.5-.048h6.5v1.913H4a.49.49 0 0 0-.5.479.49.49 0 0 0 .5.478h7.5V23H4c-1.38 0-2.5-1.07-2.5-2.391V1.957Z" fill="#2B263B"/><path data-follow-fill="#2B263B" d="M17.077 15.523c.265.18.423.47.423.781V23h-2v-5.343l-1.667.564-.667-1.804 3-1.015c.307-.103.646-.058.911.121Zm1.876 7.321a.947.947 0 0 1-.453-.8v-6.696h2v5.233l1.599-.67.802 1.753-3 1.256c-.31.13-.666.1-.948-.076Z" fill="#2B263B"/></svg>