<svg xmlns="http://www.w3.org/2000/svg" fill="none" viewBox="0 0 24 24"><path fill="#000" d="m14.148 2.256.637-.77.028.023 7.118 6.833c.469.371.812.797.972 1.288a1.91 1.91 0 0 1-.074 1.39c-.16.357-.396.615-.564.77a2.711 2.711 0 0 1-.23.191c-.005.005-.011.01-.017.013l-6.989 6.755-.032.026c-.425.348-.923.625-1.476.617-.626-.008-1.04-.369-1.265-.697a2.38 2.38 0 0 1-.342-.83 3.033 3.033 0 0 1-.056-.361l-.003-.03v-.016s0-.002.997-.063l-.998.061-.002-.03v-2.37c-1.239-.29-2.277-.125-3.16.278-1.07.488-1.98 1.357-2.732 2.366-.748 1.003-1.3 2.092-1.665 2.94a16.048 16.048 0 0 0-.499 1.312l-.022.07-.005.016v.002l-.025.083-.038.078c-.088.177-.274.51-.645.688a1.108 1.108 0 0 1-1.244-.19 1.399 1.399 0 0 1-.32-.449 1.705 1.705 0 0 1-.068-.176l-.006-.017-.002-.007v-.003l-.001-.002.958-.287-.959.286-.015-.051-.01-.053c-.715-3.868-.408-6.903.527-9.276.937-2.377 2.475-4.013 4.093-5.13 1.609-1.11 3.297-1.706 4.57-2.026.488-.123.92-.206 1.268-.262V2.705l.018-.094c.09-.464.274-.918.643-1.239.4-.347.862-.404 1.218-.358.329.043.596.175.751.265a2.448 2.448 0 0 1 .267.177l.021.017.008.007.004.003.002.001.001.001-.637.771ZM12.906 7.13l-.018.001a8.623 8.623 0 0 0-.462.051 12.7 12.7 0 0 0-1.354.265c-1.122.282-2.568.8-3.923 1.733-1.345.928-2.598 2.267-3.367 4.217-.545 1.383-.861 3.11-.765 5.27.356-.689.8-1.44 1.34-2.163.868-1.165 2.022-2.313 3.504-2.99 1.512-.69 3.298-.856 5.32-.151l.671.234v3.508l6.91-6.679.079-.049.006-.004a.711.711 0 0 0 .144-.147c-.026-.048-.105-.165-.328-.336l-.042-.033-6.769-6.498v3.719l-.943.052h-.003Z" data-follow-fill="#000"/></svg>