<svg xmlns="http://www.w3.org/2000/svg" fill="none" viewBox="0 0 24 24"><path fill="#000" d="M6.24 2C4.653 2 3.33 3.196 3.198 4.75l-1.187 14C1.862 20.5 3.267 22 5.053 22h13.894c1.786 0 3.19-1.5 3.042-3.25l-1.187-14C20.67 3.197 19.347 2 17.76 2H6.24ZM5.226 4.917A1.01 1.01 0 0 1 6.24 4h11.52c.529 0 .97.399 1.014.917l1.187 14A1.007 1.007 0 0 1 18.947 20H5.053c-.595 0-1.063-.5-1.014-1.083l1.187-14ZM9.456 8.5c0 .444-.197.843-.509 1.118V10c0 1.657 1.367 3 3.053 3s3.053-1.343 3.053-3v-.382a1.485 1.485 0 0 1-.509-1.118c0-.828.683-1.5 1.527-1.5.843 0 1.526.672 1.526 1.5 0 .444-.197.843-.509 1.118V10c0 2.761-2.278 5-5.088 5s-5.088-2.239-5.088-5v-.382a1.485 1.485 0 0 1-.51-1.118c0-.828.684-1.5 1.527-1.5.843 0 1.527.672 1.527 1.5Z" data-follow-fill="#000"/></svg>