<svg xmlns="http://www.w3.org/2000/svg" fill="none" viewBox="0 0 24 24"><path fill="#2B263B" d="M13 1v12h-2V1h2ZM7.699 4.828l-.803.596A8.51 8.51 0 0 0 5.62 6.587a8.273 8.273 0 0 0-2.12 5.536c0 4.614 3.793 8.377 8.5 8.377s8.5-3.763 8.5-8.377a8.273 8.273 0 0 0-2.12-5.536 8.509 8.509 0 0 0-1.276-1.163l-.803-.596 1.191-1.607.804.596c.573.425 1.1.907 1.574 1.437a10.273 10.273 0 0 1 2.63 6.869C22.5 17.866 17.787 22.5 12 22.5S1.5 17.866 1.5 12.123c0-2.635.995-5.041 2.63-6.87a10.51 10.51 0 0 1 1.574-1.436l.804-.596 1.19 1.607Z" clip-rule="evenodd" fill-rule="evenodd" data-follow-fill="#2B263B"/></svg>