<svg xmlns="http://www.w3.org/2000/svg" fill="none" viewBox="0 0 24 24"><path data-follow-fill="#202426" d="M12 23c6.075 0 11-4.925 11-11S18.075 1 12 1 1 5.925 1 12s4.925 11 11 11Zm4.362-16.137 1.08 2.43a.605.605 0 0 1 .059.292v6.693c0 .675-.548 1.222-1.223 1.222H7.724A1.222 1.222 0 0 1 6.5 16.278V9.584a.602.602 0 0 1 .059-.291l1.08-2.43a.611.611 0 0 1 .558-.363h7.605c.242 0 .46.142.559.363Zm-2.096 7.341a.611.611 0 0 1-.864 0l-.79-.79V15.3a.611.611 0 0 1-1.223 0v-1.886l-.79.79a.611.611 0 1 1-.864-.864l1.834-1.833a.611.611 0 0 1 .864 0l1.833 1.833a.611.611 0 0 1 0 .864Zm.543-6.482c.178 0 .328.071.381.182l.534 1.222c.078.202-.17.43-.465.43H8.742c-.295 0-.542-.228-.464-.43l.533-1.222c.053-.11.203-.182.382-.182h5.616Z" fill="#202426"/></svg>