<svg xmlns="http://www.w3.org/2000/svg" fill="none" viewBox="0 0 24 24"><path fill="#2B263B" d="M3.298 1.67A1 1 0 0 1 4.242 1h15.516a1 1 0 0 1 .944.67l1.533 4.371c.632 1.805.07 3.804-1.235 4.967V22a1 1 0 0 1-1 1H4a1 1 0 0 1-1-1V11.01C1.696 9.847 1.133 7.848 1.765 6.044l1.533-4.375ZM5 11.954V21h14v-9.045c-.195.03-.397.045-.604.045-1.254 0-2.338-.593-3.072-1.503-.73.91-1.81 1.503-3.065 1.503h-.52c-1.255 0-2.335-.593-3.066-1.503C7.94 11.407 6.856 12 5.603 12A4.02 4.02 0 0 1 5 11.955Zm4.675-4.33C9.675 9.03 10.688 10 11.74 10h.52c1.05 0 2.063-.97 2.063-2.375a1 1 0 1 1 2 0c0 1.4 1.019 2.375 2.074 2.375 1.35 0 2.55-1.592 1.951-3.297L19.05 3H4.95L3.653 6.705C3.055 8.41 4.253 10 5.603 10c1.054 0 2.072-.974 2.072-2.375a1 1 0 1 1 2 0Z" data-follow-fill="#2B263B"/></svg>