<svg xmlns="http://www.w3.org/2000/svg" fill="none" viewBox="0 0 24 24"><path data-follow-fill="#202426" d="m11.5 4.083-2.623-.555c-.36 1.443-.732 2.448-1.114 3.016-.382.568-.985 1.182-1.808 1.843l1.808 1.845.276-.24c.842-.748 1.518-1.52 2.029-2.318l.03-.013-.034-.135c.198.745.198 1.27 0 1.575-.198.305-.74.973-1.627 2.006l1.442.942 1.324-1.711h.835V12.2H7.67v1.157h4.367v3.632l-.12.024c-.546.09-.882-.089-1.01-.535-.135-.479-.215-1.16-.24-2.044H7.672v2.044l.017.204c.076.734.288 1.273.638 1.62.572.565 1.13.771 1.437.771h3.79l.202-.007c.733-.05 1.369-.371 1.958-.765.356-.238.733-.58 1.13-1.026l.01.018.047.081a.772.772 0 0 0 1.039.261l.649-.373.078-.052a.828.828 0 0 0 .288-.91l-.536-1.709-.034-.088a.779.779 0 0 0-1.069-.388l-.904.47-.08.048a.83.83 0 0 0-.269 1.045l.001.002.262.536a1.36 1.36 0 0 1-.567.54 2.02 2.02 0 0 1-1.097.233l-.043-3.632h3.978V12.2H14.66v-1.863h3.935V8.84l-5.264-.105-.09-.007a.805.805 0 0 1-.682-.806V7.68l-.715-.251-.593-.187c1.825-.624 3.421-.975 4.789-1.052 2.518-.142 3.336.813 3.336 2.194v8.914l.002.178c-.01.81-.289 1.366-.837 1.664-.88.479-2.885-.285-3.407 0-.348.19-.348.81 0 1.86h5.439l.177-.013c.87-.082 1.456-.438 1.76-1.067.326-.672.489-1.323.489-1.953V8.52l-.035-.233c-.186-1.07-.681-1.935-1.487-2.592-1.294-1.056-2.315-1.07-3.642-1.07-1.326 0-2.664.19-4.386.522a15.52 15.52 0 0 0-2.461.706c.269-.659.439-1.25.51-1.77Z" fill="#202426"/><path data-follow-fill="#202426" d="m5.906 10.633-2.58-2.506L1.84 9.89l2.68 1.966.102.082a1.664 1.664 0 0 1 .13 2.36L1 18.404l2.949 2.117 2.676-6.192.064-.16a3.329 3.329 0 0 0-.783-3.536Zm.978-5.6C6.884 3.91 6.003 3 4.916 3 3.83 3 2.95 3.91 2.95 5.033c0 1.122.881 2.032 1.968 2.032 1.086 0 1.967-.91 1.967-2.032Z" fill="#202426"/></svg>