<svg xmlns="http://www.w3.org/2000/svg" fill="none" viewBox="0 0 24 24"><path data-follow-fill="#000" d="M11.624 3.026a5.573 5.573 0 0 0-5.57 5.57 5.573 5.573 0 0 0 5.57 5.572 5.573 5.573 0 0 0 5.57-5.571 5.573 5.573 0 0 0-5.57-5.571Zm7.597 5.57a7.6 7.6 0 0 1-8.094 7.581v.016c-1.81 0-3.556.97-4.89 1.769a14.892 14.892 0 0 0-1.994 1.434 7.573 7.573 0 0 0-.104.093l-.024.021-.004.004-.776.731L2 18.541l.777-.732.668.852c-.668-.852-.667-.853-.667-.853l.001-.002.004-.003.012-.01.038-.035.136-.122a16.937 16.937 0 0 1 2.286-1.646 14.643 14.643 0 0 1 2.16-1.07 7.592 7.592 0 0 1-3.389-6.323A7.6 7.6 0 0 1 11.624 1a7.6 7.6 0 0 1 7.597 7.597Zm-3.46 6.881 2.972 2.97 2.973-2.97L23 16.77l-2.973 2.97L23 22.708 21.706 24l-2.973-2.97L15.76 24l-1.293-1.292 2.973-2.97-2.973-2.969 1.293-1.292Z" fill="#000"/></svg>