<svg xmlns="http://www.w3.org/2000/svg" fill="none" viewBox="0 0 24 24"><path fill="#000" d="M14 14a2 2 0 0 1-1 1.732V18a1 1 0 1 1-2 0v-2.268A2 2 0 0 1 12 12a2 2 0 0 1 2 2Z" data-follow-fill="#000"/><path fill="#000" d="M8 7a4 4 0 0 1 7.466-2l1.73-1A6 6 0 0 0 6 7v1h-.666C4.25 8 3 8.749 3 10.083v10.834C3 22.25 4.249 23 5.333 23h13.334C19.75 23 21 22.251 21 20.917V10.083C21 8.75 19.751 8 18.667 8H8V7Zm-3.008 3.123c0 .001 0 0 0 0Zm.03-.03A.504.504 0 0 1 5.332 10h13.334c.153 0 .26.051.312.093.01.008.016.015.021.02v10.774a.218.218 0 0 1-.021.02.504.504 0 0 1-.312.093H5.333a.504.504 0 0 1-.312-.093.213.213 0 0 1-.021-.02V10.113a.213.213 0 0 1 .021-.02Z" data-follow-fill="#000"/></svg>