<svg xmlns="http://www.w3.org/2000/svg" fill="none" viewBox="0 0 24 24"><path data-follow-stroke="#2B263B" d="M13.5 12h.56c.06 0 .115.04.132.1l1.136 4.001c.088.308.51.34.644.05l1.859-4.07a.138.138 0 0 1 .125-.081h.544" stroke="#2B263B" stroke-width="2" stroke-miterlimit="16" stroke-linecap="square"/><rect data-follow-stroke="#2B263B" x="1.5" y="3" width="21" height="18" rx="1" stroke="#2B263B" stroke-width="2" stroke-linejoin="round"/><path data-follow-stroke="#2B263B" d="M1.5 8H22" stroke="#2B263B" stroke-width="2"/><path data-follow-fill="#2B263B" d="M12.5 11h1.56c.508 0 .955.338 1.094.827l.649 2.286 1.118-2.448c.185-.405.59-.665 1.035-.665H19.5v2h-.99l-1.629 3.566c-.52 1.137-2.173 1.01-2.515-.191L13.408 13H12.5v-2Z" fill="#2B263B"/><path data-follow-fill="#2B263B" d="M2.5 2h19a2 2 0 0 1 2 2v16a2 2 0 0 1-2 2h-19a2 2 0 0 1-2-2V4a2 2 0 0 1 2-2Zm19 2h-19v3h19V4Zm0 5h-19v11h19V9Z" fill="#2B263B"/></svg>