<svg xmlns="http://www.w3.org/2000/svg" fill="none" viewBox="0 0 24 24"><path data-follow-fill="#000" d="M1.175 12.566a1.004 1.004 0 0 1 0-1.132l.004-.005a12.558 12.558 0 0 1 .23-.34 32.177 32.177 0 0 1 3.055-3.777c.979-1.033 2.14-2.094 3.395-2.903C9.105 3.606 10.524 3 12 3s2.895.606 4.141 1.41c1.256.808 2.416 1.87 3.396 2.902a32.194 32.194 0 0 1 3.284 4.116l.004.006a1.005 1.005 0 0 1 0 1.132l-.004.005a11.584 11.584 0 0 1-.23.34 32.201 32.201 0 0 1-3.055 3.777c-.979 1.033-2.14 2.094-3.395 2.903C14.895 20.393 13.476 21 12 21s-2.895-.607-4.141-1.41c-1.256-.808-2.416-1.87-3.395-2.902a32.186 32.186 0 0 1-3.285-4.116l-.004-.006Zm2.51.085a30.164 30.164 0 0 0 2.23 2.66c.917.968 1.955 1.907 3.027 2.598C10.024 18.607 11.062 19 12 19c.939 0 1.976-.393 3.058-1.09 1.072-.692 2.11-1.63 3.027-2.598A30.16 30.16 0 0 0 20.79 12a30.168 30.168 0 0 0-2.704-3.312c-.917-.967-1.955-1.906-3.027-2.597C13.976 5.394 12.938 5 12 5c-.939 0-1.976.394-3.058 1.09-1.072.692-2.11 1.63-3.027 2.598A30.17 30.17 0 0 0 3.21 12c.128.182.287.402.474.652ZM14 12a2 2 0 1 0-4 0 2 2 0 0 0 4 0Zm2 0a4 4 0 1 1-8 0 4 4 0 0 1 8 0Z" fill="#000"/></svg>