<svg xmlns="http://www.w3.org/2000/svg" fill="none" viewBox="0 0 24 24"><path fill="#000" d="M11 14V8h2v6h-2ZM10.5 16.5a1.5 1.5 0 1 1 3 0 1.5 1.5 0 0 1-3 0Z" data-follow-fill="#000"/><path fill="#000" d="M15.444 2.862c-1.549-2.62-5.34-2.62-6.888 0L.814 15.965C-.762 18.631 1.16 22 4.257 22h15.486c3.097 0 5.019-3.369 3.443-6.035L15.444 2.862ZM10.278 3.88c.774-1.31 2.67-1.31 3.444 0l7.743 13.103C22.252 18.316 21.29 20 19.742 20H4.257c-1.548 0-2.51-1.684-1.722-3.017L10.278 3.88Z" data-follow-fill="#000"/></svg>