<svg xmlns="http://www.w3.org/2000/svg" fill="none" viewBox="0 0 24 24"><path data-follow-fill="#000" fill-rule="evenodd" clip-rule="evenodd" d="M9.049 2C4.089 2 0 5.875 0 10.738c0 2.523.829 4.559 2.658 6.162l-.548 2.43a1 1 0 0 0-.025.22c0 .285.056.868.582 1.226.503.342 1.056.211 1.328.122a.999.999 0 0 0 .239-.114l1.905-1.253.03.002c.848.057 1.5.019 2.187-.021.238-.014.479-.028.734-.039.492-.02 1.026-.133 1.411-.225.153-.036.295-.073.408-.102 1.21 2.063 3.498 3.44 6.091 3.44.74 0 1.457-.111 2.13-.32l1.268.539c.136.079.31.154.516.182.28.039.636-.014.931-.274.274-.242.367-.55.394-.761.024-.18.01-.353-.017-.502l-.095-1.258c.595-.53 1.062-1.102 1.38-1.79.362-.784.493-1.637.493-2.61 0-3.473-2.668-6.293-6.07-6.733C17.117 5.01 13.426 2 9.05 2Zm6.835 7.086C15.12 6.186 12.37 4 9.05 4 5.119 4 2 7.053 2 10.738c0 2.082.671 3.584 2.137 4.794.48.396.65 1.028.522 1.583v.004l-.263 1.165.774-.509c.359-.24.801-.33 1.232-.23.66.039 1.134.011 1.747-.025.255-.014.533-.03.858-.044.288-.012.664-.085 1.03-.172l.129-.032A6.641 6.641 0 0 1 10 15.794c0-3.41 2.572-6.191 5.884-6.708ZM6 9a1 1 0 1 0 0 2 1 1 0 0 0 0-2Zm4 1a1 1 0 1 1 2 0 1 1 0 0 1-2 0Zm5 4a1 1 0 1 0 0 2 1 1 0 0 0 0-2Zm3 1a1 1 0 1 1 2 0 1 1 0 0 1-2 0Zm-6 .794C12 13.179 14.205 11 17 11s5 2.179 5 4.794c0 .795-.108 1.336-.309 1.77-.199.432-.527.84-1.097 1.309a1.38 1.38 0 0 0-.477 1.276l.03.377-.316-.134a1.372 1.372 0 0 0-1.117-.093 5.179 5.179 0 0 1-1.714.289c-2.795 0-5-2.18-5-4.794Zm8.254 6.016v.003-.003Z" fill="#000"/></svg>