<svg xmlns="http://www.w3.org/2000/svg" fill="none" viewBox="0 0 24 24"><path data-follow-fill="#202426" d="M12 23c6.075 0 11-4.925 11-11S18.075 1 12 1 1 5.925 1 12s4.925 11 11 11Zm4.74-10.346c0 .335-.257.606-.574.606-.316 0-.573-.271-.573-.606 0-.335.257-.607.573-.607.317 0 .574.272.574.607Zm-2.8 0c0 .335-.257.606-.574.606-.316 0-.573-.271-.573-.606 0-.335.257-.607.573-.607.317 0 .574.272.574.607Zm-1.501-3.621c0 .394-.303.713-.675.713-.373 0-.675-.32-.675-.713 0-.394.302-.714.675-.714.373 0 .675.32.675.714Zm-3.39 0c0 .394-.303.713-.676.713-.372 0-.674-.32-.674-.713 0-.394.302-.714.674-.714.373 0 .675.32.675.714Zm7.165 8.322c-.45.144-.934.222-1.44.222-2.333 0-4.225-1.669-4.225-3.728s1.892-3.728 4.226-3.728c2.333 0 4.225 1.669 4.225 3.728 0 1.137-.577 2.156-1.487 2.84a.235.235 0 0 0-.084.243l.2.803c.059.24-.059.335-.262.21l-.916-.561a.284.284 0 0 0-.237-.029Zm-6.137-2.418c-.6 0-1.176-.091-1.711-.26a.39.39 0 0 0-.324.042l-1.087.671c-.24.148-.378.037-.306-.247l.239-.942a.328.328 0 0 0-.117-.34C5.687 13.04 5 11.824 5 10.468 5 8 7.273 6 10.077 6c2.534 0 4.635 1.634 5.016 3.77a5.391 5.391 0 0 0-.268-.006c-2.566 0-4.647 1.821-4.647 4.067 0 .381.06.75.172 1.1-.09.004-.181.006-.273.006Z" fill="#202426"/></svg>