<svg xmlns="http://www.w3.org/2000/svg" fill="none" viewBox="0 0 24 24"><path fill="#202426" d="M18.547 13.496c.498 0 .901-.43.901-.96 0-.531-.403-.961-.901-.961s-.901.43-.901.96.403.96.901.96Zm-4.4 0c.498 0 .901-.43.901-.96 0-.531-.403-.961-.901-.961s-.901.43-.901.96.403.96.901.96ZM11.629 7.93c-.586 0-1.06-.505-1.06-1.13 0-.623.474-1.13 1.06-1.13.585 0 1.06.507 1.06 1.13 0 .625-.475 1.13-1.06 1.13Zm-5.328 0c-.585 0-1.06-.505-1.06-1.13 0-.623.475-1.13 1.06-1.13.586 0 1.06.507 1.06 1.13 0 .625-.474 1.13-1.06 1.13Zm12.693 12.094a.444.444 0 0 0-.372-.045 7.373 7.373 0 0 1-2.262.35c-3.667 0-6.64-2.642-6.64-5.902 0-3.26 2.973-5.903 6.64-5.903S23 11.168 23 14.428c0 1.8-.907 3.413-2.337 4.496a.373.373 0 0 0-.131.385l.313 1.27c.093.381-.092.531-.411.334l-1.44-.888ZM6.289 15.739a8.885 8.885 0 0 0 3.118.402 5.737 5.737 0 0 1-.27-1.741c0-3.557 3.27-6.44 7.303-6.44.14 0 .28.003.42.01C16.262 4.588 12.96 2 8.978 2 4.572 2 1 5.168 1 9.075c0 2.148 1.08 4.073 2.783 5.37.16.123.234.337.183.54l-.375 1.491c-.113.45.103.626.481.392l1.708-1.063a.61.61 0 0 1 .51-.066Z" data-follow-fill="#202426"/></svg>