<svg xmlns="http://www.w3.org/2000/svg" fill="none" viewBox="0 0 24 24"><path data-follow-fill="#202426" d="M22.357 4.144a6.305 6.305 0 0 0-6.07-2.001h-.002a.94.94 0 0 0-.709 1.115.923.923 0 0 0 1.095.723 4.484 4.484 0 0 1 4.316 1.423 4.685 4.685 0 0 1 .948 4.519.942.942 0 0 0 .595 1.183.92.92 0 0 0 1.161-.607c.675-2.135.249-4.57-1.334-6.355Zm-4.757 7.2c.382-1.05.422-1.957.007-2.604-.778-1.213-2.905-1.147-5.343-.032l-.005.002c-.067.03-.752.332-.565-.3.375-1.316.318-2.42-.265-3.056-1.323-1.446-4.841.055-7.858 3.348C1.311 11.169 0 13.784 0 16.045 0 20.37 5.079 23 10.048 23c6.513 0 10.846-4.133 10.846-7.414 0-1.982-1.529-3.107-2.903-3.572h-.001c-.337-.111-.567-.187-.39-.67Zm-15.178 5.76c-.257-2.841 2.735-5.49 6.68-5.919 3.946-.428 7.352 1.528 7.608 4.369.256 2.842-2.734 5.491-6.68 5.92-3.946.427-7.352-1.53-7.608-4.37Zm5.074 3.155c-1.905-.675-2.712-2.739-1.878-4.598.82-1.824 2.95-2.855 4.835-2.317 1.952.554 2.947 2.574 2.15 4.536-.809 2.008-3.134 3.078-5.107 2.38Zm2.096-3.679c.237.109.54-.017.678-.276.13-.262.046-.556-.191-.652-.233-.102-.525.022-.661.276-.133.255-.06.546.174.652Zm-.623 1.503c.37-.679.175-1.454-.434-1.745-.602-.283-1.38.008-1.752.66-.376.656-.2 1.436.398 1.741.607.31 1.412.016 1.788-.656Zm8-12.68a3.068 3.068 0 0 1 2.97.988 3.27 3.27 0 0 1 .652 3.138.794.794 0 0 1-1.005.529.826.826 0 0 1-.513-1.033 1.6 1.6 0 0 0-.319-1.535 1.503 1.503 0 0 0-1.453-.482.797.797 0 0 1-.946-.63.82.82 0 0 1 .613-.974Z" fill="#202426"/></svg>