<svg xmlns="http://www.w3.org/2000/svg" fill="none" viewBox="0 0 24 24"><path fill="#000" d="M3.287 9.13c5.376-4.328 13.21-4.073 18.297.763L23 8.394C17.16 2.843 8.17 2.552 1.999 7.52c-.342.275-.676.567-.999.874l1.416 1.499c.282-.269.573-.523.871-.763Zm16.645 2.81a11.194 11.194 0 0 0-15.864 0l1.455 1.46a9.14 9.14 0 0 1 12.954 0l1.455-1.46ZM7.155 15.303a6.837 6.837 0 0 1 9.69 0l-1.456 1.46a4.783 4.783 0 0 0-6.778 0l-1.456-1.46Zm6.131 3.407c0 .712-.575 1.29-1.286 1.29-.71 0-1.287-.578-1.287-1.29 0-.713.577-1.29 1.287-1.29s1.287.577 1.287 1.29Z" data-follow-fill="#000"/></svg>