<svg xmlns="http://www.w3.org/2000/svg" fill="none" viewBox="0 0 24 24"><path data-follow-fill="#2B263B" d="M17.796 3.738a2 2 0 0 1 2.828 0l2.707 2.707a2 2 0 0 1 .003 2.826l-2.626 2.635-.705.708-1.417-1.411.706-.709 2.625-2.635-2.707-2.707-8.37 8.37a2 2 0 0 1-2.83 0l-3.22-3.22-2.706 2.706 7.343 7.343 1.368-1.36.71-.705 1.41 1.418-.71.705-1.368 1.36a2 2 0 0 1-2.824-.004L.67 14.422a2 2 0 0 1 0-2.829l2.706-2.705a2 2 0 0 1 2.828 0l3.221 3.22 8.37-8.37ZM17.5 14.5h2V17H22v2h-2.5v2.5h-2V19H15v-2h2.5v-2.5Z" fill="#2B263B"/></svg>