<svg xmlns="http://www.w3.org/2000/svg" fill="none" viewBox="0 0 24 24"><path fill="#2B263B" d="M3.5 5.5v11.586l.793-.793L8.286 12.3a1.01 1.01 0 0 1 1.428 0l1.786 1.786 4.287-4.287a1.01 1.01 0 0 1 1.293-.113l3.42 2.393V5.5a2 2 0 0 0-2-2h-13a2 2 0 0 0-2 2Zm.25 13.968A2 2 0 0 0 5.5 20.5H13v2H5.5a4 4 0 0 1-4-4v-13a4 4 0 0 1 4-4h13a4 4 0 0 1 4 4v8.488a1 1 0 0 1-1.573.832l-4.313-3.02-4.4 4.4a1.01 1.01 0 0 1-1.428 0L9 14.414l-3.293 3.293-1.5 1.5a.996.996 0 0 1-.457.261ZM6.25 7.75a1.5 1.5 0 1 1 3 0 1.5 1.5 0 0 1-3 0ZM17.5 23v-2.5H15v-2h2.5V16h2v2.5H22v2h-2.5V23h-2Z" data-follow-fill="#2B263B"/></svg>