<svg xmlns="http://www.w3.org/2000/svg" fill="none" viewBox="0 0 24 24"><path data-follow-fill="#2B263B" d="M9.5 9a2.5 2.5 0 1 1 0-5 2.5 2.5 0 0 1 0 5Zm0 2a4.5 4.5 0 1 0 0-9 4.5 4.5 0 0 0 0 9ZM17 6.5c0-.908-.483-1.704-1.211-2.143l1.033-1.713A4.498 4.498 0 0 1 19 6.5c0 1.637-.875 3.07-2.178 3.855l-1.033-1.712A2.498 2.498 0 0 0 17 6.5ZM8.357 13H14v2H8.4c-1.137 0-1.929 0-2.546.051-.605.05-.953.142-1.216.276a3 3 0 0 0-1.311 1.311c-.134.263-.226.611-.276 1.216-.05.617-.051 1.41-.051 2.546V22H1v-1.643c0-1.084 0-1.958.058-2.666.06-.729.185-1.369.487-1.96a5 5 0 0 1 2.185-2.186c.592-.302 1.233-.428 1.961-.487C6.4 13 7.273 13 8.357 13Zm9.66 1-.004 3.001H15v2h3.01L18.008 22l2 .003L20.01 19H23v-2h-2.987l.004-2.998-2-.003Z" fill="#2B263B"/></svg>