<svg xmlns="http://www.w3.org/2000/svg" fill="none" viewBox="0 0 24 24"><path data-follow-fill="#2B263B" d="M2.5 1c-.552 0-1 .428-1 .956v18.65c0 1.321 1.12 2.391 2.5 2.391h8.5v-1.912H4a.49.49 0 0 1-.5-.479.49.49 0 0 1 .5-.478h7.5v-1.913H4a2.62 2.62 0 0 0-.5.048V2.913h12c1.657 0 3 1.284 3 2.87v6.424h2V5.782C20.5 3.141 18.261 1 15.5 1h-13Z" fill="#2B263B"/><path data-follow-fill="#2B263B" d="m17.513 18.217.004-2.87 2 .002-.004 2.868H22.5v1.913h-2.99L19.508 23l-2-.003.004-2.867H14.5v-1.913h3.013Z" fill="#2B263B"/></svg>