<svg xmlns="http://www.w3.org/2000/svg" fill="none" viewBox="0 0 24 24"><path fill="#2B263B" d="M12 3a6 6 0 1 0 0 12 6 6 0 0 0 0-12ZM7.82 15.822a8 8 0 1 1 6.365.876l.771 2.508a1 1 0 0 1-.175.919l-2 2.5a1 1 0 0 1-1.562 0l-2-2.5a1 1 0 0 1-.174-.92l.58-1.888A9.022 9.022 0 0 0 3.75 22.4l-1.833-.8a11.04 11.04 0 0 1 5.904-5.778Zm3.995 1.18-.703 2.286L12 20.4l.889-1.11-.705-2.291A8.028 8.028 0 0 1 12 17c-.062 0-.123 0-.185.002Z" data-follow-fill="#2B263B"/><path fill="#2B263B" d="M20.5 19.5V22h-2v-2.5H16v-2h2.5V15h2v2.5H23v2h-2.5Z" data-follow-fill="#2B263B"/></svg>