<svg xmlns="http://www.w3.org/2000/svg" fill="none" viewBox="0 0 24 24"><circle stroke-width="2" stroke="#2B263B" r="7" cy="9" cx="12" data-follow-stroke="#2B263B"/><path stroke-width="2" stroke="#2B263B" d="M12 16c-4.1 0-7.625 2.468-9.168 6M16 19.5h7M19.5 23v-7" data-follow-stroke="#2B263B"/><path fill="#2B263B" d="M6 9a6 6 0 1 1 6 6 6 6 0 0 1-6-6Zm1.82 6.822A11.039 11.039 0 0 0 1.916 21.6l1.832.8A9.002 9.002 0 0 1 12 17a8 8 0 1 0-4.18-1.178ZM18.5 20.5H16v-2h2.5V16h2v2.5H23v2h-2.5V23h-2v-2.5Z" data-follow-fill="#2B263B"/></svg>