<svg xmlns="http://www.w3.org/2000/svg" fill="none" viewBox="0 0 24 24"><path data-follow-fill="#2B263B" d="M6 6a5 5 0 1 1 10 0A5 5 0 0 1 6 6Zm5-3a3 3 0 1 0 0 6 3 3 0 0 0 0-6Z" fill="#2B263B"/><path data-follow-fill="#2B263B" d="M1 21.001c0-5.523 4.477-10 10-10 1.713 0 3.246.567 4.322 1.105.544.272.986.544 1.295.75L15.5 14.501a10.324 10.324 0 0 0-1.072-.605C13.504 13.433 12.288 13 11 13a8 8 0 0 0-8 8v1H1v-1Z" fill="#2B263B"/><path data-follow-fill="#2B263B" d="m10.518 13.74-1.454 5.252a.5.5 0 0 0 .076.425l1.454 2.02a.5.5 0 0 0 .812 0l1.454-2.02a.5.5 0 0 0 .076-.425l-1.454-5.251c-.135-.49-.829-.49-.964 0ZM20 14h-2v3h-3v2h3v3h2v-3h3v-2h-3v-3Z" fill="#2B263B"/></svg>