<svg xmlns="http://www.w3.org/2000/svg" fill="none" viewBox="0 0 24 24"><path fill="#2B263B" d="M12 3a6 6 0 1 0 0 12 6 6 0 0 0 0-12ZM4 9a8 8 0 1 1 12.18 6.822 11.039 11.039 0 0 1 5.904 5.778l-1.832.8a9.022 9.022 0 0 0-5.878-5.084l.582 1.89a1 1 0 0 1-.175.919l-2 2.5a1 1 0 0 1-1.562 0l-2-2.5a1 1 0 0 1-.175-.92l.582-1.888A9.022 9.022 0 0 0 3.749 22.4l-1.833-.8a11.04 11.04 0 0 1 5.904-5.778A7.995 7.995 0 0 1 4 9Zm7.815 8.002-.704 2.286L12 20.4l.889-1.11-.704-2.287a8.744 8.744 0 0 0-.37 0Z" clip-rule="evenodd" fill-rule="evenodd" data-follow-fill="#2B263B"/></svg>