<svg xmlns="http://www.w3.org/2000/svg" fill="none" viewBox="0 0 24 24"><path fill="#2B263B" d="M12 1a5 5 0 1 0 0 10 5 5 0 0 0 0-10ZM9 6a3 3 0 1 1 6 0 3 3 0 0 1-6 0Z" data-follow-fill="#2B263B"/><path fill="#2B263B" d="M12 11A9.98 9.98 0 0 0 2 21v1h2v-1c0-4.445 3.58-8 8-8a8 8 0 0 1 8 8v1h2v-1c0-5.522-4.477-10-10-10Z" data-follow-fill="#2B263B"/><path fill="#2B263B" d="m10.064 18.991 1.454-5.25c.135-.49.829-.49.964 0l1.454 5.25a.5.5 0 0 1-.076.426l-1.454 2.02a.5.5 0 0 1-.812 0l-1.454-2.02a.5.5 0 0 1-.076-.426Z" data-follow-fill="#2B263B"/></svg>