<svg xmlns="http://www.w3.org/2000/svg" fill="none" viewBox="0 0 24 24"><path fill="#2B263B" d="M2.5 5.291a4 4 0 0 1 4-4h14.99c.558 0 1.01.452 1.01 1.01v4.49h-2v-3.5h-14a2 2 0 0 0-2 2v12.5h1.91a1 1 0 0 1 .89.546l.836 1.637 1.488-1.817a1 1 0 0 1 .773-.366H12.5v2h-1.63l-2.06 2.515a1.1 1.1 0 0 1-1.83-.197l-1.183-2.318H3.51a1.01 1.01 0 0 1-1.01-1.01V5.291Z" data-follow-fill="#2B263B"/><path fill="#2B263B" d="M9.5 11a1 1 0 1 1-2 0 1 1 0 0 1 2 0Zm4 0a1 1 0 1 1-2 0 1 1 0 0 1 2 0Zm4 0a1 1 0 1 1-2 0 1 1 0 0 1 2 0Zm3.109-2.49a1 1 0 0 1 .755.2l2.25 1.75a1 1 0 0 1 .192 1.382l-5.5 7.5a1 1 0 0 1-.806.408h-2a1 1 0 0 1-1-1v-2a1 1 0 0 1 .19-.586l5.25-7.25a1 1 0 0 1 .669-.404Zm.344 2.415-4.453 6.15v.675h.493l4.626-6.307-.666-.518Z" data-follow-fill="#2B263B"/></svg>