<svg xmlns="http://www.w3.org/2000/svg" fill="none" viewBox="0 0 24 24"><path fill="#2B263B" d="M9 8v2a3 3 0 1 0 6 0V8h2v2a5 5 0 0 1-10 0V8h2Z" data-follow-fill="#2B263B"/><path fill="#2B263B" d="M1.897 5.304A4 4 0 0 1 5.89 1.526h12.218a4 4 0 0 1 3.994 3.778l.508 9.14-1.997.111-.508-9.14a2 2 0 0 0-1.997-1.889H5.891a2 2 0 0 0-1.997 1.89l-.72 12.947a2 2 0 0 0 1.997 2.11H13v2H5.171a4 4 0 0 1-3.994-4.221l.72-12.948Z" data-follow-fill="#2B263B"/><path fill="#2B263B" d="M17.5 18.5V16h2v2.5H22v2h-2.5V23h-2v-2.5H15v-2h2.5Z" data-follow-fill="#2B263B"/></svg>