<svg xmlns="http://www.w3.org/2000/svg" fill="none" viewBox="0 0 24 24"><path fill="#2B263B" d="M1 4a2 2 0 0 1 2-2h9a2 2 0 0 1 2 2v5h7a2 2 0 0 1 2 2v7a1 1 0 0 1-1 1h-1.035a3.501 3.501 0 0 1-6.93 0h-4.07a3.5 3.5 0 0 1-6.93 0H2a1 1 0 0 1-1-1v-3.5h2V17h.337a3.5 3.5 0 0 1 6.326 0H12V4H3v1.5H1V4Zm13 13h.337a3.5 3.5 0 0 1 6.326 0H21v-6h-7v6Zm-6 1.5a1.5 1.5 0 1 0-3 0 1.5 1.5 0 0 0 3 0Zm-6.75-7.842a1.013 1.013 0 0 1 0-1.327l2.778-3.205 1.512 1.31L4.184 9H10v2H4.193l1.35 1.558-1.511 1.31-2.782-3.21ZM17.5 17a1.5 1.5 0 1 0 0 3 1.5 1.5 0 0 0 0-3Z" data-follow-fill="#2B263B"/></svg>