<svg xmlns="http://www.w3.org/2000/svg" fill="none" viewBox="0 0 24 24"><path fill="#2B263B" d="M9 8v2a3 3 0 1 0 6 0V8h2v2a5 5 0 0 1-10 0V8h2Zm10.99 7.008 2.185 2.184a.81.81 0 0 1-.573 1.383h-6.626v-1.6h4.72l-.837-.836 1.131-1.131Zm-4.762 6.35a.81.81 0 0 1 .573-1.384h6.626v1.6h-4.72l.837.837-1.131 1.131-2.185-2.185Z" data-follow-fill="#2B263B"/><path fill="#2B263B" d="M1.897 5.304A4 4 0 0 1 5.89 1.526h12.218a4 4 0 0 1 3.994 3.778l.425 7.64-1.997.111-.425-7.64a2 2 0 0 0-1.997-1.889H5.891a2 2 0 0 0-1.997 1.89l-.72 12.947a2 2 0 0 0 1.997 2.11H13v2H5.171a4 4 0 0 1-3.994-4.221l.72-12.948Z" data-follow-fill="#2B263B"/></svg>