<svg xmlns="http://www.w3.org/2000/svg" fill="none" viewBox="0 0 24 24"><path fill="#2B263B" d="M24 12c0 1.668-.348 3.252-.96 4.692-1.26-.504-5.076-1.992-7.776-2.952 1.212-2.148 1.608-4.32 1.608-4.32h-3.888V7.86h4.86v-.78h-4.86V5.136h-1.752c-.336 0-.384.168-.384.384v1.56H6.384v.792h4.464v1.56H7.152v.78h7.2c-.192.732-.504 1.824-.984 2.844-1.728-.612-3.792-1.128-4.968-1.14-.804-.012-2.34.048-3.492 1.176a2.796 2.796 0 0 0-.828 1.536 2.267 2.267 0 0 0-.036.564 1.255 1.255 0 0 0 0 .3c.01.13.041.25.073.377l.011.043c.072.276.18.456.18.456a.17.17 0 0 0-.024-.072c.18.36.42.648.636.888.42.456 1.14.912 2.124 1.116.984.204 1.932.084 2.976-.228 1.668-.492 3.144-1.632 4.14-2.772 1.506.732 3.679 1.809 5.549 2.736l2.011.996C19.536 22.032 15.996 24 12 24 5.388 24 0 18.612 0 12S5.388 0 12 0s12 5.388 12 12ZM4.728 14.496c.084-.42.384-.756.672-.984.492-.264 1.176-.456 2.124-.492 1.848-.072 3.588.72 4.98 1.44-.612.828-1.26 1.368-1.644 1.632-.972.672-2.256 1.272-3.456 1.188-.444-.036-1.476-.228-2.148-.912a2.063 2.063 0 0 1-.528-1.872Z" data-follow-fill="#2B263B"/></svg>