<svg xmlns="http://www.w3.org/2000/svg" fill="none" viewBox="0 0 24 24"><path fill="#2B263B" d="M14.75 16.25h1.755a1 1 0 0 1 .914.594l1.086 2.444 1.086-2.444a1 1 0 0 1 .914-.594h1.745v2h-1.095l-1.736 3.906a1 1 0 0 1-1.828 0l-1.736-3.906H14.75v-2ZM8.5 10a1.5 1.5 0 1 1-3 0 1.5 1.5 0 0 1 3 0Zm5 0a1.5 1.5 0 1 1-3 0 1.5 1.5 0 0 1 3 0Zm5 0a1.5 1.5 0 1 1-3 0 1.5 1.5 0 0 1 3 0Z" data-follow-fill="#2B263B"/><path fill="#2B263B" d="M23 5a4 4 0 0 0-4-4H5a4 4 0 0 0-4 4v10a4 4 0 0 0 4 4h2v2.238c0 1.87 2.339 2.718 3.536 1.28l2.56-3.072-1.536-1.28L9 21.238V18.01A1.01 1.01 0 0 0 7.99 17H5a2 2 0 0 1-2-2V5a2 2 0 0 1 2-2h14a2 2 0 0 1 2 2v9.25h2V5Z" data-follow-fill="#2B263B"/></svg>