<svg xmlns="http://www.w3.org/2000/svg" fill="none" viewBox="0 0 24 24"><path fill="#2B263B" d="M23 10.78c0 .841-.103 1.663-.31 2.467a7.15 7.15 0 0 1-.898 2.191A5.327 5.327 0 0 1 20.275 17c-.6.384-1.312.575-2.136.575-.861 0-1.545-.237-2.05-.712-.488-.493-.788-1.05-.9-1.671h-.14a4.5 4.5 0 0 1-1.49 1.698c-.655.457-1.48.685-2.472.685-1.424 0-2.529-.465-3.316-1.397-.768-.931-1.152-2.164-1.152-3.699 0-1.205.244-2.264.73-3.178A5.452 5.452 0 0 1 9.402 7.11c.9-.53 1.957-.795 3.175-.795.824 0 1.63.073 2.416.22.806.127 1.433.273 1.883.438l-.281 5.561c-.019.329-.028.566-.028.713v.274c0 .95.168 1.58.506 1.89.355.31.768.466 1.236.466.58 0 1.067-.229 1.46-.685.413-.475.722-1.096.928-1.863a9.333 9.333 0 0 0 .337-2.576c0-1.698-.356-3.132-1.068-4.301a6.83 6.83 0 0 0-2.893-2.712c-1.218-.621-2.604-.932-4.159-.932-1.592 0-3.006.247-4.242.74-1.237.493-2.276 1.187-3.12 2.082-.823.895-1.451 1.954-1.882 3.178-.43 1.206-.646 2.539-.646 4 0 1.79.328 3.315.983 4.576a6.66 6.66 0 0 0 2.866 2.849c1.274.64 2.829.959 4.664.959 1.143 0 2.23-.128 3.26-.384a23.283 23.283 0 0 0 2.781-.794v1.863c-.805.329-1.714.593-2.725.794-.993.22-2.098.329-3.316.329-2.21 0-4.102-.402-5.675-1.206-1.574-.803-2.782-1.954-3.625-3.451C1.412 16.826 1 15.009 1 12.89c0-1.698.272-3.269.815-4.712.543-1.461 1.33-2.721 2.36-3.78 1.03-1.078 2.276-1.91 3.737-2.494C9.392 1.301 11.059 1 12.913 1c1.461 0 2.8.228 4.018.685a8.865 8.865 0 0 1 3.203 1.945 8.324 8.324 0 0 1 2.107 3.07c.506 1.205.759 2.566.759 4.082ZM8.811 12.535c0 1.17.234 2.018.702 2.548.487.53 1.134.795 1.94.795 1.048 0 1.797-.384 2.247-1.151.468-.767.74-1.763.815-2.986l.168-3.425a6.666 6.666 0 0 0-.927-.192 7.952 7.952 0 0 0-1.152-.082c-.918 0-1.658.22-2.22.658a3.629 3.629 0 0 0-1.208 1.698 6.255 6.255 0 0 0-.365 2.137Z" data-follow-fill="#2B263B"/></svg>