<svg xmlns="http://www.w3.org/2000/svg" fill="none" viewBox="0 0 24 24"><path fill="#2B263B" d="M7.5 2a1 1 0 0 1 1-1h7a1 1 0 0 1 1 1H18a4 4 0 0 1 4 4v13a4 4 0 0 1-4 4H6a4 4 0 0 1-4-4V6a4 4 0 0 1 4-4h1.5Zm0 2H6a2 2 0 0 0-2 2v13a2 2 0 0 0 2 2h12a2 2 0 0 0 2-2V6a2 2 0 0 0-2-2h-1.5v1a1 1 0 0 1-1 1h-7a1 1 0 0 1-1-1V4Zm2-1v1h5V3h-5Zm2.5 7.345L13.845 8.5l1.414 1.414-1.696 1.696h2.265v2H13v.978h2.828v2H13v1.978h-2v-1.978H8.17v-2H11v-.978H8.17v-2h2.266L8.74 9.914 10.155 8.5 12 10.345Z" data-follow-fill="#2B263B"/></svg>