<svg xmlns="http://www.w3.org/2000/svg" fill="none" viewBox="0 0 24 24"><path fill="#2B263B" d="M12 3a6 6 0 1 1 0 12 6 6 0 0 1 0-12ZM7.82 15.822A11.04 11.04 0 0 0 1.916 21.6l1.833.8A9.002 9.002 0 0 1 12 17a8 8 0 1 0-4.18-1.178Z" data-follow-fill="#2B263B"/><path fill="#2B263B" d="M19.25 17a2.25 2.25 0 0 0-1.894 3.464l2.605-3.35a2.246 2.246 0 0 0-.71-.114Zm1.895 1.036-2.605 3.35a2.25 2.25 0 0 0 2.605-3.35ZM15.5 19.25a3.75 3.75 0 1 1 7.5 0 3.75 3.75 0 0 1-7.5 0Z" data-follow-fill="#2B263B"/></svg>