<svg xmlns="http://www.w3.org/2000/svg" fill="none" viewBox="0 0 24 24"><path fill="#2B263B" d="M9.5 10h8v2h-8v-2Z" data-follow-fill="#2B263B"/><path fill="#2B263B" d="M1.484 3H1V1h.484a4.001 4.001 0 0 1 3.709 2.5H19a4 4 0 0 1 4 4V19a2 2 0 0 1-2 2h-.17a3.001 3.001 0 0 1-5.66 0h-3.34a3.001 3.001 0 0 1-5.66 0h-.686a2 2 0 0 1-2-2V5a2 2 0 0 0-2-2ZM6.17 19a3.001 3.001 0 0 1 5.658 0h3.342a3.001 3.001 0 0 1 5.658 0H21V7.5a2 2 0 0 0-2-2H5.484V19h.687ZM9 19a1 1 0 1 0 0 2 1 1 0 0 0 0-2Zm9 0a1 1 0 1 0 0 2 1 1 0 0 0 0-2Z" data-follow-fill="#2B263B"/></svg>