<svg xmlns="http://www.w3.org/2000/svg" fill="none" viewBox="0 0 24 24"><path fill="#2B263B" d="M1 3V1h1.33a3.154 3.154 0 0 1 3.154 3.154V18a1 1 0 0 0 .703.956 3.001 3.001 0 0 1 5.642.044h3.342a3.001 3.001 0 0 1 5.537-.293A.997.997 0 0 0 21 18V6.924c0-.638-.517-1.154-1.154-1.154H8v-2h11.846A3.154 3.154 0 0 1 23 6.924V18a3.001 3.001 0 0 1-2.128 2.872A3.001 3.001 0 0 1 15.17 21h-3.342a3.001 3.001 0 0 1-5.664-.016A3 3 0 0 1 3.484 18V4.154C3.484 3.517 2.967 3 2.33 3H1Zm16.5 7h-8v2h8v-2ZM8 20a1 1 0 1 0 2 0 1 1 0 0 0-2 0Zm9 0a1 1 0 1 0 2 0 1 1 0 0 0-2 0Z" data-follow-fill="#2B263B"/></svg>