<svg xmlns="http://www.w3.org/2000/svg" fill="none" viewBox="0 0 24 24"><path fill="#2B263B" d="M8.842 1.5a1 1 0 0 0-1 1v2H2.5a1 1 0 0 0-1 1v5a1 1 0 0 0 1 1H3v2.866a24.95 24.95 0 0 1-.96 6.854c-.183.641.298 1.28.966 1.28h15.99c.45 0 .843-.297.966-.728A26.966 26.966 0 0 0 21 14.363V11.5h.5a1 1 0 0 0 1-1v-5a1 1 0 0 0-1-1h-5.342v-2a1 1 0 0 0-1-1H8.842ZM19 11.5v2.863c0 2.07-.258 4.132-.766 6.137h-3.592c.567-1.775.858-3.63.858-5.5h-2c0 1.878-.33 3.74-.972 5.5H9.642c.567-1.775.858-3.63.858-5.5h-2c0 1.878-.33 3.74-.972 5.5H4.293c.47-2.01.707-4.068.707-6.134V11.5h14Zm-10.158-5a1 1 0 0 0 1-1v-2h4.316v2a1 1 0 0 0 1 1H20.5v3h-17v-3h5.342Z" data-follow-fill="#2B263B"/></svg>