<svg xmlns="http://www.w3.org/2000/svg" fill="none" viewBox="0 0 24 24"><path fill="#2B263B" d="M10.209 1.981c.73-1.489 2.85-1.494 3.588-.009l2.58 5.2 5.77.842c1.637.239 2.293 2.25 1.11 3.408l-2.34 2.292-1.4-1.428 2.34-2.293-5.768-.841a2 2 0 0 1-1.503-1.09l-2.581-5.2-2.543 5.19a2 2 0 0 1-1.51 1.1l-5.806.842 4.211 4.117a2 2 0 0 1 .572 1.777l-.996 5.664 5.596-2.983.94 1.765-5.595 2.983c-1.471.784-3.2-.47-2.91-2.111l.995-5.665-4.211-4.117c-1.185-1.158-.529-3.172 1.11-3.41l5.808-.841 2.543-5.192ZM16.5 16.5V14h2v2.5H21v2h-2.5V21h-2v-2.5H14v-2h2.5Z" data-follow-fill="#2B263B"/></svg>