<svg xmlns="http://www.w3.org/2000/svg" fill="none" viewBox="0 0 24 24"><path fill="#000" d="M11.997 1a1 1 0 0 1 .898.555l3.018 6.082 6.731.981a1 1 0 0 1 .556 1.704l-2.636 2.582-1.4-1.43 1.194-1.168-5.252-.766a1 1 0 0 1-.751-.545l-2.35-4.734-2.317 4.73a1 1 0 0 1-.755.55l-5.287.766 3.834 3.749a1 1 0 0 1 .286.888l-.907 5.158 4.67-2.49.94 1.766-6.48 3.454a1 1 0 0 1-1.455-1.055l1.17-6.66-4.903-4.794a1 1 0 0 1 .556-1.705l6.767-.981 2.977-6.077a1 1 0 0 1 .896-.56Zm6.016 17 .004-3.001 2 .002L20.013 18H23v2h-2.99l-.003 3.001-2-.002L18.01 20H15v-2h3.013Z" data-follow-fill="#000"/></svg>