<svg xmlns="http://www.w3.org/2000/svg" fill="none" viewBox="0 0 24 24"><path fill="#2B263B" d="M10.209 1.981c.73-1.489 2.85-1.494 3.588-.009l2.58 5.2 5.77.842c1.637.239 2.293 2.25 1.11 3.408l-.98.96a7 7 0 0 0-10.89 8.529l-4.513 2.406c-1.471.784-3.2-.47-2.91-2.111l.995-5.665-4.211-4.117c-1.185-1.158-.529-3.172 1.11-3.41l5.808-.841 2.543-5.192ZM17.5 23.5h.094a6.002 6.002 0 0 0 3.967-10.416A6 6 0 1 0 17.5 23.5Zm-.432-2.596a1 1 0 0 1-1.41 0l-2.536-2.523 1.41-1.418 1.83 1.822 4.023-4.004 1.411 1.418-4.728 4.705Z" data-follow-fill="#2B263B"/></svg>