<svg xmlns="http://www.w3.org/2000/svg" fill="none" viewBox="0 0 24 24"><path fill="#2B263B" d="M12.857 20.894 16 12.812V3H6.46a2 2 0 0 0-1.962 1.608L3 12.099v.231a2 2 0 0 0 2 2c.028 0 .055.001.082.003h5.407c.558 0 1.011.453 1.011 1.011V19a2 2 0 0 0 1.357 1.894ZM17.684 14l-3.25 8.356a1.01 1.01 0 0 1-.943.644A4 4 0 0 1 9.5 19v-2.667H5v-.003a4 4 0 0 1-4-4v-.429l1.537-7.685A4 4 0 0 1 6.46 1H19a4 4 0 0 1 4 4v5a4 4 0 0 1-4 4h-1.316ZM18 12h1a2 2 0 0 0 2-2V5a2 2 0 0 0-2-2h-1v9Z" data-follow-fill="#2B263B"/></svg>