<svg xmlns="http://www.w3.org/2000/svg" fill="none" viewBox="0 0 24 24"><path fill="#2B263B" d="M11.143 3.106 8 11.188V21h9.54a2 2 0 0 0 1.962-1.608L21 11.901v-.231a2 2 0 0 0-2-2c-.028 0-.055-.001-.082-.003H13.51a1.011 1.011 0 0 1-1.01-1.011V5a2 2 0 0 0-1.357-1.894ZM6.316 10l3.25-8.356A1.01 1.01 0 0 1 10.509 1 4 4 0 0 1 14.5 5v2.667H19v.003a4 4 0 0 1 4 4v.429l-1.537 7.686A4 4 0 0 1 17.54 23H5a4 4 0 0 1-4-4v-5a4 4 0 0 1 4-4h1.316ZM6 12H5a2 2 0 0 0-2 2v5a2 2 0 0 0 2 2h1v-9Z" data-follow-fill="#2B263B"/></svg>