<svg xmlns="http://www.w3.org/2000/svg" fill="none" viewBox="0 0 24 24"><path fill="#2B263B" d="M13.475 23A4.5 4.5 0 0 1 9 18.555v-2.222H4.162a3.223 3.223 0 0 1-3.16-3.316l.001-.057.976-6.778h-.004l.141-.99A4.89 4.89 0 0 1 6.956 1h12.822A3.222 3.222 0 0 1 23 4.222v6.556A3.222 3.222 0 0 1 19.778 14h-2.094l-3.247 8.351a.995.995 0 0 1-.962.649Zm-.626-2.085L16 12.813V3H6.956A2.89 2.89 0 0 0 4.11 5.389a1.016 1.016 0 0 1-.01.087L3 13.124a1.222 1.222 0 0 0 1.21 1.21h5.78a1.01 1.01 0 0 1 1.011 1.01V18.5c0 1.156.784 2.128 1.85 2.415ZM18 3v9h1.778c.675 0 1.222-.547 1.222-1.222V4.222C21 3.547 20.453 3 19.778 3H18Z" data-follow-fill="#2B263B"/></svg>