<svg xmlns="http://www.w3.org/2000/svg" fill="none" viewBox="0 0 24 24"><g clip-path="url(#89de6__a)"><path stroke-width="2" stroke="#2B263B" d="M7.5 22h9M5 19h14a3 3 0 0 0 3-3V5a3 3 0 0 0-3-3H5a3 3 0 0 0-3 3v11a3 3 0 0 0 3 3Z" data-follow-stroke="#2B263B"/><path fill="#2B263B" d="M11 5.5h2v10h-2v-10Zm-4 1h2v9H7v-9Zm10 3h-2v6h2v-6Z" clip-rule="evenodd" fill-rule="evenodd"/><path fill="#2B263B" d="M5 3a2 2 0 0 0-2 2v11a2 2 0 0 0 2 2h14a2 2 0 0 0 2-2V5a2 2 0 0 0-2-2H5ZM1 5a4 4 0 0 1 4-4h14a4 4 0 0 1 4 4v11a4 4 0 0 1-4 4H5a4 4 0 0 1-4-4V5Zm15.5 18h-9v-2h9v2ZM13 5.5h-2v10h2v-10Zm-4 1H7v9h2v-9Zm6 3h2v6h-2v-6Z"/></g><defs><clipPath id="89de6__a"><path fill="#fff" d="M0 0h24v24H0z"/></clipPath></defs></svg>