<svg xmlns="http://www.w3.org/2000/svg" fill="none" viewBox="0 0 24 24"><path fill="#2B263B" d="M11.417 2.229c.376-.15.794-.15 1.17 0l7.653 3.044a.678.678 0 0 1 .067 1.229l-7.565 4.005a1.581 1.581 0 0 1-1.48 0L3.696 6.502a.678.678 0 0 1 .067-1.23l7.654-3.043Zm10.658 6.43a.678.678 0 0 0-.991-.662l-7.392 3.907c-.556.294-.903.87-.903 1.498v8.445c0 .541.604.864 1.054.564l6.521-4.348a2.26 2.26 0 0 0 .997-1.672l.714-7.733ZM2.976 7.996a.678.678 0 0 0-.992.661l.715 7.733a2.26 2.26 0 0 0 .997 1.672l6.52 4.348a.678.678 0 0 0 1.055-.564v-8.445c0-.628-.348-1.204-.903-1.498L2.976 7.997Z" data-follow-fill="#2B263B"/></svg>