<svg xmlns="http://www.w3.org/2000/svg" fill="none" viewBox="0 0 24 24"><path fill="#2B263B" d="M14.5 18.65a2.65 2.65 0 0 1 4-2.28 2.65 2.65 0 0 1 4 2.28c0 1.21-.698 2.237-1.396 2.941-.707.714-1.587 1.274-2.289 1.507a1 1 0 0 1-.63 0c-.702-.233-1.582-.793-2.29-1.507-.697-.704-1.395-1.732-1.395-2.941Zm2.65-.65a.65.65 0 0 0-.65.65c0 .44.276.988.817 1.534.394.398.838.702 1.183.88a4.911 4.911 0 0 0 1.183-.88c.54-.546.817-1.093.817-1.534a.65.65 0 0 0-1.182-.373 1 1 0 0 1-1.636 0A.648.648 0 0 0 17.15 18ZM9 8v2a3 3 0 1 0 6 0V8h2v2a5 5 0 0 1-10 0V8h2Z" clip-rule="evenodd" fill-rule="evenodd" data-follow-fill="#2B263B"/><path fill="#2B263B" d="M1.897 5.304A4 4 0 0 1 5.89 1.526h12.218a4 4 0 0 1 3.994 3.778l.49 8.823-1.997.11-.49-8.822a2 2 0 0 0-1.997-1.889H5.891a2 2 0 0 0-1.997 1.89l-.72 12.947a2 2 0 0 0 1.997 2.11H13v2H5.171a4 4 0 0 1-3.994-4.221l.72-12.948Z" clip-rule="evenodd" fill-rule="evenodd" data-follow-fill="#2B263B"/></svg>