<svg xmlns="http://www.w3.org/2000/svg" fill="none" viewBox="0 0 24 24"><path fill="#2B263B" d="M2.997 4.79A3 3 0 0 1 5.99 2h12.02a3 3 0 0 1 2.993 2.79l.537 7.64-1.995.14-.537-7.64a1 1 0 0 0-.997-.93H5.99a1 1 0 0 0-.998.93l-.984 14A1 1 0 0 0 5.006 20H12v2H5.006a3 3 0 0 1-2.993-3.21l.984-14ZM9 8v2a3 3 0 1 0 6 0V8h2v2a5 5 0 0 1-10 0V8h2Zm7.15 6.43a2.65 2.65 0 0 0-2.65 2.65c0 1.208.698 2.236 1.396 2.94.707.714 1.587 1.274 2.289 1.507a1 1 0 0 0 .63 0c.702-.233 1.582-.793 2.29-1.507.697-.704 1.395-1.732 1.395-2.94a2.65 2.65 0 0 0-4-2.281 2.638 2.638 0 0 0-1.35-.37Zm-.65 2.65a.65.65 0 0 1 1.182-.374 1 1 0 0 0 1.636 0 .65.65 0 0 1 1.182.373c0 .441-.276.988-.817 1.534a4.89 4.89 0 0 1-1.183.88 4.89 4.89 0 0 1-1.183-.88c-.54-.546-.817-1.093-.817-1.534Z" data-follow-fill="#2B263B"/></svg>