<svg xmlns="http://www.w3.org/2000/svg" fill="none" viewBox="0 0 24 24"><path fill="#2B263B" d="M3.024 9.758C4.026 5.733 7.664 2.75 12 2.75a9.24 9.24 0 0 1 7.648 4.045l.005-.032c1.018.157 1.935.413 2.647.797.7.377 1.361.97 1.518 1.856.163.927-.301 1.74-.87 2.348-.452.485-1.059.94-1.765 1.359A9.252 9.252 0 0 1 12 21.25a9.25 9.25 0 0 1-8.282-5.126c-.724-.15-1.376-.356-1.916-.63-.742-.378-1.456-.983-1.62-1.91-.166-.942.316-1.766.898-2.379.493-.519 1.162-1.003 1.944-1.447Zm-.267 2.606c-.084.074-.16.147-.227.218-.4.422-.383.63-.378.654.004.025.056.22.556.474.068.035.141.069.22.102a9.268 9.268 0 0 1-.171-1.448Zm3.495 4.055A7.253 7.253 0 0 0 18.9 14.232c-1.736.702-3.839 1.298-6.119 1.7-2.36.416-4.614.572-6.53.487Zm12.997-4.528a7.25 7.25 0 1 0-14.118 2.434c1.921.226 4.497.132 7.303-.363 2.714-.479 5.098-1.236 6.815-2.071Zm1.911-1.184c.125-.105.234-.208.327-.308.384-.41.365-.61.361-.635-.004-.024-.05-.202-.497-.443a3.89 3.89 0 0 0-.573-.245 9.11 9.11 0 0 1 .382 1.631Z" data-follow-fill="#2B263B"/></svg>