<svg xmlns="http://www.w3.org/2000/svg" fill="none" viewBox="0 0 24 24"><path fill="#2B263B" d="M11 3a6 6 0 1 1 0 12 6 6 0 0 1 0-12ZM6.82 15.822A11.04 11.04 0 0 0 .916 21.6l1.833.8A9.002 9.002 0 0 1 11 17a8 8 0 1 0-4.18-1.178Zm9.616.835A1.278 1.278 0 0 1 17.553 16h2.728c.464 0 .892.252 1.117.657l1.235 2.223c.214.385.214.855 0 1.24l-1.235 2.223a1.278 1.278 0 0 1-1.117.657h-2.728c-.464 0-.892-.252-1.117-.657L15.2 20.12a1.278 1.278 0 0 1 0-1.24l1.235-2.223ZM17.978 18l-.834 1.5.834 1.5h1.878l.834-1.5-.834-1.5h-1.878Z" data-follow-fill="#2B263B"/></svg>