<svg xmlns="http://www.w3.org/2000/svg" fill="none" viewBox="0 0 24 24"><path fill="#2B263B" d="M5.476 2.13a2 2 0 0 1 1.456-.63h10.136a2 2 0 0 1 1.456.63l3.704 3.935a1 1 0 0 1 .272.692V14.5h-2V7.75h-17V18.5a2 2 0 0 0 2 2H13v2H5.5a4 4 0 0 1-4-4V6.757a1 1 0 0 1 .272-.692l3.704-3.936Zm-.662 3.62h14.372L17.068 3.5H6.932L4.814 5.75Z" data-follow-fill="#2B263B"/><path fill="#2B263B" d="M7.975 11.254h8v2h-8v-2Zm6.975 8.172a3.476 3.476 0 1 1 6.434 1.826l.997.998-1.131 1.131-.998-.997a3.476 3.476 0 0 1-5.302-2.958Zm3.476-1.876a1.876 1.876 0 1 0 0 3.752 1.876 1.876 0 0 0 0-3.752Z" data-follow-fill="#2B263B"/></svg>