<svg xmlns="http://www.w3.org/2000/svg" fill="none" viewBox="0 0 24 24"><path fill="#2B263B" d="M5.476 2.13a2 2 0 0 1 1.456-.63h10.136a2 2 0 0 1 1.456.63l3.704 3.935a1 1 0 0 1 .272.692V18.5a4 4 0 0 1-4 4h-13a4 4 0 0 1-4-4V6.757a1 1 0 0 1 .272-.692l3.704-3.936ZM3.5 7.75V18.5a2 2 0 0 0 2 2h13a2 2 0 0 0 2-2V7.75h-17Zm15.686-2L17.068 3.5H6.932L4.814 5.75h14.372Zm-7.894 4.044a1 1 0 0 1 1.412-.004l4.276 4.243-1.409 1.42L13 12.9V19h-2v-6.08l-2.465 2.473L7.12 13.98l4.173-4.187Z" data-follow-fill="#2B263B"/></svg>