<svg xmlns="http://www.w3.org/2000/svg" fill="none" viewBox="0 0 24 24"><path data-follow-fill="#2B263B" d="M5.476 2.13a2 2 0 0 1 1.456-.63h10.136a2 2 0 0 1 1.456.63l3.704 3.935a1 1 0 0 1 .272.692V18.5a4 4 0 0 1-4 4h-13a4 4 0 0 1-4-4V6.757a1 1 0 0 1 .272-.692l3.704-3.936ZM3.5 7.75V18.5a2 2 0 0 0 2 2h13a2 2 0 0 0 2-2V7.75h-17Zm15.686-2L17.068 3.5H6.932L4.814 5.75h14.372Z" fill="#2B263B"/><path data-follow-fill="#2B263B" d="m11.567 17.548 5.79-5.79-1.414-1.415-5.083 5.084-2.546-2.528L6.9 14.313l3.253 3.235a1 1 0 0 0 1.414 0Z" fill="#2B263B"/></svg>