<svg xmlns="http://www.w3.org/2000/svg" fill="none" viewBox="0 0 24 24"><path fill="#2B263B" d="M12 2C6.477 2 2 6.477 2 12s4.477 10 10 10 10-4.477 10-10S17.523 2 12 2Zm12 10c0 6.627-5.373 12-12 12S0 18.627 0 12 5.373 0 12 0s12 5.373 12 12Zm-7.869-6.282-2.655 2.656a1.11 1.11 0 0 0 0 1.569l2.655 2.655 1.414-1.414-2.025-2.026 2.025-2.025-1.414-1.415Zm-7.633.708h-2v5.465h2V6.426Zm2.027 10.834a5.558 5.558 0 0 0 6.807-3.93l1.932.517a7.558 7.558 0 0 1-9.257 5.345l.518-1.932Z" data-follow-fill="#2B263B"/></svg>