<svg xmlns="http://www.w3.org/2000/svg" fill="none" viewBox="0 0 24 24"><path fill="#2B263B" d="M6.465 14.19c.022.052.27.594 1.024.499a.074.074 0 0 0 .037-.13c-.107-.088-.244-.227-.29-.402.304-.091.549-.27.736-.538.19-.278.3-.62.327-1.026.034-.5-.068-.893-.306-1.176-.232-.278-.56-.417-.983-.417-.423 0-.77.138-1.04.413-.275.286-.43.68-.464 1.18-.029.43.044.788.219 1.072.17.272.416.446.739.52l.001.005Zm-.088-.846c-.103-.178-.143-.429-.122-.751.02-.3.094-.534.22-.703a.587.587 0 0 1 .492-.252c.202 0 .355.085.46.255.104.17.147.403.127.7-.022.32-.098.57-.227.75a.574.574 0 0 1-.493.267.494.494 0 0 1-.457-.266Zm3.303-2.207a.073.073 0 0 0-.07-.079h-.29c-.245 0-.377.124-.393.372l-.18 2.653a.072.072 0 0 0 .07.078h.275v-.001l.02.001c.242 0 .372-.123.389-.371l.178-2.653Zm2.86 2.72-.612-2.586a.294.294 0 0 0-.099-.154.264.264 0 0 0-.17-.059h-.434a.329.329 0 0 0-.305.213l-.909 2.446-.113.28c-.031.078.024.164.106.164h.361c.068 0 .13-.02.182-.06a.316.316 0 0 0 .111-.161l.681-1.917a.019.019 0 0 1 .036.003l.471 2.077a.072.072 0 0 0 .07.058h.386c.093 0 .161-.028.206-.084.045-.055.056-.128.032-.22Zm5.606-2.436c-.25-.241-.62-.363-1.114-.363h-.62a.282.282 0 0 0-.2.076.285.285 0 0 0-.09.196l-.155 2.28-.034.473a.073.073 0 0 0 .073.08l.143-.002h.711c.472 0 .848-.126 1.128-.38.301-.269.47-.665.506-1.188.035-.522-.08-.913-.348-1.172Zm-.413 1.172c-.024.348-.12.601-.289.76-.15.138-.36.208-.63.208h-.1l.131-1.91h.1c.272 0 .473.065.602.196.148.15.21.399.186.746Zm-2.661-1.535a.275.275 0 0 0-.285.272l-.097 1.441a.019.019 0 0 1-.036.007l-.764-1.545a.28.28 0 0 0-.27-.175h-.287a.275.275 0 0 0-.284.272l-.158 2.34-.03.412a.073.073 0 0 0 .07.08h.274c.232 0 .357-.119.373-.355l.103-1.38c.002-.02.028-.026.036-.007l.802 1.7a.071.071 0 0 0 .064.042h.437a.253.253 0 0 0 .189-.076.287.287 0 0 0 .08-.116.509.509 0 0 0 .036-.163l.181-2.67a.073.073 0 0 0-.071-.079h-.363Z" data-follow-fill="#2B263B"/><path fill="#2B263B" d="M5.476 2.13a2 2 0 0 1 1.456-.63h10.136a2 2 0 0 1 1.456.63l3.704 3.935a1 1 0 0 1 .272.692V18.5a4 4 0 0 1-4 4h-13a4 4 0 0 1-4-4V6.757a1 1 0 0 1 .272-.692l3.704-3.936ZM3.5 7.75V18.5a2 2 0 0 0 2 2h13a2 2 0 0 0 2-2V7.75h-17Zm15.686-2L17.068 3.5H6.932L4.814 5.75h14.372Z" data-follow-fill="#2B263B"/></svg>