<svg xmlns="http://www.w3.org/2000/svg" fill="none" viewBox="0 0 24 24"><path fill="#2B263B" d="M6.788 6.984c.115-.137.204-.377.204-.724h2.003c0 .158-.01.323-.031.49h8.045a1.002 1.002 0 0 1 .894 1.452l-.551 1.095c.384.14.658.51.658.942v2.984c0 .553-.448 1.002-1.001 1.002h-3.506v1.477h4.507v2.004H12.5a1.002 1.002 0 0 1-1-1.002v-2.296c-.192.35-.41.683-.656.992-1.123 1.413-2.786 2.306-4.854 2.306v-2.003c1.402 0 2.475-.57 3.228-1.478H6.992a1.002 1.002 0 0 1-1.002-1.002v-2.984c0-.553.449-1.002 1.002-1.002h8.147l.244-.483H7.787c-.486.327-1.095.497-1.797.497V7.248c.513 0 .71-.159.798-.264Zm5.662 4.256c-.034.332-.085.66-.153.981h3.71v-.98H12.45Zm-2.215.981a7.17 7.17 0 0 0 .199-.98h-2.44v.98h2.24Z" data-follow-fill="#2B263B"/><path fill="#2B263B" d="M24 12c0 6.627-5.373 12-12 12S0 18.627 0 12 5.373 0 12 0s12 5.373 12 12ZM12 2C6.477 2 2 6.477 2 12s4.477 10 10 10 10-4.477 10-10S17.523 2 12 2Z" data-follow-fill="#2B263B"/></svg>