<svg xmlns="http://www.w3.org/2000/svg" fill="none" viewBox="0 0 24 24"><path fill="#2B263B" d="M1.5 5.5a4 4 0 0 1 4-4h13a4 4 0 0 1 4 4v13a4 4 0 0 1-4 4h-13a4 4 0 0 1-4-4v-13Zm12.574.922h1.51l.227-.791A.874.874 0 0 1 16.64 5h1.204c.09 0 .153.086.125.175l-.393 1.247h1.304c.07 0 .124.057.119.127l-.08 1.122a.927.927 0 0 1-.913.847h-.269l-.231 3.278h1.083a.12.12 0 0 1 .12.128l-.08 1.121a.927.927 0 0 1-.914.848h-.357l-.304 4.308a.874.874 0 0 1-.86.799h-1.473a.172.172 0 0 1-.175-.19l.346-4.917h-1.298l-.554 4.342a.89.89 0 0 1-.87.765h-1.313a.174.174 0 0 1-.176-.2l.624-4.907h-.734a.118.118 0 0 1-.119-.128l.08-1.122a.927.927 0 0 1 .913-.847h.127l.416-3.278h-.95a.118.118 0 0 1-.118-.127L11 7.269a.927.927 0 0 1 .913-.847h.167l-.217-1.247a.153.153 0 0 1 .15-.175h1.204c.378 0 .688.262.741.63l.115.792Zm.208 2.096h.99l-.23 3.278h-1.179l.419-3.278Zm-9.15 10.389h2.592c.54 0 1.01-.434 1.048-.97l.296-4.204.373-.144c.467-.18.794-.617.828-1.101l.119-1.675c.007-.095-.085-.16-.176-.125l-.956.371.079-1.113h.43a.91.91 0 0 0 .897-.832l.103-1.474a.13.13 0 0 0-.13-.14H9.506l.16-2.266a.13.13 0 0 0-.131-.14H8.364a1.06 1.06 0 0 0-1.046.97L7.217 7.5h-.762a.91.91 0 0 0-.896.831l-.104 1.475a.13.13 0 0 0 .131.14h1.459l-.143 2.027-.728.283c-.466.18-.793.616-.828 1.1l-.12 1.676c-.007.094.084.159.175.124l1.312-.51-.152 2.164h-.466c-.529 0-.988.425-1.024.949L5 18.767a.13.13 0 0 0 .13.14Z" clip-rule="evenodd" fill-rule="evenodd" data-follow-fill="#2B263B"/><path fill="#2B263B" d="M1.5 5.5a4 4 0 0 1 4-4h13a4 4 0 0 1 4 4v13a4 4 0 0 1-4 4h-13a4 4 0 0 1-4-4v-13Zm12.574.922-.115-.791A.735.735 0 0 0 13.218 5h-1.205a.153.153 0 0 0-.15.175l.218 1.247h-.167a.928.928 0 0 0-.914.847l-.079 1.122a.118.118 0 0 0 .119.127h.95l-.417 3.278h-.127a.927.927 0 0 0-.913.848l-.08 1.121a.118.118 0 0 0 .12.128h.733l-.624 4.908a.174.174 0 0 0 .176.199h1.313a.89.89 0 0 0 .87-.765l.554-4.342h1.298l-.347 4.918a.172.172 0 0 0 .176.189h1.473c.444 0 .83-.359.86-.799l.304-4.308h.357c.472 0 .881-.38.914-.848l.08-1.121a.117.117 0 0 0-.12-.128h-1.083l.231-3.278h.269c.471 0 .88-.379.913-.847L19 6.549a.118.118 0 0 0-.12-.127h-1.303l.393-1.247A.132.132 0 0 0 17.845 5H16.64a.874.874 0 0 0-.83.63l-.226.792h-1.51Zm.208 2.096h.99l-.23 3.278h-1.179l.419-3.278Zm-9.15 10.389h2.592c.54 0 1.01-.434 1.048-.97l.296-4.204.373-.144c.467-.18.794-.617.828-1.101l.119-1.675c.007-.095-.085-.16-.176-.125l-.956.371.079-1.113h.43a.91.91 0 0 0 .897-.832l.103-1.474a.13.13 0 0 0-.13-.14H9.506l.16-2.266a.13.13 0 0 0-.131-.14H8.364a1.06 1.06 0 0 0-1.046.97L7.217 7.5h-.762a.91.91 0 0 0-.896.831l-.104 1.475a.13.13 0 0 0 .131.14h1.459l-.143 2.027-.728.283c-.466.18-.793.616-.828 1.1l-.12 1.676c-.007.094.084.159.175.124l1.312-.51-.152 2.164h-.466c-.529 0-.988.425-1.024.949L5 18.767a.13.13 0 0 0 .13.14Z" data-follow-fill="#2B263B"/></svg>