<svg xmlns="http://www.w3.org/2000/svg" fill="none" viewBox="0 0 24 24"><path fill="#2B263B" d="M21.706 3.604a3 3 0 0 0-4.245.003L9.5 11.585 6.54 8.622a3 3 0 0 0-4.244 0L.883 10.035a3 3 0 0 0 0 4.243l2.952 2.952 3.535 3.535a3.001 3.001 0 0 0 4.243 0l2.829-2.828a.985.985 0 0 0 .024-.025L23.12 9.26a3 3 0 0 0 0-4.243l-1.413-1.413ZM9.056 19.545a1 1 0 0 1-.271-.193l-6.488-6.488a1 1 0 0 1 0-1.415l1.413-1.413a1 1 0 0 1 1.415 0l3.155 3.158.499.507a1 1 0 0 0 1.424.002l.004.004.318-.318 8.352-8.37a1 1 0 0 1 1.415 0l1.412 1.412a1 1 0 0 1 0 1.414L10.198 19.351a1 1 0 0 1-1.141.194Z" data-follow-fill="#2B263B"/></svg>