<svg xmlns="http://www.w3.org/2000/svg" fill="none" viewBox="0 0 24 24"><path fill="#2B263B" d="M12 3a7.5 7.5 0 0 0-7.5 7.5v.5h1.49c.558 0 1.01.452 1.01 1.01v4.98A1.01 1.01 0 0 1 5.99 18H2.01A1.01 1.01 0 0 1 1 16.99v-4.98c0-.558.452-1.01 1.01-1.01h.49v-.5a9.5 9.5 0 1 1 19 0v.5h.49c.558 0 1.01.452 1.01 1.01v4.98A1.01 1.01 0 0 1 21.99 18h-1.073A6.002 6.002 0 0 1 15 23h-4v-3h3v1h1a4.002 4.002 0 0 0 3.874-3h-.864A1.01 1.01 0 0 1 17 16.99v-4.98c0-.558.452-1.01 1.01-1.01h1.49v-.5A7.5 7.5 0 0 0 12 3ZM5 16v-3H3v3h2Zm16-3h-2v3h2v-3Z" data-follow-fill="#2B263B"/></svg>