<svg xmlns="http://www.w3.org/2000/svg" fill="none" viewBox="0 0 24 24"><g clip-path="url(#a5b25__a)"><path fill="#2B263B" d="M3.624 5.646a.8.8 0 0 0 1.12-.157L7.163 2.28l-1.279-.96-1.936 2.567-1.547-1.166L1.438 4l2.186 1.647ZM22 5H8V3h14v2Zm-10 8H8v-2h4v2Zm0 8H8v-2h4v2Zm8.596-1.773a4.692 4.692 0 1 1 1.131-1.131l.839.838.565.566L22 20.631l-.566-.565-.838-.839ZM14.8 15.392a3.092 3.092 0 1 0 6.184 0 3.092 3.092 0 0 0-6.184 0ZM3.624 13.646 1.438 12l.963-1.278 1.547 1.166L5.884 9.32l1.278.962-2.417 3.208a.797.797 0 0 1-1.12.157Zm0 8L1.438 20l.963-1.278 1.547 1.166 1.936-2.569 1.278.963-2.417 3.208a.797.797 0 0 1-1.12.157Z"/></g><defs><clipPath id="a5b25__a"><path fill="#fff" d="M0 0h24v24H0z"/></clipPath></defs></svg>