<svg xmlns="http://www.w3.org/2000/svg" fill="none" viewBox="0 0 24 24"><path fill="#2B263B" d="M5.292 2 3.387 4.393 1.92 3.34 1 4.633l2.077 1.49a.789.789 0 0 0 1.077-.15l2.374-2.98L5.292 2ZM21.24 5.477H7.394V3.49h13.845v1.987ZM7.394 12.431h3.955v-1.987H7.394v1.987Zm0 6.955h3.955v-1.987H7.394v1.987Zm-4.007-8.039 1.905-2.393 1.236.993-2.374 2.98a.789.789 0 0 1-1.077.151L1 11.588l.92-1.294 1.467 1.053Zm1.905 4.562-1.905 2.393-1.467-1.053L1 18.542l2.077 1.49a.789.789 0 0 0 1.077-.15l2.374-2.98-1.236-.993Zm15.89 1.566a4.96 4.96 0 0 0 1.046-3.056c0-2.744-2.214-4.968-4.945-4.968-2.73 0-4.945 2.224-4.945 4.968 0 2.743 2.214 4.967 4.945 4.967.868 0 1.684-.225 2.394-.62L21.456 21 23 19.759l-1.819-2.284Zm-.932-3.056a2.974 2.974 0 0 1-2.967 2.98 2.974 2.974 0 0 1-2.967-2.98 2.974 2.974 0 0 1 2.967-2.98 2.974 2.974 0 0 1 2.967 2.98Z" clip-rule="evenodd" fill-rule="evenodd" data-follow-fill="#2B263B"/></svg>