<svg xmlns="http://www.w3.org/2000/svg" fill="none" viewBox="0 0 24 24"><path fill="#2B263B" d="M12 2C6.477 2 2 6.477 2 12c0 1.886.522 3.65 1.43 5.156L8.286 12.3a1.01 1.01 0 0 1 1.428 0l1.786 1.786L15.786 9.8a1.01 1.01 0 0 1 1.428 0l4.516 4.516c.177-.743.27-1.519.27-2.316 0-5.523-4.477-10-10-10Zm0 20a10 10 0 0 0 8.984-5.602l-.191-.19-4.293-4.294-4.286 4.286a1.01 1.01 0 0 1-1.428 0L9 14.414l-4.293 4.293-.065.065A9.973 9.973 0 0 0 12 22ZM0 12C0 5.373 5.373 0 12 0s12 5.373 12 12-5.373 12-12 12S0 18.627 0 12Zm7.75-4.75a1.5 1.5 0 1 0 0 3 1.5 1.5 0 0 0 0-3Z" data-follow-fill="#2B263B"/></svg>