<svg xmlns="http://www.w3.org/2000/svg" fill="none" viewBox="0 0 24 24"><path data-follow-fill="#000" d="M19.5 7.5V9h-2V7.5h2Zm-5 1.5V7.5h-2V9h2Z" fill="#000"/><path data-follow-fill="#000" d="M10 3a1 1 0 0 1 1-1h10a1 1 0 0 1 1 1v18a1 1 0 0 1-1 1H11a1 1 0 0 1-1-1V3.508a.98.98 0 0 1-.005.092l-1.75 17.5a1 1 0 0 1-1.112.893l-4.25-.5a1 1 0 0 1-.877-1.106l2-17.5a1 1 0 0 1 1.118-.88l4 .5A1 1 0 0 1 10 3.49V3Zm7 17h3V4h-3v16ZM12 4v16h3V4h-3ZM4.107 19.623l2.25.265 1.55-15.517-2.028-.253-1.772 15.505Z" fill="#000"/></svg>