<svg xmlns="http://www.w3.org/2000/svg" fill="none" viewBox="0 0 24 24"><path fill="#2B263B" d="M.5 9.346A6.775 6.775 0 0 1 12 4.49a6.775 6.775 0 0 1 11.5 4.855c0 3.27-1.916 6.266-4.16 8.532-2.252 2.276-5.007 3.992-7.021 4.662a1.01 1.01 0 0 1-.638 0c-2.014-.67-4.769-2.386-7.022-4.662C2.416 15.612.5 12.617.5 9.346ZM7.275 4.57A4.775 4.775 0 0 0 2.5 9.346c0 2.503 1.494 5.018 3.58 7.125 1.95 1.97 4.269 3.431 5.92 4.06 1.651-.629 3.97-2.09 5.92-4.06 2.086-2.107 3.58-4.622 3.58-7.125a4.775 4.775 0 0 0-8.676-2.755 1.01 1.01 0 0 1-1.648 0 4.768 4.768 0 0 0-3.901-2.02Z" data-follow-fill="#2B263B"/></svg>