<svg xmlns="http://www.w3.org/2000/svg" fill="none" viewBox="0 0 24 24"><path data-follow-fill="#000" d="M5 10.702c0-4.306 3.198-7.675 7-7.675s7 3.37 7 7.675c0 2.176-1.134 4.322-2.63 6.184-1.48 1.843-3.215 3.282-4.189 4.023a.289.289 0 0 1-.362 0c-.975-.741-2.708-2.18-4.19-4.023C6.135 15.024 5 12.878 5 10.702ZM12 1c-5.034 0-9 4.41-9 9.702 0 2.863 1.469 5.46 3.079 7.464 1.625 2.023 3.5 3.574 4.54 4.364.823.627 1.94.627 2.763 0 1.039-.79 2.914-2.341 4.54-4.364C19.531 16.162 21 13.565 21 10.702 21 5.41 17.034 1 12 1Zm-3 9.5a3 3 0 1 1 6 0 3 3 0 0 1-6 0Zm3-5a5 5 0 1 0 0 10 5 5 0 0 0 0-10Z" fill="#000"/></svg>