<svg xmlns="http://www.w3.org/2000/svg" fill="none" viewBox="0 0 24 24"><path fill="#2B263B" d="M4 11a8 8 0 1 1 16 0c0 3.143-1.568 5.646-3.434 7.395a12.626 12.626 0 0 1-2.775 1.982c-.897.464-1.535.623-1.791.623s-.894-.16-1.791-.623a12.624 12.624 0 0 1-2.775-1.982C5.568 16.647 4 14.143 4 11Zm8-10C6.477 1 2 5.477 2 11c0 3.857 1.932 6.854 4.066 8.855a14.621 14.621 0 0 0 3.225 2.3c.978.504 1.965.845 2.709.845s1.731-.34 2.709-.846a14.619 14.619 0 0 0 3.225-2.3C20.068 17.855 22 14.858 22 11c0-5.523-4.477-10-10-10Zm0 5a5 5 0 1 0 0 10 5 5 0 0 0 0-10Zm-3 5a3 3 0 1 1 6 0 3 3 0 0 1-6 0Z" data-follow-fill="#2B263B"/></svg>