<svg xmlns="http://www.w3.org/2000/svg" fill="none" viewBox="0 0 24 24"><path fill="#2B263B" d="M12 3a8 8 0 0 0-8 8c0 3.096 1.77 5.595 3.787 7.375 1 .883 2.03 1.56 2.863 2.012a9.52 9.52 0 0 0 1.04.496 3.18 3.18 0 0 0 .31.106h.002c.07-.02.173-.053.307-.106a9.52 9.52 0 0 0 1.041-.496 15.94 15.94 0 0 0 2.863-2.012C18.23 16.595 20 14.095 20 11a8 8 0 0 0-8-8ZM2 11C2 5.477 6.477 1 12 1s10 4.477 10 10c0 3.904-2.23 6.905-4.463 8.875a17.93 17.93 0 0 1-3.231 2.27c-.474.257-.907.46-1.268.6-.18.071-.352.13-.509.173-.14.038-.332.082-.529.082s-.39-.044-.53-.082a5.139 5.139 0 0 1-.508-.172c-.36-.141-.793-.344-1.268-.602a17.932 17.932 0 0 1-3.23-2.27C4.23 17.905 2 14.905 2 11Zm5 0a5 5 0 1 1 10 0 5 5 0 0 1-10 0Zm5-3a3 3 0 1 0 0 6 3 3 0 0 0 0-6Z" data-follow-fill="#2B263B"/></svg>