<svg xmlns="http://www.w3.org/2000/svg" fill="none" viewBox="0 0 24 24"><path stroke-width="2" stroke="#2B263B" d="M12 2.5h8.5a1 1 0 0 1 1 1v17a1 1 0 0 1-1 1H12" data-follow-stroke="#2B263B"/><path fill="#2B263B" d="m4.373 13 5.293 5.293-1.414 1.414-6.93-6.93a1.1 1.1 0 0 1 0-1.554l6.93-6.93 1.414 1.414L4.373 11H18v2H4.373Z" data-follow-fill="#2B263B"/><path fill="#2B263B" d="M20.5 1.5a2 2 0 0 1 2 2v17a2 2 0 0 1-2 2H12v-2h8.5v-17H12v-2h8.5Z" data-follow-fill="#2B263B"/><path fill="#2B263B" d="M9.665 5.707 4.373 11H18v2H4.372l5.293 5.293-1.414 1.414-6.93-6.93a1.1 1.1 0 0 1 0-1.554l6.93-6.93 1.414 1.414Z" data-follow-fill="#2B263B"/></svg>