<svg xmlns="http://www.w3.org/2000/svg" fill="none" viewBox="0 0 24 24"><path data-follow-fill="#2B263B" d="M11.573 5.463c.21-.023.38.14.365.348l-.194 2.803a.258.258 0 0 0 .262.281h5.666c.192 0 .338.16.326.352l-.109 1.547c-.071 1.006-.944 1.821-1.949 1.821h-4.196a.307.307 0 0 0-.302.282l-.368 5.269C11.002 19.179 10.126 20 9.113 20H6.85a.325.325 0 0 1-.326-.35l.472-6.753a.259.259 0 0 0-.262-.282H.327a.325.325 0 0 1-.326-.35l.108-1.548c.072-1.006.944-1.822 1.95-1.822h4.937a.306.306 0 0 0 .302-.28l.165-2.389a.384.384 0 0 1 .336-.348l3.774-.415Zm5.689-5.46a.321.321 0 0 1 .372.3l.102 1.522c.067.996-.697 1.915-1.702 2.05L1.747 5.807a.322.322 0 0 1-.362-.23l-.011-.066-.102-1.523c-.066-.996.697-1.915 1.702-2.05L17.262.003Zm13.546.021c.245.003.402.245.313.484l-.237.706h4.447c.988 0 1.732.814 1.664 1.818l-.212 3.06c-.07 1.004-.928 1.818-1.916 1.818h-1.994a.323.323 0 0 1-.322-.35l.2-2.88a.32.32 0 0 0-.32-.35h-7.572a.378.378 0 0 0-.369.35l-.267 3.872a.32.32 0 0 0 .32.35h10.739c.989 0 1.732.815 1.664 1.819l-.003.002-.512 7.459c-.07 1.004-.928 1.818-1.917 1.818h-2.237a.322.322 0 0 1-.32-.35l.469-6.828a.32.32 0 0 0-.32-.35H21.851c-.988 0-1.732-.814-1.664-1.818l.526-7.624c.07-1.004.927-1.818 1.916-1.818h3.498l.35-.958A.404.404 0 0 1 26.845 0l3.962.024Zm-5.514 13.068c.988 0 1.732.814 1.664 1.818l-.077 1.125a.129.129 0 0 0 .128.14h.94a.152.152 0 0 0 .148-.14l.13-1.855a.379.379 0 0 1 .369-.35h.779l-.002.004c.988 0 1.73.814 1.663 1.818l-.13 1.915c-.071 1.004-.929 1.819-1.917 1.819h-8.322c-.989 0-1.732-.815-1.664-1.819l.233-3.382a.38.38 0 0 1 .37-.351h.78c.988 0 1.73.814 1.663 1.818l-.027.385a.129.129 0 0 0 .13.14h.939a.152.152 0 0 0 .148-.14l.178-2.595a.38.38 0 0 1 .369-.35h1.508Zm3.27-8.372c1.027 0 1.805.847 1.732 1.89-.073 1.044-.965 1.89-1.992 1.89-1.028 0-1.805-.846-1.732-1.89.073-1.043.964-1.89 1.991-1.89Z" fill="#2B263B"/></svg>