<svg xmlns="http://www.w3.org/2000/svg" fill="none" viewBox="0 0 24 24"><g clip-path="url(#1608aa__a)"><path fill-rule="evenodd" clip-rule="evenodd" d="M32.231.205a.793.793 0 0 1 .56-.205v.002h1.035c.119 0 .211.1.203.216l-.515 7.306a1.341 1.341 0 0 1-.104.447.776.776 0 0 1-.226.319.739.739 0 0 1-.537.205h-1.243a.203.203 0 0 1-.181-.113l-2.278-4.653a.053.053 0 0 0-.101.019l-.296 3.776c-.045.646-.398.97-1.058.97h-.78a.202.202 0 0 1-.203-.217l.087-1.128.448-6.404c.017-.22.099-.4.248-.537a.793.793 0 0 1 .56-.206h.815c.357 0 .612.16.77.48l2.17 4.227c.023.047.096.032.1-.022l.279-3.944a.79.79 0 0 1 .247-.538ZM4.017 8.312l.043-.605a.795.795 0 0 1 .785-.728h2.71c.624 0 1.044-.06 1.257-.178A.944.944 0 0 0 9.316 6c.03-.416-.125-.718-.46-.904-.19-.109-.503-.165-.938-.165h-.729c-.965 0-1.65-.173-2.051-.522a2.045 2.045 0 0 1-.563-.828 2.45 2.45 0 0 1-.149-1.07 2.92 2.92 0 0 1 .64-1.63c.376-.474.942-.755 1.7-.84C7.027.014 7.408 0 7.912 0h3.464c.1 0 .176.081.17.182l-.043.606a.795.795 0 0 1-.785.728H8.215c-.573.008-.955.034-1.146.077-.393.094-.604.38-.638.864-.028.407.114.679.429.816.206.103.562.152 1.066.152h.509c.7 0 1.218.06 1.552.177.592.204.987.561 1.18 1.07.152.407.21.846.177 1.313-.036.518-.19.98-.457 1.387a2.275 2.275 0 0 1-1.573 1.044c-.327.052-.82.077-1.478.077H4.187a.168.168 0 0 1-.17-.182ZM3.513.217a.2.2 0 0 0-.202-.214h-.82c-.695 0-1.068.338-1.116 1.015l-.513 7.26a.2.2 0 0 0 .203.214h.78v-.004c.008 0 .017 0 .025.002l.029.002c.69 0 1.06-.338 1.108-1.014l.506-7.26ZM14.27 6.98h2.978v-.002c.403 0 .71.325.681.728l-.043.605a.199.199 0 0 1-.196.182l-4.813-.002h-.146a.673.673 0 0 1-.681-.728l.476-6.746c.048-.677.42-1.015 1.119-1.015h.819a.2.2 0 0 1 .202.216l-.468 6.685a.07.07 0 0 0 .072.077Zm11.694.68L24.224.584a.796.796 0 0 0-.278-.421.758.758 0 0 0-.482-.16h-1.235a.935.935 0 0 0-.867.581l-2.581 6.693-.322.767a.323.323 0 0 0 .3.447h1.026a.86.86 0 0 0 .834-.604l1.935-5.244c.02-.05.093-.045.104.007l1.338 5.683c.02.092.104.158.198.158h1.1c.262 0 .459-.075.586-.229.127-.152.157-.353.088-.606l-.004.002ZM40.82.993C40.111.33 39.055 0 37.652 0h-1.76a.824.824 0 0 0-.572.206.769.769 0 0 0-.25.537l-.443 6.241-.095 1.293a.203.203 0 0 0 .207.216h.407l.698-.002h1.324c1.34 0 2.407-.347 3.206-1.038.856-.738 1.334-1.821 1.438-3.251.101-1.43-.229-2.5-.99-3.207L40.82.993ZM39.646 4.2c-.067.95-.34 1.643-.821 2.076-.43.38-1.026.571-1.791.571h-.285l.186-2.613.185-2.614h.285c.771 0 1.342.18 1.71.538.421.41.598 1.091.529 2.042h.002Zm2.73 3.506-.044.605h.003c-.007.1.069.182.17.182h3.646c.658 0 1.151-.025 1.479-.077a2.275 2.275 0 0 0 1.573-1.044c.267-.407.42-.87.457-1.387a3.118 3.118 0 0 0-.177-1.312c-.194-.51-.588-.867-1.18-1.07-.335-.118-.852-.178-1.552-.178h-.509c-.504 0-.86-.05-1.067-.152-.315-.137-.457-.409-.429-.816.035-.483.246-.77.638-.864.192-.043.574-.069 1.147-.077h2.502a.795.795 0 0 0 .784-.728l.043-.606A.168.168 0 0 0 49.69 0h-3.463c-.504 0-.886.013-1.145.039-.758.085-1.325.366-1.7.84a2.92 2.92 0 0 0-.64 1.63 2.45 2.45 0 0 0 .149 1.07c.125.332.312.608.562.828.401.35 1.086.522 2.052.522h.728c.436 0 .748.056.938.165.336.186.491.488.461.904a.944.944 0 0 1-.504.802c-.214.118-.634.178-1.257.178h-2.71a.796.796 0 0 0-.785.728Z" fill="#2B263B"/></g><defs><clipPath id="1608aa__a"><path d="M0 0h49v8.495H0z" fill="#fff" transform="translate(.862)"/></clipPath></defs></svg>