<svg xmlns="http://www.w3.org/2000/svg" fill="none" viewBox="0 0 24 24"><path fill="#2B263B" d="M5.8 9.45a6.2 6.2 0 0 1 12.4 0c0 2.443-1.218 4.397-2.684 5.77a9.905 9.905 0 0 1-2.175 1.554c-.71.367-1.185.476-1.341.476-.156 0-.632-.11-1.341-.476a9.903 9.903 0 0 1-2.175-1.554C7.018 13.848 5.8 11.893 5.8 9.45Zm6.2-8.2a8.2 8.2 0 0 0-8.2 8.2c0 3.157 1.581 5.604 3.316 7.23a11.892 11.892 0 0 0 2.625 1.87c.79.41 1.614.7 2.259.7.644 0 1.469-.29 2.259-.7a11.89 11.89 0 0 0 2.625-1.87c1.734-1.627 3.316-4.073 3.316-7.23a8.2 8.2 0 0 0-8.2-8.2Zm-4.2 8.2a4.2 4.2 0 1 1 8.4 0 4.2 4.2 0 0 1-8.4 0Zm4.2-2.2a2.2 2.2 0 1 0 0 4.4 2.2 2.2 0 0 0 0-4.4ZM4.686 17.677l-.888.46c-.364.19-.587.363-.707.495a.53.53 0 0 0-.086.117c.02.043.094.165.36.353.381.27.998.556 1.851.811 1.693.508 4.092.837 6.784.837s5.09-.329 6.784-.837c.853-.255 1.47-.54 1.852-.811.265-.188.339-.31.359-.353a.529.529 0 0 0-.086-.117c-.12-.132-.343-.305-.707-.494l-.888-.46.92-1.776.888.46c.487.253.933.556 1.269.927.341.376.609.87.609 1.461 0 .899-.603 1.555-1.207 1.983-.63.447-1.478.81-2.435 1.096-1.926.578-4.527.921-7.358.921-2.83 0-5.432-.343-7.358-.92-.957-.288-1.804-.65-2.435-1.097C1.603 20.305 1 19.65 1 18.75c0-.591.268-1.085.61-1.461.335-.37.781-.675 1.267-.927l.888-.46.92 1.775Zm16.316 1.091-.001-.005.001.005Zm-18.004 0 .001-.005a.016.016 0 0 1-.001.005Z" data-follow-fill="#2B263B"/></svg>