<svg xmlns="http://www.w3.org/2000/svg" fill="none" viewBox="0 0 24 24"><path data-follow-fill="#2B263B" d="M4.5 7.34C4.5 3.264 7.881 0 12 0s7.5 3.263 7.5 7.34c0 2.84-1.843 5.62-3.486 7.567a28.615 28.615 0 0 1-3.301 3.301 6.43 6.43 0 0 1-.06.05l-.017.014-.005.004-.002.001L12 17.5l-.629.778-.002-.002-.005-.004-.017-.014a25.96 25.96 0 0 1-1.045-.924 28.626 28.626 0 0 1-2.316-2.427C6.343 12.96 4.5 10.18 4.5 7.341Zm6.871 10.938a1 1 0 0 0 1.257 0L12 17.5l-.629.778Zm.629-2.1a26.628 26.628 0 0 0 2.486-2.56C16.093 11.712 17.5 9.412 17.5 7.34 17.5 4.414 15.061 2 12 2S6.5 4.414 6.5 7.34c0 2.073 1.407 4.373 3.014 6.277A26.629 26.629 0 0 0 12 16.178Zm-8.928.45A1 1 0 0 1 4 16h3v2H4.677l-1.2 3h17.046l-1.2-3H17v-2h3a1 1 0 0 1 .928.629l2 5A1 1 0 0 1 22 23H2a1.001 1.001 0 0 1-.928-1.371l2-5ZM12 4a3.5 3.5 0 1 0 0 7 3.5 3.5 0 0 0 0-7Zm-1.5 3.5a1.5 1.5 0 1 1 3 0 1.5 1.5 0 0 1-3 0Z" fill="#2B263B"/></svg>