<svg xmlns="http://www.w3.org/2000/svg" fill="none" viewBox="0 0 24 24"><path fill="#2B263B" d="M23 5a4 4 0 0 0-4-4H5a4 4 0 0 0-4 4v10a4 4 0 0 0 4 4h2v2.238c0 1.87 2.339 2.717 3.536 1.28L13.468 19H19a4 4 0 0 0 4-4V5Zm-4-2a2 2 0 0 1 2 2v10a2 2 0 0 1-2 2h-5.995c-.3 0-.584.133-.776.363L9 21.238V18.01A1.01 1.01 0 0 0 7.99 17H5a2 2 0 0 1-2-2V5a2 2 0 0 1 2-2h14Z" data-follow-fill="#2B263B"/><path fill="#2B263B" d="M8.5 10a1.5 1.5 0 1 1-3 0 1.5 1.5 0 0 1 3 0Zm5 0a1.5 1.5 0 1 1-3 0 1.5 1.5 0 0 1 3 0Zm5 0a1.5 1.5 0 1 1-3 0 1.5 1.5 0 0 1 3 0Z" data-follow-fill="#2B263B"/></svg>