<svg xmlns="http://www.w3.org/2000/svg" fill="none" viewBox="0 0 24 24"><path fill="#EDBF00" d="M13.796 1.372c-.737-1.485-2.858-1.48-3.587.01L7.736 6.427a.098.098 0 0 1-.073.054l-5.451.79c-1.72.25-2.408 2.361-1.165 3.576L5 14.713a.097.097 0 0 1 .028.087l-.934 5.309c-.303 1.722 1.51 3.036 3.053 2.214l4.805-2.562a.098.098 0 0 1 .092 0l4.81 2.564c1.542.822 3.354-.49 3.053-2.212L18.98 14.8a.097.097 0 0 1 .028-.087l3.95-3.868c1.24-1.214.552-3.324-1.165-3.574l-5.415-.79a.097.097 0 0 1-.073-.053l-2.51-5.056Z"/></svg>