<svg xmlns="http://www.w3.org/2000/svg" fill="none" viewBox="0 0 24 24"><path fill="#2B263B" d="M8.946 3.777c-.319.42-.548 1.012-.621 1.724C8.297 5.775 8.076 6 7.8 6H3v3.51a4.927 4.927 0 0 1 1.433.744C5.39 10.98 6 12.067 6 13.4c0 1.334-.611 2.42-1.567 3.146-.424.323-.91.57-1.433.744V21h3.61a4.926 4.926 0 0 1 .744-1.433C8.08 18.61 9.166 18 10.5 18c1.334 0 2.42.611 3.146 1.567.323.424.57.91.744 1.433H18v-4.9c0-.276.224-.497.5-.525.71-.073 1.303-.302 1.723-.621.493-.374.777-.887.777-1.554 0-.666-.284-1.18-.777-1.554-.42-.319-1.012-.547-1.724-.62-.274-.03-.499-.25-.499-.526V6h-4.8c-.276 0-.497-.225-.525-.5-.074-.711-.302-1.303-.621-1.723C11.68 3.284 11.166 3 10.5 3s-1.18.284-1.554.777ZM1 17.6v-1.5c0-.276.225-.497.5-.525.711-.073 1.304-.302 1.723-.621.493-.374.777-.887.777-1.554 0-.666-.284-1.18-.777-1.554-.42-.319-1.012-.547-1.724-.62-.274-.03-.499-.25-.499-.526V6a2 2 0 0 1 2-2h3.61a4.926 4.926 0 0 1 .744-1.433C8.08 1.61 9.166 1 10.5 1c1.334 0 2.42.611 3.146 1.567.323.424.57.91.744 1.433H18a2 2 0 0 1 2 2v3.51a4.927 4.927 0 0 1 1.433.744C22.39 10.98 23 12.067 23 13.4c0 1.334-.611 2.42-1.567 3.146A4.93 4.93 0 0 1 20 17.29V21a2 2 0 0 1-2 2h-4.8c-.276 0-.497-.224-.525-.5-.074-.71-.302-1.303-.621-1.723-.374-.493-.888-.777-1.554-.777s-1.18.284-1.554.777c-.319.42-.548 1.012-.621 1.724-.028.274-.249.499-.525.499H3a2 2 0 0 1-2-2v-3.4Z" data-follow-fill="#2B263B"/></svg>