<svg xmlns="http://www.w3.org/2000/svg" fill="none" viewBox="0 0 24 24"><path fill="#2B263B" d="M17.972 3.542A2 2 0 0 0 15.744.97L12 1.576 8.256.97a2 2 0 0 0-2.228 2.57L6.484 5H2.01A1.01 1.01 0 0 0 1 6.01v3.98c0 .558.452 1.01 1.01 1.01h.49v8a4 4 0 0 0 4 4h11a4 4 0 0 0 4-4v-8h.49A1.01 1.01 0 0 0 23 9.99V6.01A1.01 1.01 0 0 0 21.99 5h-4.474l.456-1.458ZM15.422 5H8.578l-.642-2.055 3.904.631a1 1 0 0 0 .319 0l3.903-.63L15.421 5ZM17.5 21H13V11h6.5v8a2 2 0 0 1-2 2ZM11 21H6.5a2 2 0 0 1-2-2v-8H11v10Zm2-12H3V7h18v2h-8Z" data-follow-fill="#2B263B"/></svg>