<svg xmlns="http://www.w3.org/2000/svg" fill="none" viewBox="0 0 24 24"><path fill="#6C9AFF" d="M6 1a4 4 0 0 0-4 4v14a4 4 0 0 0 4 4h7.17a6.988 6.988 0 0 1-2.67-5.5c0-.88.163-1.724.46-2.5H7.5v-2h4.638a6.985 6.985 0 0 1 5.362-2.5c1.713 0 3.283.616 4.5 1.638V5a4 4 0 0 0-4-4H6Zm16 12.531a5.985 5.985 0 0 0-4.5-2.031 5.977 5.977 0 0 0-3.969 1.5 5.978 5.978 0 0 0-2.031 4.5 6.001 6.001 0 0 0 6 6 6 6 0 0 0 4.5-9.969ZM16.5 7.5v2h-9v-2h9Zm0 6.5h2v2.5H21v2h-2.5V21h-2v-2.5H14v-2h2.5V14Z" data-follow-fill="#6C9AFF"/></svg>