<svg xmlns="http://www.w3.org/2000/svg" fill="none" viewBox="0 0 24 24"><path fill="#F96464" d="M5.89 1.526a4 4 0 0 0-3.993 3.778l-.72 12.948a4 4 0 0 0 3.994 4.222h7.403A6.978 6.978 0 0 1 10.5 17.5c0-.919.177-1.796.499-2.6A5.002 5.002 0 0 1 7 10V8h2v2a3 3 0 0 0 3.14 2.997 7.02 7.02 0 0 1 2.678-1.965c.118-.322.182-.67.182-1.032V8h2v2c0 .175-.009.349-.027.52a6.979 6.979 0 0 1 5.536 2.09l-.406-7.306a4 4 0 0 0-3.994-3.778H5.891Zm16.716 12.82a5.996 5.996 0 0 0-5.85-2.8A6.006 6.006 0 0 0 12.044 15a5.979 5.979 0 0 0-.544 2.5 5.994 5.994 0 0 0 6 6 6 6 0 0 0 5.106-9.153ZM18.48 18.1l1.62-1.608 1.41 1.42-3.03 3.005v.02h-.02l-.275.274a1 1 0 0 1-1.413-.004l-.269-.27h-.023v-.023l-2.956-2.966 1.416-1.412 1.54 1.545V14h2v4.099Z" data-follow-fill="#F96464"/></svg>