<svg xmlns="http://www.w3.org/2000/svg" fill="none" viewBox="0 0 24 24"><path data-follow-fill="#2B263B" d="M16.5 6v9.145a3.5 3.5 0 0 1 3.45.855h1.55v-4a2 2 0 0 0-2-2h-2V8h2a4 4 0 0 1 4 4v5a1 1 0 0 1-1 1h-1.535a3.5 3.5 0 1 1-6.93 0h-5.07a3.5 3.5 0 1 1-6.93 0H.5v-2h2.55c.632-.619 1.496-1 2.45-1 .954 0 1.818.381 2.45 1h6.55V6a2 2 0 0 0-2-2H2.75v11h-2V3a1 1 0 0 1 1-1H12.5a4 4 0 0 1 4 4ZM16 18.5a1.5 1.5 0 1 0 .308-.91l-.005.006A1.494 1.494 0 0 0 16 18.5Zm-9 0a1.5 1.5 0 1 0-3 0 1.5 1.5 0 0 0 3 0Z" fill="#2B263B"/></svg>