<svg xmlns="http://www.w3.org/2000/svg" fill="none" viewBox="0 0 24 24"><path fill="#2B263B" d="M2 5a4 4 0 0 1 4-4h12a4 4 0 0 1 4 4v14a4 4 0 0 1-4 4H6a4 4 0 0 1-4-4V5Zm3.005-1.735A7.004 7.004 0 0 0 9.4 9.502a2.999 2.999 0 0 1 5.2 0 7.004 7.004 0 0 0 4.395-6.237A1.99 1.99 0 0 0 18 3H6a1.99 1.99 0 0 0-.995.265ZM20 7.127a9.029 9.029 0 0 1-5.042 4.375 3 3 0 0 1-5.916 0A9.03 9.03 0 0 1 4 7.127V19a2 2 0 0 0 2 2h12a2 2 0 0 0 2-2V7.127ZM12 12a1 1 0 1 0 0-2 1 1 0 0 0 0 2Z" data-follow-fill="#2B263B"/></svg>