<svg xmlns="http://www.w3.org/2000/svg" fill="none" viewBox="0 0 24 24"><path fill="#2B263B" d="M16 4a2 2 0 0 0-2-2H3a2 2 0 0 0-2 2v14a1 1 0 0 0 1 1h1.035a3.5 3.5 0 1 0 6.93 0h4.07a3.5 3.5 0 1 0 6.93 0H22a1 1 0 0 0 1-1v-7a2 2 0 0 0-2-2h-5V4Zm0 7h5v6h-1.05a3.489 3.489 0 0 0-2.45-1c-.537 0-1.045.12-1.5.337V11Zm-2 6H8.95a3.489 3.489 0 0 0-2.45-1c-.954 0-1.818.381-2.45 1H3V4h11v13Zm-6 2.5a1.5 1.5 0 1 1-3 0 1.5 1.5 0 0 1 3 0Zm11 0a1.5 1.5 0 1 1-3 0 1.5 1.5 0 0 1 3 0Z" data-follow-fill="#2B263B"/></svg>