<svg xmlns="http://www.w3.org/2000/svg" fill="none" viewBox="0 0 24 24"><path fill="#000" d="M15.592 15.67c3.756-1.237 5.936-5.217 4.9-9.092C19.42 2.565 15.304.183 11.3 1.258c-3.867 1.039-6.216 4.92-5.406 8.8L3.43 17.9a3.926 3.926 0 0 0 1.776 4.574c1.588.92 3.6.61 4.84-.745l5.545-6.059Zm2.967-8.573a5.518 5.518 0 0 1-3.892 6.757l-.037.01-.16.016a7.732 7.732 0 0 1-1.025.024c-.852-.037-1.907-.22-2.857-.77-.95-.55-1.637-1.375-2.095-2.095a7.775 7.775 0 0 1-.557-1.049 5.518 5.518 0 0 1 3.882-6.794 5.503 5.503 0 0 1 6.741 3.901ZM7.11 12.867a7.525 7.525 0 0 0 5.447 3.152l-3.985 4.354a1.908 1.908 0 0 1-2.364.364 1.918 1.918 0 0 1-.868-2.234l1.77-5.636Z" data-follow-fill="#000"/></svg>