<svg xmlns="http://www.w3.org/2000/svg" fill="none" viewBox="0 0 24 24"><path fill="#2B263B" d="m18.343 5.657-.05-.05a8.9 8.9 0 0 0-12.586 0l-.05.05-1.414-1.414.05-.05c4.257-4.257 11.158-4.257 15.414 0l.05.05-1.414 1.414Zm-1.715 1.715-1.414 1.415a4.657 4.657 0 0 0-6.427 0L7.372 7.371a6.657 6.657 0 0 1 9.256 0Zm6.732 12.345a3.352 3.352 0 0 1-.634 1.73 3.548 3.548 0 0 1-1.444 1.164c-.594.271-1.238.4-1.933.388-.954-.021-1.705-.333-2.253-.935-.548-.602-.847-1.418-.897-2.449-.038-.687.035-1.435.22-2.245.188-.81.491-1.514.91-2.112.422-.602.918-1.052 1.487-1.348a3.814 3.814 0 0 1 1.877-.433c.995.017 1.782.32 2.36.91.58.589.897 1.401.947 2.436l-2.14-.007c.008-.564-.092-.966-.301-1.208-.21-.242-.54-.371-.992-.388-1.13-.038-1.818.852-2.065 2.671-.113.823-.17 1.41-.17 1.762-.02 1.044.36 1.58 1.143 1.61.506.017.91-.109 1.211-.376.301-.271.494-.653.578-1.145l2.096-.025ZM5.335 22.872h2.077L9 13.61H6.854l-.998 5.845-2.178-5.845H1.582L0 22.87h2.146l1.005-5.845 2.184 5.846Zm6.27-3.69h3.445l.295-1.717H11.9l.364-2.13h3.79l.295-1.725h-5.943l-1.582 9.262h2.147l.634-3.69Z" data-follow-fill="#2B263B"/></svg>