<svg xmlns="http://www.w3.org/2000/svg" fill="none" viewBox="0 0 24 24"><path fill="#000" d="m19.463 4 .083.009c.08.017.147.057.19.112l.037.059.043.099 1.749 3.785.39.894.045.128-.008.274c-.088 1.12-.783 2.166-1.867 2.736-.487.256-1.073.392-1.756.395a3.746 3.746 0 0 1-2.313-.785 1.438 1.438 0 0 0-1.773 0c-.637.502-1.44.78-2.278.787a3.765 3.765 0 0 1-2.289-.786 1.438 1.438 0 0 0-1.771.003 3.748 3.748 0 0 1-2.308.79 3.94 3.94 0 0 1-1.471-.259l-.244-.11-.231-.132c-.99-.607-1.598-1.585-1.681-2.66L2 9.089l.453-1.025L4.28 4.178a.314.314 0 0 1 .225-.17L4.588 4h14.875ZM5.637 13.928c-.412 0-.79-.049-1.128-.143a1.191 1.191 0 0 0-.009.143v4.858c0 .67.56 1.214 1.25 1.214h12.5c.69 0 1.25-.544 1.25-1.214v-4.858a1.18 1.18 0 0 0-.01-.154 4.256 4.256 0 0 1-1.121.145 3.746 3.746 0 0 1-2.313-.785 1.438 1.438 0 0 0-1.773.001c-.637.501-1.44.78-2.278.786a3.764 3.764 0 0 1-2.289-.785 1.438 1.438 0 0 0-1.771.003 3.748 3.748 0 0 1-2.308.79Z" data-follow-fill="#000"/></svg>