<svg xmlns="http://www.w3.org/2000/svg" fill="none" viewBox="0 0 24 24"><path fill="#2B263B" d="M18.75 14.5a4.23 4.23 0 0 0 2.75-1.01v5.01a4 4 0 0 1-4 4h-11a4 4 0 0 1-4-4v-5.01a4.233 4.233 0 0 0 2.75 1.01 4.241 4.241 0 0 0 3.264-1.528A4.491 4.491 0 0 0 12 14.625a4.49 4.49 0 0 0 3.486-1.653A4.241 4.241 0 0 0 18.75 14.5Z" data-follow-fill="#2B263B"/><path fill="#2B263B" d="M18.75 13a4.241 4.241 0 0 1-3.264-1.528A4.49 4.49 0 0 1 12 13.125a4.491 4.491 0 0 1-3.486-1.653A4.25 4.25 0 0 1 1 8.75v-.118l.976-4.065A4 4 0 0 1 5.866 1.5h12.269a4 4 0 0 1 3.89 3.067L23 8.632v.118A4.25 4.25 0 0 1 18.75 13Z" data-follow-fill="#2B263B"/></svg>