<svg xmlns="http://www.w3.org/2000/svg" fill="none" viewBox="0 0 24 24"><path fill="#2B263B" d="M5.5 4.5a3.5 3.5 0 1 1 3.202 3.487L5.934 15.5H10V15a3 3 0 0 1 3-3h4a3 3 0 0 1 3 3v.5a3 3 0 0 1 3 3v1a3 3 0 0 1-3 3H4a3 3 0 0 1-3-3v-1a3 3 0 0 1 2.8-2.993l3.04-8.253A3.494 3.494 0 0 1 5.5 4.5Zm-1.023 13H4a1 1 0 0 0-1 1v1a1 1 0 0 0 1 1h16a1 1 0 0 0 1-1v-1a1 1 0 0 0-1-1H4.523a.89.89 0 0 1-.046 0ZM9 3a1.5 1.5 0 1 0 0 3 1.5 1.5 0 0 0 0-3Zm9 12.5V15a1 1 0 0 0-1-1h-4a1 1 0 0 0-1 1v.5h6Z" data-follow-fill="#2B263B"/></svg>