<svg xmlns="http://www.w3.org/2000/svg" fill="none" viewBox="0 0 24 24"><path fill="#2B263B" d="M20.252 22.384a3.476 3.476 0 1 1 1.131-1.131l.433.431.565.566-1.131 1.131-.566-.565-.432-.432Zm-9.218-9.863h.416c.4.003.753-.055 1.062-.172a2.47 2.47 0 0 0 1.362-1.224c.145-.282.245-.585.302-.908l.144-.848a2.56 2.56 0 0 0-.017-.86 1.805 1.805 0 0 0-.318-.731 1.648 1.648 0 0 0-.624-.514c-.26-.128-.578-.195-.951-.203h-.306v-.003h-1.218L9.82 12.52h1.214Zm.178-.905.713-3.644.434.001c.23.008.402.054.518.139a.59.59 0 0 1 .237.326c.04.136.054.283.043.443-.008.16-.024.32-.047.477l-.136.855a2.81 2.81 0 0 1-.216.721c-.1.21-.25.378-.45.503-.198.122-.464.182-.798.18l-.298-.001ZM6.61 10.597l.901.003c.408.002.771-.069 1.091-.214.32-.147.579-.353.777-.615.2-.263.32-.576.356-.938A1.69 1.69 0 0 0 9.6 7.95a1.399 1.399 0 0 0-.57-.635c-.257-.16-.574-.245-.95-.255l-1.991-.003-1.066 5.463h1.21l.377-1.924Zm.178-.91.337-1.718.9.008c.164.01.283.062.356.158a.637.637 0 0 1 .136.337c.014.13.013.253-.004.368a1.193 1.193 0 0 1-.153.424.875.875 0 0 1-.31.308.963.963 0 0 1-.48.12l-.782-.005Zm9.9-1.718-.276 1.411h1.882l-.183.909h-1.877l-.437 2.232h-1.214l1.066-5.463h3.328l-.183.911H16.69ZM1.5 5.5a4 4 0 0 1 4-4h13a4 4 0 0 1 4 4v9h-2v-9a2 2 0 0 0-2-2h-13a2 2 0 0 0-2 2v13a2 2 0 0 0 2 2H13v2H5.5a4 4 0 0 1-4-4v-13Zm15.05 13.926a1.876 1.876 0 1 0 3.751 0 1.876 1.876 0 0 0-3.751 0Z" data-follow-fill="#2B263B"/></svg>