<svg xmlns="http://www.w3.org/2000/svg" fill="none" viewBox="0 0 24 24"><path data-follow-fill="#000" d="M9.5 2a4.5 4.5 0 1 0 0 9 4.5 4.5 0 0 0 0-9ZM7 6.5a2.5 2.5 0 1 1 5 0 2.5 2.5 0 0 1-5 0Zm12.342 8.816.898-1.796.075.049a5 5 0 0 1 2.14 2.161c.302.592.428 1.233.487 1.961.058.708.058 1.582.058 2.666V21h-2v-.6c0-1.137 0-1.929-.051-2.546-.05-.605-.142-.953-.276-1.216a3 3 0 0 0-1.311-1.311l-.02-.01ZM17 6.5c0-.908-.483-1.704-1.212-2.143l1.032-1.713A4.498 4.498 0 0 1 19 6.5a4.5 4.5 0 0 1-2.18 3.857l-1.032-1.713A2.498 2.498 0 0 0 17 6.5ZM6 13a5 5 0 0 0-5 5v3a1 1 0 0 0 1 1h15a1 1 0 0 0 1-1v-3a5 5 0 0 0-5-5H6Zm-3 5a3 3 0 0 1 3-3h7a3 3 0 0 1 3 3v2H3v-2Z" fill="#000"/></svg>