<svg xmlns="http://www.w3.org/2000/svg" fill="none" viewBox="0 0 24 24"><path fill="#2B263B" d="M11 3a6 6 0 1 1 0 12 6 6 0 0 1 0-12Zm4.18 12.822a8 8 0 1 0-8.36 0A11.04 11.04 0 0 0 .915 21.6l1.832.8A9.003 9.003 0 0 1 11 17a9.002 9.002 0 0 1 8.251 5.4l1.833-.8a11.04 11.04 0 0 0-5.904-5.778Z" data-follow-fill="#2B263B"/><path fill="#2B263B" d="M21.201 18.6a9.043 9.043 0 0 0-3.152-2.64l.902-1.785a11.044 11.044 0 0 1 4.398 4.027l-1.698 1.055a9.031 9.031 0 0 0-.45-.656ZM21 9a5.968 5.968 0 0 0-1.075-3.428l1.64-1.144A7.968 7.968 0 0 1 23 9c0 1.698-.53 3.276-1.435 4.572l-1.64-1.144A5.968 5.968 0 0 0 21 9Z" data-follow-fill="#2B263B"/></svg>