<svg xmlns="http://www.w3.org/2000/svg" fill="none" viewBox="0 0 24 24"><path fill="#2B263B" d="M3.068 4.646C2.8 3.85 3.382 3 4.338 3H7.44c.08 0 .156.044.195.115L9.131 5.81a.223.223 0 0 1 .005.208L7.694 8.902a1 1 0 0 0-.087.638l.982-.191-.982.19v.004l.001.003.002.01.006.028.022.093c.018.077.045.183.083.314a9.754 9.754 0 0 0 1.042 2.33 8.956 8.956 0 0 0 1.285 1.631 9.28 9.28 0 0 0 2.915 1.948 9.16 9.16 0 0 0 1.355.456l.093.02.028.007.01.002h.005l.19-.981-.189.982a1 1 0 0 0 .636-.088l2.883-1.441a.223.223 0 0 1 .208.004l2.703 1.503c.07.04.115.114.115.195v3.104c0 .955-.852 1.536-1.646 1.268-3.054-1.03-7.636-2.947-10.487-5.798a14.15 14.15 0 0 1-.73-.79c-2.453-2.855-4.13-6.913-5.07-9.697Zm6.868 5.602a7.278 7.278 0 0 1-.286-.786l1.275-2.549a2.223 2.223 0 0 0-.045-2.073L9.384 2.144A2.223 2.223 0 0 0 7.44 1H4.337C2.132 1 .431 3.085 1.173 5.285c1.045 3.096 3.08 8.062 6.28 11.262 3.2 3.2 8.166 5.235 11.262 6.28 2.2.742 4.285-.96 4.285-3.165V16.56c0-.807-.438-1.55-1.143-1.943l-2.703-1.503a2.224 2.224 0 0 0-2.075-.045l-2.55 1.275a7.198 7.198 0 0 1-.782-.283 7.283 7.283 0 0 1-2.285-1.522 7.322 7.322 0 0 1-1.526-2.29Z" data-follow-fill="#2B263B"/></svg>