<svg xmlns="http://www.w3.org/2000/svg" fill="none" viewBox="0 0 24 24"><path fill="#2B263B" d="M9.65 9.462c.058.194.15.467.286.786.288.675.766 1.53 1.526 2.29a7.283 7.283 0 0 0 2.285 1.522c.318.135.589.226.783.283l2.55-1.275a2.224 2.224 0 0 1 2.074.045l2.703 1.503A2.223 2.223 0 0 1 23 16.56v3.104c0 2.205-2.085 3.906-4.285 3.163-3.096-1.044-8.062-3.079-11.262-6.28-3.2-3.2-5.235-8.165-6.28-11.261C.431 3.085 2.132 1 4.337 1H7.44c.808 0 1.552.438 1.944 1.144L10.88 4.84c.356.64.373 1.417.045 2.073L9.65 9.462Z" data-follow-fill="#2B263B"/></svg>