<svg xmlns="http://www.w3.org/2000/svg" fill="none" viewBox="0 0 24 24"><path fill="#2B263B" d="M12 2C6.477 2 2 6.477 2 12s4.477 10 10 10 10-4.477 10-10S17.523 2 12 2Zm12 10c0 6.627-5.373 12-12 12S0 18.627 0 12 5.373 0 12 0s12 5.373 12 12Zm-10.773 5.363c-.866 0-1.656.322-2.258.853l-1.324-1.5a5.398 5.398 0 0 1 3.582-1.353c1.373 0 2.628.512 3.582 1.354l-1.323 1.5a3.398 3.398 0 0 0-2.259-.854Zm-.672-7.856 2.68-2.68L16.65 8.24l-2.052 2.052 2.052 2.052-1.414 1.414-2.681-2.681a1.11 1.11 0 0 1 0-1.57Zm-6.39-2.68 2.68 2.68a1.11 1.11 0 0 1 0 1.57l-2.68 2.682-1.415-1.414 2.053-2.052L4.75 8.24l1.415-1.415Z" data-follow-fill="#2B263B"/></svg>