<svg xmlns="http://www.w3.org/2000/svg" fill="none" viewBox="0 0 24 24"><path fill="#2B263B" d="M1.5 5.5a4 4 0 0 1 4-4h13a4 4 0 0 1 4 4v13a4 4 0 0 1-4 4h-13a4 4 0 0 1-4-4v-13Zm4-2a2 2 0 0 0-2 2v11.586l1.793-1.793L8.286 12.3a1.01 1.01 0 0 1 1.428 0l1.786 1.786L15.786 9.8a1.01 1.01 0 0 1 1.428 0l1.493 1.493 1.793 1.793V5.5a2 2 0 0 0-2-2h-13Zm15 12.414-.207-.207-3-3-.793-.793-4.286 4.286a1.01 1.01 0 0 1-1.428 0L9 14.414l-2.293 2.293-2.884 2.884A2 2 0 0 0 5.5 20.5h13a2 2 0 0 0 2-2v-2.586ZM6.25 7.75a1.5 1.5 0 1 1 3 0 1.5 1.5 0 0 1-3 0Z" data-follow-fill="#2B263B"/></svg>