<svg xmlns="http://www.w3.org/2000/svg" fill="none" viewBox="0 0 24 24"><g clip-path="url(#cb73e__a)"><path fill="#2B263B" d="M12 2C6.477 2 2 6.477 2 12s4.477 10 10 10 10-4.477 10-10S17.523 2 12 2Zm12 10c0 6.627-5.373 12-12 12S0 18.627 0 12 5.373 0 12 0s12 5.373 12 12Zm-9.374-6.283L12 8.343 9.374 5.717 7.96 7.13l2.737 2.737H7v2h4v1.89H7v2h4v2.888h2v-2.889h4v-2h-4v-1.889h4v-2h-3.697L16.04 7.13l-1.414-1.414Z"/></g><defs><clipPath id="cb73e__a"><path fill="#fff" d="M0 0h24v24H0z"/></clipPath></defs></svg>