<svg xmlns="http://www.w3.org/2000/svg" fill="none" viewBox="0 0 24 24"><path fill="#2B263B" d="M9 8H7v2a5 5 0 0 0 10 0V8h-2v2a3 3 0 1 1-6 0V8Z" data-follow-fill="#2B263B"/><path fill="#2B263B" d="M1.897 5.304A4 4 0 0 1 5.89 1.526h12.218a4 4 0 0 1 3.994 3.778l.72 12.964a4 4 0 0 1-4.008 4.22l-4.315-.014H5.171a4 4 0 0 1-3.994-4.222l.72-12.948ZM5.89 3.526a2 2 0 0 0-1.997 1.89l-.72 12.947a2 2 0 0 0 1.997 2.11h9.332l4.319.016a2 2 0 0 0 2.004-2.11l-.72-12.964a2 2 0 0 0-1.997-1.889H5.891Z" data-follow-fill="#2B263B"/></svg>