<svg xmlns="http://www.w3.org/2000/svg" fill="none" viewBox="0 0 24 24"><path fill="#2B263B" d="m5.27 10.408.005-.012c.01.003 2.882.85 6.689.874h.022c3.72-.024 6.547-.832 6.684-.872.002-.074.012-.474.012-.687 0-3.846-1.94-7.71-6.713-7.711-4.772 0-6.712 3.865-6.712 7.71a34.802 34.802 0 0 0 .013.698Zm-.904 2.252c-.018 0-.03.002-.03.002a30.994 30.994 0 0 0-.714 1.888c-.91 2.74-.616 3.874-.391 3.9.482.054 1.875-2.063 1.875-2.063 0 1.216.664 2.8 2.1 3.954-.544.158-1.206.399-1.633.693-.387.267-.338.54-.269.65.288.454 4.685.326 6.389.184a9.792 9.792 0 0 0 .578.001c1.713.142 6.09.268 6.377-.185.07-.11.117-.383-.269-.65-.418-.288-1.06-.525-1.598-.683 1.445-1.154 2.113-2.744 2.113-3.964 0 0 1.393 2.117 1.875 2.063.225-.026.52-1.16-.39-3.9a31.031 31.031 0 0 0-.716-1.889l-.065-.005c-2.402.673-5.367 1.106-7.612 1.081h-.022c-.39.005-.802-.005-1.229-.027v2.688c-1.481.193-2.96-.086-2.96-.086v-2.92a30.423 30.423 0 0 1-3.41-.732Z" data-follow-fill="#2B263B"/></svg>