<svg xmlns="http://www.w3.org/2000/svg" fill="none" viewBox="0 0 24 24"><path fill="#2B263B" d="M17.25 2a2 2 0 0 1 2 2v.2h1.85a2 2 0 0 1 2 2v3a4 4 0 0 1-4 4h-.477A7.254 7.254 0 0 1 13 17.43V20h4.5v2h-11v-2H11v-2.571A7.254 7.254 0 0 1 5.378 13.2H4.9a4 4 0 0 1-4-4v-3a2 2 0 0 1 2-2h1.85V4a2 2 0 0 1 2-2h10.5Zm-9.5 2a1 1 0 0 0-1 1v5.25a5.25 5.25 0 0 0 10.5 0V5a1 1 0 0 0-1-1h-8.5ZM3.9 6.2a1 1 0 0 0-1 1v2c0 1.054.816 1.914 1.85 1.991v-4.99H3.9Zm15.35 0v4.991a1.998 1.998 0 0 0 1.85-1.99v-2a1 1 0 0 0-1-1h-.85Z" data-follow-fill="#2B263B"/></svg>