<svg xmlns="http://www.w3.org/2000/svg" fill="none" viewBox="0 0 24 24"><path fill="#2B263B" d="M10.595 7.702a48.433 48.433 0 0 0-1.078.002 180.5 180.5 0 0 1-1.2 2.678c-.114.266-.255.619-.013.86.231.209.543.202.844.195.102-.002.204-.004.3.002-.105.267-.224.528-.342.79-.178.39-.356.781-.49 1.19-.123.336.185.682.52.682.382.026.765.021 1.147.017.228-.002.457-.005.685-.001l.127-.285c.157-.35.314-.7.468-1.053-.074 0-.149 0-.224.002-.283.004-.568.008-.84-.047.227-.571.48-1.132.732-1.691.168-.373.336-.745.497-1.12a3.536 3.536 0 0 0-.581-.003c-.319.016-.637.032-.916-.086.132-.445.33-.867.527-1.29.13-.278.26-.556.371-.84l-.534-.002Zm-5.967.104h-1.57a487.72 487.72 0 0 0-.012 3.924c0 .982-.001 1.963-.006 2.945a.242.242 0 0 1-.245.3 9.859 9.859 0 0 1-.637.009h-.191c.185.455.386.905.593 1.35.118-.004.24-.002.362 0 .42.01.853.018 1.197-.25.404-.297.528-.825.52-1.301V13.04c0-1.745 0-3.49-.01-5.234Zm13.267-.096h1.594v.6c.764-.03 1.655-.029 2.207.591.461.509.448 1.193.435 1.85-.003.189-.007.375 0 .555.577.01 1.22.146 1.576.646.312.44.3.976.287 1.5a7.21 7.21 0 0 0 0 .524c-.005.133-.001.27.002.411.012.539.026 1.107-.395 1.496-.433.468-1.068.461-1.673.455-.174-.002-.346-.004-.51.006a21.498 21.498 0 0 1-.52-1.168l-.087-.208c.18-.005.361-.004.542-.002.264.003.527.006.79-.013a.26.26 0 0 0 .244-.275c.022-.426.022-.851 0-1.277.008-.3-.304-.491-.575-.468-.518-.008-1.035-.005-1.552-.003-.258.002-.517.003-.776.003v3.405H17.89V12.93h-1.594v-1.6c.53 0 1.061 0 1.59-.008.01-.46.01-.925 0-1.391-.352-.006-.704-.01-1.058-.007V8.319h1.058l.01-.609Zm1.586 2.21c0 .467.003.936.01 1.404h1.076c0-.117.002-.235.004-.353a7.543 7.543 0 0 0-.02-.914c-.175-.185-.437-.163-.694-.142-.13.01-.26.02-.376.004Zm-3.625-1.61h-3.652c-.003.535-.002 1.07.003 1.608h1v4.807c-.477.006-.956.006-1.434.006-.248.532-.49 1.066-.73 1.6h5.348v-1.6c-.256-.003-.513-.003-.77-.003-.256 0-.513 0-.769-.003v-4.81h1.005V8.31Zm6.868.148c.403-.334 1.072-.115 1.223.377.192.451-.168 1.01-.648 1.054-.223.02-.448.016-.672.013l-.224-.003a4.55 4.55 0 0 0-.002-.329c-.014-.41-.027-.85.323-1.112ZM.736 9.914.39 9.913c-.084 1.05-.165 2.105-.238 3.147a2.547 2.547 0 0 1-.152.698c.27.619.539 1.235.827 1.843.645-.863.884-1.95.951-3.006.022-.352.051-.703.08-1.055.045-.546.09-1.093.109-1.64-.41.016-.82.015-1.231.014Zm4.963-.002h1.593l.06.786c.062.785.122 1.57.18 2.355.015.242.067.48.151.708-.269.616-.54 1.231-.825 1.843-.597-.796-.849-1.791-.933-2.764-.051-.59-.095-1.18-.138-1.772-.029-.386-.057-.771-.088-1.156Zm2.713 4.692c-.248.534-.493 1.07-.737 1.607.538.159 1.096.141 1.654.123.289-.008.577-.018.863-.002.246-.534.491-1.068.73-1.605-.263-.01-.528-.005-.793 0-.577.01-1.154.022-1.717-.123Z" data-follow-fill="#2B263B"/></svg>