<svg xmlns="http://www.w3.org/2000/svg" fill="none" viewBox="0 0 24 24"><path fill="#2B263B" d="M12 1a2.491 2.491 0 0 1 2.348 3.35A8.003 8.003 0 0 1 20 12v2.174c1.165.412 2 1.52 2 2.826 0 .988-.48 1.862-1.218 2.408l1.077 1.077-1.414 1.414L7.094 8.548A5.97 5.97 0 0 0 6 12v3a1 1 0 0 1-.897.995l-.206.01A1 1 0 0 0 5 18h9.424l2 2h-.55a4.002 4.002 0 0 1-7.748 0H5a3 3 0 0 1-1-5.826V12c0-1.838.62-3.532 1.663-4.883L2.061 3.515 3.475 2.1 19.32 17.946a1 1 0 0 0-.218-1.941l-.204-.01A1 1 0 0 1 18 15v-3a6 6 0 0 0-8.12-5.614L8.368 4.872a7.9 7.9 0 0 1 1.284-.521A2.5 2.5 0 0 1 12 1Zm-1.73 19a1.998 1.998 0 0 0 3.46 0h-3.46ZM12 3a.5.5 0 1 0 0 1 .5.5 0 0 0 0-1Z" data-follow-fill="#2B263B"/></svg>