<svg xmlns="http://www.w3.org/2000/svg" fill="none" viewBox="0 0 24 24"><path fill="#2B263B" d="M12 2.444a.583.583 0 1 1 0 1.167.583.583 0 0 1 0-1.167Zm2.41 1.518a2.583 2.583 0 1 0-4.818 0A8.393 8.393 0 0 0 3.61 12v2.33a3.112 3.112 0 0 0 1 6.059h3.342a4.168 4.168 0 0 0 8.092 0h3.343a3.111 3.111 0 0 0 1-6.058V12a8.393 8.393 0 0 0-5.98-8.038Zm-.487 16.427a2.166 2.166 0 0 1-3.846 0h3.846ZM12 5.61A6.389 6.389 0 0 1 18.389 12v3.167a1 1 0 0 0 1 1 1.111 1.111 0 1 1 0 2.222H4.61a1.111 1.111 0 0 1-.005-2.222 1.01 1.01 0 0 0 1.005-1.01V12A6.389 6.389 0 0 1 12 5.611Zm4.623 5.253-5.121 5.096a1 1 0 0 1-1.41 0l-2.715-2.701 1.41-1.418 2.01 2 4.415-4.395 1.411 1.418Z" data-follow-fill="#2B263B"/></svg>