<svg xmlns="http://www.w3.org/2000/svg" fill="none" viewBox="0 0 24 24"><path fill="#2B263B" d="M13.204 2.5a2 2 0 0 0-1.383.555l-8.413 8.047a2 2 0 0 0-.032 2.86l6.662 6.662a2 2 0 0 0 2.86-.032l8.047-8.413a2 2 0 0 0 .555-1.383V4.5a2 2 0 0 0-2-2h-6.296Zm-2.765-.89A4 4 0 0 1 13.204.5H19.5a4 4 0 0 1 4 4v6.296a4 4 0 0 1-1.11 2.765l-8.047 8.414a4 4 0 0 1-5.72.063l-6.661-6.662a4 4 0 0 1 .063-5.719L10.44 1.61Z" data-follow-fill="#2B263B"/><path fill="#2B263B" d="M14 6.586 17.414 10 16 11.414 12.586 8 14 6.586Z" data-follow-fill="#2B263B"/></svg>