<svg xmlns="http://www.w3.org/2000/svg" fill="none" viewBox="0 0 24 24"><path fill="#2B263B" d="M6.028 3.542A2 2 0 0 1 8.256.97L12 1.576 15.744.97a2 2 0 0 1 2.228 2.57l-.629 2.014a4.001 4.001 0 0 1 3.289 3.333l1.47 9.5A4 4 0 0 1 18.15 23H5.85a4 4 0 0 1-3.953-4.612l1.471-9.5a4 4 0 0 1 3.289-3.333l-.63-2.013ZM8.735 5.5h6.53l.798-2.555-3.903.631a1 1 0 0 1-.32 0l-3.903-.63.798 2.554Zm-1.414 2a2 2 0 0 0-1.976 1.694l-1.471 9.5A2 2 0 0 0 5.85 21h12.3a2 2 0 0 0 1.976-2.306l-1.47-9.5A2 2 0 0 0 16.678 7.5H7.32Zm4.668 4.547a.023.023 0 0 0-.008.006l-2.178 2.178a.023.023 0 0 0-.006.009.028.028 0 0 0-.002.01l.002.01c0 .002.002.005.006.01l2.178 2.177a.023.023 0 0 0 .019.008.03.03 0 0 0 .01-.002.02.02 0 0 0 .005-.003.071.071 0 0 0 .004-.003l2.178-2.178a.027.027 0 0 0 .006-.008.029.029 0 0 0 .002-.01l-.002-.011a.025.025 0 0 0-.006-.009l-2.178-2.178a.023.023 0 0 0-.019-.008l-.01.002Zm-1.422-1.408a2.027 2.027 0 0 1 2.866 0l2.178 2.178a2.027 2.027 0 0 1 0 2.866l-2.178 2.178a2.027 2.027 0 0 1-2.866 0l-2.178-2.178a2.027 2.027 0 0 1 0-2.866l2.178-2.178Z" data-follow-fill="#2B263B"/></svg>