<svg xmlns="http://www.w3.org/2000/svg" fill="none" viewBox="0 0 24 24"><path fill="#2B263B" d="M11.5 3.267c0-1.738 2.065-2.649 3.348-1.477l8.169 7.458a3 3 0 0 1-.055 4.48l-8.15 7.086c-1.294 1.126-3.312.207-3.312-1.509v-2.748c-4.024.461-7.108 3.6-8.67 5.59-.467.594-1.194.68-1.724.504-.54-.18-1.098-.715-1.043-1.524.274-3.999 1.435-7.748 3.502-10.525 1.903-2.555 4.573-4.276 7.935-4.56V3.267Zm10.168 7.458L13.5 3.267V7a1 1 0 0 1-1 1c-3.128 0-5.572 1.435-7.33 3.797-1.54 2.067-2.554 4.855-2.964 7.986C4.248 17.515 7.828 14.5 12.5 14.5a1 1 0 0 1 1 1v3.805l8.15-7.087a1 1 0 0 0 .018-1.493Z" data-follow-fill="#2B263B"/></svg>