<svg xmlns="http://www.w3.org/2000/svg" fill="none" viewBox="0 0 24 24"><path fill="#2B263B" d="M11.5 3.344c0-1.761 2.113-2.662 3.384-1.443l8.487 8.138a2 2 0 0 1-.036 2.92l-8.486 7.75c-1.284 1.173-3.349.262-3.349-1.476v-2.676c-4.024.461-7.108 3.6-8.67 5.59-.467.594-1.194.68-1.724.504-.539-.18-1.098-.715-1.043-1.524.274-3.999 1.435-7.748 3.502-10.525 1.903-2.555 4.573-4.276 7.935-4.56V3.344Zm10.487 8.138L13.5 3.344V7a1 1 0 0 1-1 1c-3.128 0-5.572 1.435-7.33 3.797-1.54 2.067-2.554 4.855-2.964 7.986C4.248 17.515 7.828 14.5 12.5 14.5a1 1 0 0 1 1 1v3.733l8.487-7.75Z" data-follow-fill="#2B263B"/></svg>