<svg xmlns="http://www.w3.org/2000/svg" fill="none" viewBox="0 0 24 24"><path stroke-linejoin="round" stroke-width="2" stroke="#333" d="m2.06 4.006 9.944-2.756 9.936 2.756v6.154c0 5.94-4.303 10.712-9.939 12.59-5.637-1.878-9.941-6.648-9.941-12.59V4.006Z"/><path stroke-linejoin="round" stroke-linecap="square" stroke-width="2" stroke="#2B263B" d="M17 8.5 10.469 15 7.5 12.046"/><path fill="#2B263B" d="M12.272.287a1 1 0 0 0-.535 0L1.793 3.041a1 1 0 0 0-.733.964v6.154c0 6.47 4.681 11.559 10.625 13.539a1 1 0 0 0 .633 0c5.942-1.98 10.622-7.07 10.622-13.539V4.006a1 1 0 0 0-.733-.964L12.272.287ZM3.06 10.16V4.767l8.944-2.48 8.936 2.48v5.393c0 5.304-3.771 9.688-8.939 11.532C6.832 19.848 3.06 15.466 3.06 10.16Zm14.645-.951.71-.706-1.412-1.417-.708.705-5.826 5.798-2.264-2.252-.708-.706-1.411 1.418.709.705 2.968 2.955a1 1 0 0 0 1.411 0l6.531-6.5Z" data-follow-fill="#2B263B"/></svg>