<svg xmlns="http://www.w3.org/2000/svg" fill="none" viewBox="0 0 24 24"><path fill="#2B263B" d="M12.272.287a1 1 0 0 0-.535 0L1.793 3.041a1 1 0 0 0-.733.964v6.154c0 6.47 4.681 11.559 10.625 13.539a1 1 0 0 0 .633 0c5.942-1.98 10.622-7.07 10.622-13.539V4.006a1 1 0 0 0-.733-.964L12.272.287ZM3.06 10.16V4.767l8.944-2.48 8.936 2.48v5.393c0 5.304-3.771 9.688-8.939 11.532C6.832 19.848 3.06 15.466 3.06 10.16Zm8.598 5.431 7-7-1.414-1.414-6.293 6.293-3.67-3.67-1.415 1.413 4.378 4.378a1 1 0 0 0 1.414 0Z" data-follow-fill="#2B263B"/></svg>