<svg xmlns="http://www.w3.org/2000/svg" fill="none" viewBox="0 0 24 24"><path data-follow-fill="#2B263B" d="M22.34 5.96h-7.733l.078-1.114h5.555c.788 0 1.47-.64 1.523-1.43l.073-1.057a.21.21 0 0 0-.21-.228h-6.752l.06-.846A.262.262 0 0 0 14.669 1H10.91a.311.311 0 0 0-.306.285l-.06.846H4.72c-.788 0-1.47.64-1.524 1.43l-.073 1.057a.21.21 0 0 0 .211.228h7.022l-.079 1.114H3.89c-.787 0-1.47.64-1.523 1.43l-.092 1.328a.21.21 0 0 0 .21.228h15.012l-.592 3.495a.188.188 0 0 0 .181.244H19.5a1.84 1.84 0 0 0 1.726-1.274l1.266-5.234a.16.16 0 0 0-.151-.214V5.96ZM9.217 11.438c-.119.575-.676.974-1.242.895l-4.78-.675a.129.129 0 0 1-.11-.157l.26-1.24c.12-.574.677-.973 1.243-.894l4.78.675c.076.01.125.081.109.157l-.26 1.24Zm-1.436 4.224L3 14.987a.129.129 0 0 1-.108-.158l.26-1.239c.118-.575.676-.974 1.241-.895l4.781.675a.13.13 0 0 1 .109.158l-.26 1.239c-.12.575-.677.974-1.242.895Zm12.06 3.28h-2.606l4.175 3.534c.246.209.07.63-.263.63h-3.885c-.382 0-.742-.13-1.023-.37l-3.945-3.349-4.608 3.333a2 2 0 0 1-1.169.385H2.629c-.338 0-.452-.43-.168-.634l4.908-3.529H1.712a.21.21 0 0 1-.212-.227l.13-1.262c.054-.79.736-1.43 1.524-1.43h7.52l.221-4.45c.054-.79.736-1.43 1.523-1.43h2.95a.21.21 0 0 1 .21.228l-.305 5.653h6.01a.21.21 0 0 1 .21.227l-.13 1.872c-.053.789-.735.82-1.523.82Z" fill="#2B263B"/></svg>