<svg xmlns="http://www.w3.org/2000/svg" fill="none" viewBox="0 0 24 24"><path fill="#2B263B" d="M5.865 3.5h12.27a2 2 0 0 1 1.945 1.533l.918 3.825A2.25 2.25 0 0 1 16.5 8.75h-.002a4.72 4.72 0 0 0 .002-.125 1 1 0 1 0-2 0 2.5 2.5 0 0 1-5 0 1 1 0 0 0-2 0c0 .042 0 .083.002.125H7.5a2.25 2.25 0 0 1-4.497.108l.917-3.825A2 2 0 0 1 5.865 3.5Zm9.62 7.972a4.241 4.241 0 0 0 4.015 1.462V18.5a2 2 0 0 1-2 2h-11a2 2 0 0 1-2-2v-5.566a4.241 4.241 0 0 0 4.014-1.462A4.491 4.491 0 0 0 12 13.125a4.49 4.49 0 0 0 3.486-1.653Zm6.015.519A4.24 4.24 0 0 0 23 8.75v-.118l-.976-4.065a4 4 0 0 0-3.89-3.067H5.866a4 4 0 0 0-3.89 3.067L1 8.632v.118a4.24 4.24 0 0 0 1.5 3.24v6.51a4 4 0 0 0 4 4h11a4 4 0 0 0 4-4v-6.51Z" data-follow-fill="#2B263B"/></svg>