<svg xmlns="http://www.w3.org/2000/svg" fill="none" viewBox="0 0 24 24"><path fill="#2B263B" d="M13.175 4.635a3.321 3.321 0 0 1 4.068 2.347l1.894 7.072.033.02-.02.031.695 2.59a3.322 3.322 0 0 1-2.348 4.068l-9.713 2.602a3.32 3.32 0 0 1-3.923-1.927l-.07-.04.03-.055a3.363 3.363 0 0 1-.104-.326l-2.603-9.713a3.321 3.321 0 0 1 2.348-4.067l9.713-2.602Zm-1.5 12.573a1.007 1.007 0 0 1-1.376.37l-1.496-.865-1.14 1.977-1.479 2.559c.306.208.697.288 1.082.185l9.713-2.603a1.322 1.322 0 0 0 .935-1.618l-.495-1.842-.115-.066-2.842-1.64-.555-.321-2.232 3.864ZM15.311 7.5a1.322 1.322 0 0 0-1.618-.934L3.98 9.17a1.32 1.32 0 0 0-.934 1.617l2.177 8.127.707-1.224 1.638-2.835.056-.086a1.009 1.009 0 0 1 1.23-.33l.09.047 1.495.864 2.232-3.864.056-.087a1.008 1.008 0 0 1 1.229-.329l.092.047 1.413.817 1.227.708L15.311 7.5ZM18.856 1a3.322 3.322 0 0 1 3.321 3.32v10.056a3.314 3.314 0 0 1-1.258 2.601c-.025-.18-.06-.36-.108-.54l-.634-2.367V4.32A1.32 1.32 0 0 0 18.856 3H8.8a1.32 1.32 0 0 0-1.32 1.32v.805l-2 .536v-1.34A3.32 3.32 0 0 1 8.8 1h10.056ZM6.481 10.466a1.501 1.501 0 1 1 .776 2.9 1.501 1.501 0 0 1-.776-2.9Z" data-follow-fill="#2B263B"/></svg>