<svg xmlns="http://www.w3.org/2000/svg" fill="none" viewBox="0 0 24 24"><path fill="#2B263B" d="M10.325 8.838c-3.16-.156-5.356.994-6.59 3.45C1.885 15.972 3.415 22 9.585 22s6.35-6.087 6.35-6.725v-7.13c1.32.853 2.432 1.366 3.338 1.54.905.175 1.481.252 1.727.232V6.369c-.838-.103-1.562-.3-2.173-.59-.917-.434-2.735-1.641-2.735-3.41V1h-3.82c-.011 8.664-.011 13.423 0 14.275.017 1.279-.955 3.068-2.925 3.068-1.97 0-2.942-1.788-2.942-2.94 0-.706.238-1.729 1.22-2.486.581-.45 1.39-.629 2.7-.629v-3.45Z" data-follow-fill="#2B263B"/></svg>