<svg xmlns="http://www.w3.org/2000/svg" fill="none" viewBox="0 0 24 24"><path fill="#2B263B" d="M5.8.5a4 4 0 0 0-4 4v15a4 4 0 0 0 4 4h12.4a4 4 0 0 0 4-4v-15a4 4 0 0 0-4-4H5.8Zm-2 4a2 2 0 0 1 2-2h12.4a2 2 0 0 1 2 2v15a2 2 0 0 1-2 2H5.8a2 2 0 0 1-2-2v-15Zm3.7-.2a2 2 0 0 0-2 2v3a2 2 0 0 0 2 2h9a2 2 0 0 0 2-2v-3a2 2 0 0 0-2-2h-9Zm0 2h9v3h-9v-3Zm2.437 10.2 1.576 1.433-1.346 1.48-1.717-1.561-1.717 1.56-1.346-1.48L6.963 16.5l-1.576-1.433 1.346-1.48L8.45 15.15l1.717-1.562 1.346 1.48L9.937 16.5Zm3.263.5h5v2h-5v-2Zm5-3h-5v2h5v-2Z" data-follow-fill="#2B263B"/></svg>