<svg xmlns="http://www.w3.org/2000/svg" fill="none" viewBox="0 0 24 24"><path data-follow-fill="#2B263B" d="M12.89 13v6.947c0 .124-.037 1.135-.801 1.863-.333.32-.938.69-1.887.69h-.173c-1.06-.05-1.9-.826-2.195-1.566a3.214 3.214 0 0 1-.209-1l-.024-.674h2.01l.024.638v.086a.647.647 0 0 0 .641.605.627.627 0 0 0 .542-.309v-.012a.622.622 0 0 0 .099-.333v-.012L10.893 13h1.997Zm-.9-10.5a.93.93 0 0 1 .926.849c5.22.38 9.316 4.034 9.316 9.653 0 .56-.618.73-.933.267-.567-.836-1.333-1.667-2.328-1.667-.865 0-1.647.35-2.23.923-.293.289-.779.348-1.105.098a5.914 5.914 0 0 0-7.238 0c-.326.25-.812.191-1.105-.097a3.178 3.178 0 0 0-2.23-.924c-1.001 0-1.773.833-2.344 1.668-.317.463-.937.292-.938-.268 0-5.607 4.08-9.258 9.284-9.651a.929.929 0 0 1 .925-.851Zm.017 2.814c-3.465 0-6.268 1.628-7.519 4.332.185-.029.376-.044.575-.044a5.14 5.14 0 0 1 2.904.9 7.886 7.886 0 0 1 4.05-1.115c1.477 0 2.859.407 4.048 1.115a5.13 5.13 0 0 1 2.906-.9l.202.005c.12.007.236.019.35.036-1.251-2.702-4.053-4.329-7.516-4.329Z" fill="#2B263B"/></svg>