<svg xmlns="http://www.w3.org/2000/svg" fill="none" viewBox="0 0 24 24"><path fill="#2B263B" d="M5.98 10.621c-.13.138-.3.24-.497.287a4.537 4.537 0 1 0 2.295 8.78l.961-.273.546 1.924-.962.273a6.537 6.537 0 0 1-3.865-12.49 7.645 7.645 0 0 1 15.237.054 6.539 6.539 0 0 1-4.018 12.436l-.962-.273.546-1.924.962.273a4.537 4.537 0 1 0 2.295-8.78 1 1 0 0 1-.762-.85 1 1 0 0 1-.038-.273 5.644 5.644 0 0 0-11.288 0c0 .35-.18.657-.45.836Zm5.312-.865a1 1 0 0 1 1.412-.004l4.276 4.243-1.408 1.42L13 12.862V20h-2v-7.118l-2.465 2.473-1.416-1.412 4.173-4.187Z" data-follow-fill="#2B263B"/></svg>