<svg xmlns="http://www.w3.org/2000/svg" fill="none" viewBox="0 0 24 24"><path fill="#2B263B" d="M1.5 5.5a4 4 0 0 1 4-4h13a4 4 0 0 1 4 4v13a4 4 0 0 1-4 4h-13a4 4 0 0 1-4-4v-13Zm4-2a2 2 0 0 0-2 2v1h3.382l1.5-3H5.5Zm-2 15a2 2 0 0 0 2 2h13a2 2 0 0 0 2-2v-10h-17v10Zm17-13a2 2 0 0 0-2-2h-.882l-1.5 3H20.5v-1Zm-5.118-2h-4.764l-1.5 3h4.764l1.5-3ZM10.9 16.343v-3.686l2.976 1.843-2.976 1.843Zm.452-5.524a1.45 1.45 0 0 0-1.533 0 1.537 1.537 0 0 0-.719 1.309v4.744c0 .516.256 1.023.719 1.309a1.45 1.45 0 0 0 1.533 0l3.83-2.372c.462-.287.718-.793.718-1.309 0-.516-.256-1.022-.719-1.309l-3.83-2.372Z" data-follow-fill="#2B263B"/></svg>