<svg xmlns="http://www.w3.org/2000/svg" fill="none" viewBox="0 0 24 24"><path data-follow-stroke="#2B263B" d="M23 12c0 6.075-4.925 11-11 11S1 18.075 1 12 5.925 1 12 1s11 4.925 11 11Z" stroke="#2B263B" stroke-width="2" stroke-linejoin="round"/><path data-follow-fill="#2B263B" d="M9.275 7.335a1 1 0 0 0-.5.866v7.558a1 1 0 0 0 1.5.866l6.546-3.779a1 1 0 0 0 0-1.732l-6.546-3.779a1 1 0 0 0-1 0Z" fill="#2B263B"/><path data-follow-fill="#2B263B" d="M22 12c0-5.523-4.477-10-10-10S2 6.477 2 12s4.477 10 10 10 10-4.477 10-10Zm2 0c0 6.627-5.373 12-12 12S0 18.627 0 12 5.373 0 12 0s12 5.373 12 12ZM8.775 8.201a1 1 0 0 1 1.5-.866l6.546 3.78a1 1 0 0 1 0 1.731l-6.546 3.78a1 1 0 0 1-1.5-.867V8.201Z" fill="#2B263B"/></svg>