<svg xmlns="http://www.w3.org/2000/svg" fill="none" viewBox="0 0 24 24"><path fill="#2B263B" d="M22 12c0-5.523-4.477-10-10-10S2 6.477 2 12s4.477 10 10 10v2C5.373 24 0 18.627 0 12S5.373 0 12 0s12 5.373 12 12-5.373 12-12 12v-2c5.523 0 10-4.477 10-10Z" data-follow-fill="#2B263B"/><path fill="#2B263B" d="M9.133 8c.473 0 .885.3 1.038.733l.048.193.849 5.307 3.409-5.698.082-.118A1.1 1.1 0 0 1 15.42 8h2.464v1.885h-2.02L11.91 16.5c-.64 1.07-2.268.756-2.465-.475l-.983-6.14H6.667V8h2.466Z" data-follow-fill="#2B263B"/></svg>