<svg xmlns="http://www.w3.org/2000/svg" fill="none" viewBox="0 0 24 24"><path fill="#2B263B" d="M12 2c3.071 0 6.05 1.633 8.22 3.586 1.095.986 2.023 2.087 2.683 3.17C23.551 9.817 24 10.956 24 12s-.45 2.183-1.097 3.244c-.66 1.083-1.588 2.184-2.683 3.17C18.05 20.366 15.07 22 12 22c-3.071 0-6.05-1.634-8.22-3.587-1.095-.986-2.023-2.087-2.683-3.17C.449 14.182 0 13.043 0 12c0-1.043.45-2.182 1.097-3.243.66-1.083 1.588-2.184 2.683-3.17C5.95 3.634 8.93 2 12 2Zm0 5.7a4.3 4.3 0 1 0 0 8.6 4.3 4.3 0 0 0 0-8.6Z" data-follow-fill="#2B263B"/></svg>