<svg xmlns="http://www.w3.org/2000/svg" fill="none" viewBox="0 0 24 24"><path fill="#2B263B" d="M12 2C8.929 2 5.95 3.634 3.78 5.587c-1.095.986-2.023 2.087-2.684 3.17C.45 9.817 0 10.957 0 12c0 1.043.449 2.182 1.096 3.243.661 1.083 1.589 2.184 2.685 3.17C5.95 20.366 8.929 22 12 22c3.071 0 6.05-1.633 8.22-3.586 1.095-.986 2.023-2.086 2.684-3.17C23.55 14.185 24 13.045 24 12s-.449-2.183-1.096-3.245c-.661-1.083-1.589-2.183-2.685-3.17C18.05 3.634 15.071 2 12 2ZM2 12c0-.517.243-1.283.803-2.201.548-.898 1.345-1.852 2.316-2.726C7.082 5.306 9.604 4 12 4s4.918 1.305 6.881 3.072c.971.874 1.768 1.828 2.316 2.725.56.919.803 1.685.803 2.203 0 .518-.243 1.284-.803 2.203-.548.897-1.345 1.851-2.316 2.725C16.918 18.695 14.396 20 12 20s-4.918-1.306-6.881-3.073c-.971-.874-1.768-1.828-2.316-2.726C2.243 13.284 2 12.518 2 12Zm10-4.3a4.3 4.3 0 1 0 0 8.6 4.3 4.3 0 0 0 0-8.6ZM9.7 12a2.3 2.3 0 1 1 4.6 0 2.3 2.3 0 0 1-4.6 0Z" data-follow-fill="#2B263B"/></svg>