<svg xmlns="http://www.w3.org/2000/svg" fill="none" viewBox="0 0 24 24"><path fill="#2B263B" d="M9.049 1C4.089 1 0 4.875 0 9.738c0 2.419.762 4.39 2.437 5.962l-.426 3.148a1.01 1.01 0 0 0 1.417 1.056l2.997-1.355c.726.034 1.314 0 1.932-.036.237-.014.478-.028.733-.039.48-.02 1-.127 1.383-.218 1.02 2.548 3.576 4.332 6.527 4.332a7.2 7.2 0 0 0 2.012-.285l1.615.625a1.01 1.01 0 0 0 1.37-.844l.189-1.944c.568-.515 1.015-1.073 1.322-1.74.361-.782.492-1.635.492-2.606 0-3.451-2.633-6.257-6.003-6.725a6.48 6.48 0 0 0-.207-1.6C16.75 3.723 13.212 1 9.049 1Zm6.948 8.07C12.63 9.54 10 12.345 10 15.794c0 .173.007.344.02.514-.36.085-.73.156-1.013.168-.325.013-.603.03-.857.044-.643.038-1.132.067-1.844.019a1.01 1.01 0 0 0-.483.087l-1.59.719.257-1.902a1.01 1.01 0 0 0-.357-.914C2.67 13.319 2 11.819 2 9.738 2 6.053 5.118 3 9.049 3c3.289 0 6.02 2.146 6.814 5.005.088.318.124.667.134 1.065ZM6 8a1 1 0 1 0 0 2 1 1 0 0 0 0-2Zm4 1a1 1 0 1 1 2 0 1 1 0 0 1-2 0Zm5 5.25a.75.75 0 1 0 0 1.5.75.75 0 0 0 0-1.5Zm3.25.75a.75.75 0 1 1 1.5 0 .75.75 0 0 1-1.5 0Zm-6.25.794C12 13.179 14.205 11 17 11s5 2.179 5 4.794c0 .794-.108 1.335-.308 1.77-.199.43-.526.838-1.095 1.306a1.01 1.01 0 0 0-.363.682l-.102 1.04-.724-.28a1.01 1.01 0 0 0-.697-.012 5.18 5.18 0 0 1-1.711.288c-2.795 0-5-2.18-5-4.794Z" data-follow-fill="#2B263B"/></svg>