<svg xmlns="http://www.w3.org/2000/svg" fill="none" viewBox="0 0 24 24"><path fill="#2B263B" d="M0 11.474v-.717c.06-.657.18-1.254.36-1.851a9.958 9.958 0 0 1 2.344-4.002C4.206 3.292 6.009 2.277 7.99 1.62a13.749 13.749 0 0 1 3.425-.598c.962-.06 1.863 0 2.824.18a10.69 10.69 0 0 1 2.283.597c1.863.657 3.485 1.672 4.867 3.105.18.18.3.359.481.538-.06 0-.06.06-.12.06-.48.238-.962.477-1.442.656-3.365 1.553-6.73 3.106-10.095 4.599-.66.299-1.321.239-1.922-.12-.48-.298-.901-.597-1.382-.895-.3-.24-.601-.418-.962-.657-.3-.18-.48-.06-.48.298v.06c.06.299.12.597.24.896.601 1.433 1.202 2.807 1.803 4.24.18.418.48.598.84.538.241 0 .482-.06.662-.18.72-.358 1.382-.776 2.043-1.194 3.665-2.15 7.27-4.3 10.935-6.45.24-.179.541-.298.781-.478 0 .06.06.06.06.12.12.239.24.418.3.657.662 1.433.962 2.926.842 4.479-.06.657-.18 1.314-.36 1.97-.421 1.434-1.142 2.688-2.163 3.823a11.96 11.96 0 0 1-4.327 2.986c-.961.358-1.922.657-2.884.836-.66.12-1.322.18-1.922.18h-1.082c-.48-.06-.961-.06-1.382-.12a12.043 12.043 0 0 1-2.103-.538h-.18c-.3.18-.541.359-.841.538-.661.418-1.262.776-1.923 1.135-.12.06-.3.119-.42.119s-.241-.06-.241-.239c0-.12 0-.299.06-.418.12-.896.3-1.732.48-2.628 0-.12 0-.179-.12-.239-.36-.298-.72-.537-1.081-.895-1.202-1.075-2.163-2.39-2.764-3.882a11.86 11.86 0 0 1-.54-2.09c-.06-.3-.06-.598-.06-.956-.121 0-.121-.06-.121-.18Z" data-follow-fill="#2B263B"/></svg>