<svg xmlns="http://www.w3.org/2000/svg" fill="none" viewBox="0 0 24 24"><path fill="#2B263B" d="M1 11.521v-.651c.055-.597.165-1.14.33-1.683a9.036 9.036 0 0 1 2.15-3.638C4.855 4.083 6.508 3.16 8.325 2.563a12.698 12.698 0 0 1 3.14-.543c.881-.054 1.707 0 2.589.163a9.912 9.912 0 0 1 2.092.543c1.708.597 3.195 1.52 4.462 2.823.165.163.275.326.44.489-.055 0-.055.054-.11.054-.44.217-.88.435-1.322.598a694.11 694.11 0 0 1-9.253 4.18c-.606.272-1.211.217-1.762-.108-.44-.272-.826-.543-1.267-.815-.275-.217-.55-.38-.881-.597-.276-.163-.44-.054-.44.271v.055c.054.271.11.543.22.814.55 1.303 1.101 2.552 1.652 3.855.165.38.44.543.77.488.221 0 .442-.054.607-.162.66-.326 1.266-.706 1.872-1.086 3.36-1.955 6.665-3.91 10.025-5.864.22-.163.495-.271.716-.434 0 .054.055.054.055.108.11.217.22.38.275.598.606 1.303.881 2.66.771 4.072a10.228 10.228 0 0 1-.33 1.791c-.386 1.303-1.047 2.443-1.983 3.475a10.966 10.966 0 0 1-3.966 2.715c-.88.325-1.762.597-2.643.76-.606.108-1.212.162-1.763.162H11.3c-.441-.054-.882-.054-1.267-.108a11.118 11.118 0 0 1-1.928-.489H7.94c-.276.163-.496.326-.771.489a29.67 29.67 0 0 1-1.763 1.031c-.11.055-.275.109-.385.109-.11 0-.22-.054-.22-.217 0-.109 0-.272.054-.38.11-.815.276-1.575.441-2.39 0-.108 0-.162-.11-.216-.33-.272-.661-.489-.991-.815-1.102-.977-1.983-2.171-2.534-3.529a10.708 10.708 0 0 1-.496-1.9c-.055-.271-.055-.543-.055-.869-.11 0-.11-.054-.11-.162Z" data-follow-fill="#2B263B"/></svg>