<svg xmlns="http://www.w3.org/2000/svg" fill="none" viewBox="0 0 24 24"><path fill="#2B263B" d="M12 6.678c3.447 0 6.76 1.278 9.258 3.57a.491.491 0 0 0 .674-.006l1.798-1.75a.474.474 0 0 0-.005-.685c-6.554-6.06-16.895-6.06-23.45 0a.474.474 0 0 0-.005.685l1.798 1.75a.49.49 0 0 0 .674.005c2.498-2.291 5.812-3.569 9.259-3.569Zm-.004 5.848a7.52 7.52 0 0 1 5.088 1.989.475.475 0 0 0 .67-.009l1.783-1.828a.508.508 0 0 0-.007-.719 10.944 10.944 0 0 0-15.064 0 .508.508 0 0 0-.007.72l1.783 1.827c.184.187.481.19.67.009a7.52 7.52 0 0 1 5.084-1.99Zm3.498 3.87a.564.564 0 0 1-.142.39l-3.016 3.4a.447.447 0 0 1-.335.156.447.447 0 0 1-.335-.156l-3.016-3.4a.564.564 0 0 1-.141-.39.558.558 0 0 1 .156-.382c1.926-1.82 4.747-1.82 6.673 0a.558.558 0 0 1 .156.382Z" data-follow-fill="#2B263B"/></svg>