<svg xmlns="http://www.w3.org/2000/svg" fill="none" viewBox="0 0 24 24"><path fill="#2B263B" d="M11.712 1.445c1.09-1.345 3.257-.764 3.529.946l.569 3.58c.264.064.517.203.729.425l2.146 2.254.085.033 3.104-.239c1.184-.09 1.999 1.165 1.434 2.21l-1.504 2.782 1.205 2.924c.453 1.098-.49 2.261-1.657 2.047l-3.111-.57-1.952 1.66-.076 1.441c-.091 1.729-2.186 2.533-3.41 1.31l-3.766-3.762-5.142 1.375c-1.672.447-3.084-1.297-2.299-2.84l2.414-4.743-2.896-4.464c-.942-1.453.28-3.335 1.99-3.065l5.257.83 3.351-4.134Zm2.542 18.67a1.483 1.483 0 0 1-.881-1.173l-.419-3.135-2.694-1.658c-1.011-.622-.933-2.117.138-2.63l2.852-1.367.724-2.989-.708-4.459L9.914 6.84a2 2 0 0 1-1.865.716l-5.258-.83 2.897 4.465a2 2 0 0 1 .105 1.996L3.379 17.93l5.141-1.375a2 2 0 0 1 1.93.517l3.766 3.762.038-.717Zm.885-9.262a1.5 1.5 0 0 1-.81 1l-2.24 1.073 2.115 1.302a1.5 1.5 0 0 1 .701 1.079l.329 2.462 1.891-1.61a1.5 1.5 0 0 1 1.243-.333l2.443.448-.946-2.296a1.5 1.5 0 0 1 .067-1.285l1.181-2.184-2.476.19a1.5 1.5 0 0 1-1.201-.461l-1.713-1.799-.585 2.414Z" data-follow-fill="#2B263B"/></svg>