<svg xmlns="http://www.w3.org/2000/svg" fill="none" viewBox="0 0 24 24"><g clip-path="url(#11baac__a)"><path fill="#2B263B" d="M13.182 2.967 9.818 6.823c-.47.539-1.176.81-1.886.727l-5.165-.612a.154.154 0 0 0-.09.013.174.174 0 0 0-.067.061.174.174 0 0 0-.03.086c0 .022.003.05.026.088l2.662 4.494a2.16 2.16 0 0 1 .1 2.017l-2.146 4.608a.154.154 0 0 0-.016.09.174.174 0 0 0 .038.084.177.177 0 0 0 .073.054.15.15 0 0 0 .092.002l5.004-1.16a2.165 2.165 0 0 1 1.968.526l3.757 3.512c.033.03.06.04.081.043a.173.173 0 0 0 .09-.01.173.173 0 0 0 .075-.053.153.153 0 0 0 .031-.087l.143-1.597a1.616 1.616 0 0 1-.371-.908l-.227-2.575-2.32-1.305c-1.181-.664-1.089-2.394.157-2.93l2.434-1.045.435-2.22a1.692 1.692 0 0 1-.133-.4l-1.065-5.283a.154.154 0 0 0-.04-.082.174.174 0 0 0-.08-.045.174.174 0 0 0-.09 0 .153.153 0 0 0-.076.051Zm3.346 17.168-.12 1.35c-.16 1.795-2.318 2.62-3.635 1.389l-3.758-3.511a.165.165 0 0 0-.15-.04l-5.004 1.16c-1.758.409-3.214-1.387-2.452-3.022l2.146-4.608a.165.165 0 0 0-.007-.154L.885 8.206c-.914-1.543.336-3.465 2.117-3.254l5.165.611a.165.165 0 0 0 .144-.055l3.364-3.855c1.18-1.353 3.399-.765 3.753.995l.891 4.42a1.61 1.61 0 0 1 1.247.556l1.73 1.964 2.614-.307c1.346-.158 2.29 1.293 1.6 2.458l-1.355 2.291 1.09 2.347c.574 1.236-.527 2.591-1.854 2.283l-2.548-.59-1.909 1.783a1.66 1.66 0 0 1-.406.282Zm-.371-8.616a1.64 1.64 0 0 1-.96 1.188l-1.935.832 1.846 1.038c.47.264.78.745.828 1.283l.178 2.023 1.505-1.407a1.636 1.636 0 0 1 1.487-.399l2.011.467-.856-1.845a1.637 1.637 0 0 1 .076-1.522l1.078-1.824-2.074.244a1.636 1.636 0 0 1-1.419-.543L16.552 9.5l-.395 2.019Z"/></g><defs><clipPath id="11baac__a"><path fill="#fff" d="M0 0h24v24H0z"/></clipPath></defs></svg>