<svg xmlns="http://www.w3.org/2000/svg" fill="none" viewBox="0 0 24 24"><path data-follow-fill="#000" d="m15.416 6.1 1.53 3.5a1 1 0 0 1-.917 1.4H7.5V9h7.001l-.917-2.1 1.832-.8ZM16.5 15H9.499l.917 2.1-1.832.8-1.53-3.5a1 1 0 0 1 .917-1.4H16.5v2Z" fill="#000"/><path data-follow-fill="#000" d="M3.35 4.75A3 3 0 0 1 6.34 2h11.32a3 3 0 0 1 2.99 2.75l1.166 14a3 3 0 0 1-2.99 3.25H5.174a3 3 0 0 1-2.99-3.25l1.167-14ZM6.34 4a1 1 0 0 0-.996.917l-1.167 14A1 1 0 0 0 5.174 20h13.652a1 1 0 0 0 .997-1.083l-1.167-14A1 1 0 0 0 17.66 4H6.34Z" fill="#000"/></svg>