<svg xmlns="http://www.w3.org/2000/svg" fill="none" viewBox="0 0 24 24"><path fill="#000" d="M15.265 4.352c.684-.782 1.158-1.855 1.158-2.928 0-.146-.014-.305-.042-.424-1.102.04-2.441.702-3.237 1.603-.628.676-1.214 1.749-1.214 2.835 0 .16.028.332.042.385.07.013.181.026.293.026 1.005 0 2.26-.636 3-1.497Zm.782 1.722c-1.675 0-3.028.968-3.894.968-.92 0-2.148-.915-3.6-.915C5.805 6.127 3 8.3 3 12.367c0 2.558 1.047 5.234 2.316 6.97C6.42 20.807 7.381 22 8.75 22c1.367 0 1.981-.861 3.684-.861 1.716 0 2.107.835 3.614.835 1.506 0 2.497-1.299 3.432-2.584 1.06-1.47 1.507-2.902 1.521-2.981-.084-.027-2.958-1.126-2.958-4.253 0-2.69 2.26-3.895 2.386-3.988-1.48-2.04-3.754-2.094-4.381-2.094Z" data-follow-fill="#000"/></svg>