<svg xmlns="http://www.w3.org/2000/svg" fill="none" viewBox="0 0 24 24"><path fill="#2B263B" d="M2 5.5a4 4 0 0 1 4-4h15.99c.558 0 1.01.452 1.01 1.01V15h-2V3.5H6a2 2 0 0 0-2 2V18h3.5a1 1 0 0 1 .894.553l.817 1.632 1.52-1.825A1 1 0 0 1 11.5 18H15v2h-3.032l-2.102 2.523-.768-.64.768.64a1.1 1.1 0 0 1-1.829-.212l.895-.448-.895.448L6.882 20H3.01A1.01 1.01 0 0 1 2 18.99V5.5ZM8.5 12a1 1 0 1 0 0-2 1 1 0 0 0 0 2Zm4 0a1 1 0 1 0 0-2 1 1 0 0 0 0 2Zm5-1a1 1 0 1 1-2 0 1 1 0 0 1 2 0Zm-.5 5.6h-.9v1.8h.883l1.086 3.823c.28.984 1.634 1.087 2.059.157l1.818-3.98h.954v-1.8h-1.444c-.407 0-.775.237-.944.606l-1.231 2.695-.724-2.547a1.038 1.038 0 0 0-.998-.754H17Z" data-follow-fill="#2B263B"/></svg>