<svg xmlns="http://www.w3.org/2000/svg" fill="none" viewBox="0 0 24 24"><path fill="#2B263B" d="M13 17h5v-2h-5v2Z" data-follow-fill="#2B263B"/><path fill="#2B263B" d="M.5 4.125v15.75C.5 20.983 1.354 22 2.55 22h18.9c1.196 0 2.05-1.017 2.05-2.125V4.125C23.5 3.018 22.646 2 21.45 2H2.55C1.354 2 .5 3.018.5 4.125Zm2.039-.113A.064.064 0 0 1 2.553 4h18.894a.062.062 0 0 1 .014.012.165.165 0 0 1 .039.113V7h-19V4.125c0-.057.02-.094.039-.113ZM21.5 9v10.875c0 .057-.02.094-.039.113l-.002.003a.077.077 0 0 1-.007.006l-.005.003H2.553a.065.065 0 0 1-.014-.012.165.165 0 0 1-.039-.113V9h19Z" data-follow-fill="#2B263B"/></svg>