<svg xmlns="http://www.w3.org/2000/svg" fill="none" viewBox="0 0 24 24"><path data-follow-fill="#2B263B" d="M11.707 10.707H14v2h-2.5v1H14v2h-2.5v2h-2v-2H7v-2h2.5v-1H7v-2h2.293l-2-2 1.414-1.414L10.5 9.086l1.793-1.793 1.414 1.414-2 2Z" fill="#2B263B"/><path data-follow-fill="#2B263B" d="M2 2a1 1 0 0 1 1-1h11a5 5 0 0 1 5 5v2h.47A2.53 2.53 0 0 1 22 10.53V19a4 4 0 0 1-4 4H3a1 1 0 0 1-1-1V2Zm15 19V6a3 3 0 0 0-3-3H4v18h13Zm2-.268A2 2 0 0 0 20 19v-8.47a.53.53 0 0 0-.53-.53H19v10.732Z" fill="#2B263B"/></svg>