<svg xmlns="http://www.w3.org/2000/svg" fill="none" viewBox="0 0 24 24"><path fill="#2B263B" d="M3 2a1 1 0 0 0-1 1v7a1 1 0 0 0 1 1h7a1 1 0 0 0 1-1V3a1 1 0 0 0-1-1H3Zm1 7V4h5v5H4Z" clip-rule="evenodd" fill-rule="evenodd" data-follow-fill="#2B263B"/><path fill="#2B263B" d="M13 5h9V3h-9v2Zm9 11h-9v-2h9v2Zm-9-6h9V8h-9v2Zm9 11h-9v-2h9v2Z" data-follow-fill="#2B263B"/><path fill="#2B263B" d="M3 13a1 1 0 0 0-1 1v7a1 1 0 0 0 1 1h7a1 1 0 0 0 1-1v-7a1 1 0 0 0-1-1H3Zm1 7v-5h5v5H4Z" clip-rule="evenodd" fill-rule="evenodd" data-follow-fill="#2B263B"/></svg>