<svg xmlns="http://www.w3.org/2000/svg" fill="none" viewBox="0 0 24 24"><path fill="#000" d="M9 2a1 1 0 0 0-1 1v2.5H3a1 1 0 0 0-1 1V12a1 1 0 0 0 1 1h1v1.838c0 1.98-.318 3.946-.942 5.824A1 1 0 0 0 4 22h15a1 1 0 0 0 1-1v-8h1a1 1 0 0 0 1-1V6.5a1 1 0 0 0-1-1h-5V3a1 1 0 0 0-1-1H9Zm6.01 18a9.81 9.81 0 0 0 .292-1.351 20.952 20.952 0 0 0 .198-2.582V16h-1l-1-.001v.046l-.003.148a18.734 18.734 0 0 1-.173 2.158c-.09.597-.214 1.114-.369 1.457a1.468 1.468 0 0 1-.1.191H10.51a9.8 9.8 0 0 0 .29-1.351 20.952 20.952 0 0 0 .2-2.581l.001-.048v-.018h-1L9 16v.046l-.003.148c-.002.128-.008.314-.02.538-.022.45-.066 1.039-.153 1.62-.09.597-.215 1.114-.369 1.457a1.46 1.46 0 0 1-.1.191H5.339A20.51 20.51 0 0 0 6 14.838V13h12v7h-2.99ZM19 11H4V7.5h5a1 1 0 0 0 1-1V4h4v2.5a1 1 0 0 0 1 1h5V11h-1Z" data-follow-fill="#000"/></svg>