<svg xmlns="http://www.w3.org/2000/svg" fill="none" viewBox="0 0 24 24"><path data-follow-fill="#000" d="M11.997 1.5a1 1 0 0 1 .898.555l2.864 5.77 6.385.931a1 1 0 0 1 .556 1.704l-.908.889a7.5 7.5 0 0 0-11.31 8.803l-4.184 2.23a1 1 0 0 1-1.456-1.055l1.111-6.318-4.652-4.548a1 1 0 0 1 .556-1.705l6.42-.931 2.824-5.765a1 1 0 0 1 .896-.56Z" fill="#000"/><path data-follow-fill="#000" d="M17.5 12a5.497 5.497 0 0 1 5.5 5.5 5.5 5.5 0 1 1-5.5-5.5Zm2.25 2.838-2.859 3.234-1.713-1.58-1.356 1.47 2.464 2.273a1 1 0 0 0 1.427-.073l3.536-4-1.498-1.324Z" fill="#000"/></svg>