<svg xmlns="http://www.w3.org/2000/svg" fill="none" viewBox="0 0 24 24"><path data-follow-fill="#000" d="M12.14.64c.23-.38.682-.564 1.112-.453.555.144 1.197.56 1.674.993.252.229.503.501.697.803.187.289.377.69.377 1.151v4.914a.232.232 0 0 0 .057.05h4.826c.28 0 .538.083.728.164.204.088.407.208.591.353.318.25.798.754.798 1.47v.05l-1.008 10.012-.006.034c-.072.416-.283.82-.531 1.12-.212.258-.666.699-1.317.699H2.739C1.692 22 1 21.061 1 20.104V11.98c0-.442.12-.906.427-1.28a1.675 1.675 0 0 1 1.312-.615h3.695L12.14.64ZM6 12.07H3v7.944h3v-7.943Zm2 7.944h11.93a.672.672 0 0 0 .08-.154l.974-9.668a.577.577 0 0 0-.099-.072.572.572 0 0 0-.067-.035H16c-.549 0-1.034-.27-1.357-.575C14.313 9.2 14 8.707 14 8.1V3.166a.621.621 0 0 0-.06-.111 2.187 2.187 0 0 0-.363-.408 3.443 3.443 0 0 0-.21-.176L8 11.353v8.661Zm-4.992-8.107-.001.002Z" fill="#000"/></svg>