<svg xmlns="http://www.w3.org/2000/svg" fill="none" viewBox="0 0 24 24"><path data-follow-fill="#000" d="M8.773 4.088a4.795 4.795 0 0 0-4.345 1.356c-1.845 1.874-1.903 4.883-.17 6.828l.179.19 7.32 7.434c.136.139.35.139.486 0l7.28-7.394.237-.25c1.714-1.945 1.65-4.94-.188-6.808A4.794 4.794 0 0 0 14.37 4.34l-.74-1.858a6.794 6.794 0 0 1 7.367 1.559c2.585 2.625 2.668 6.822.25 9.549a.895.895 0 0 1-.021.023l-.255.27-.015.015-7.288 7.402a2.337 2.337 0 0 1-3.336 0l-7.329-7.443-.016-.017-.196-.208-.016-.018C.335 10.888.41 6.674 3.003 4.04a6.794 6.794 0 0 1 7.367-1.56 1 1 0 0 1 .593 1.198l-.759 2.726 4.167 1.667a1 1 0 0 1 .336 1.635l-2.426 2.427 1.513 2.32-1.676 1.092-1.956-3a1 1 0 0 1 .13-1.253l1.928-1.928L8.63 7.93a1 1 0 0 1-.592-1.197l.736-2.644Z" fill="#000"/></svg>