<svg xmlns="http://www.w3.org/2000/svg" fill="none" viewBox="0 0 24 24"><path fill="#2B263B" d="M1 9.5a6.5 6.5 0 0 1 9.455-5.79 1 1 0 0 1 .53 1.06l-.379 2.2 3.88 2.156a1 1 0 0 1 .165 1.633l-2.859 2.45 1.58 2.634-1.715 1.029-2.014-3.357a1 1 0 0 1 .206-1.274l2.409-2.065-3.244-1.802a1 1 0 0 1-.5-1.044l.365-2.115A4.5 4.5 0 0 0 3 9.5c.001 2.366 1.415 4.75 3.396 6.73 1.86 1.861 4.062 3.204 5.605 3.723 1.543-.519 3.744-1.862 5.605-3.723C19.585 14.25 21 11.866 21 9.5a4.5 4.5 0 0 0-6.545-4.01l-.89.455-.91-1.78.89-.456A6.5 6.5 0 0 1 23 9.5c0 3.135-1.836 6.001-3.98 8.146-2.15 2.15-4.793 3.759-6.745 4.317a1 1 0 0 1-.55 0c-1.952-.558-4.594-2.167-6.745-4.317C2.836 15.5 1 12.635 1 9.5Z" data-follow-fill="#2B263B"/></svg>