<svg xmlns="http://www.w3.org/2000/svg" fill="none" viewBox="0 0 24 24"><path fill="#2B263B" d="M2.926 7h18.148l-1.169-3H4.095l-1.17 3Zm-.447-4.363A1 1 0 0 1 3.411 2h17.178a1 1 0 0 1 .932.637l1.948 5A1 1 0 0 1 22.537 9H1.463A1 1 0 0 1 .53 7.637l1.948-5ZM4 10v10a1 1 0 0 0 1 1h14a1 1 0 0 0 1-1V10h2v10a3 3 0 0 1-3 3H5a3 3 0 0 1-3-3V10h2Zm4.489 6.689c-.755.095-1.002-.448-1.024-.499l-.001-.004a1.139 1.139 0 0 1-.74-.521c-.174-.284-.247-.641-.218-1.072.034-.5.189-.894.465-1.18.27-.275.616-.413 1.039-.413.423 0 .751.14.983.417.238.284.34.676.306 1.176-.027.406-.136.748-.327 1.026a1.357 1.357 0 0 1-.736.538c.046.175.183.314.29.401.05.041.026.123-.037.13Zm-1.234-2.096c-.021.322.02.573.122.75a.494.494 0 0 0 .457.267.574.574 0 0 0 .493-.266c.13-.181.205-.431.227-.751.02-.297-.023-.53-.127-.7a.508.508 0 0 0-.46-.255.587.587 0 0 0-.492.252c-.126.168-.2.403-.22.703Zm3.354-1.535c.042 0 .074.036.071.079l-.178 2.653c-.017.248-.147.371-.39.371h-.014l-.006-.001.001.001H9.82a.072.072 0 0 1-.071-.078l.18-2.653c.016-.248.148-.372.393-.372h.288Zm2.93 2.799-.611-2.586a.294.294 0 0 0-.099-.154.264.264 0 0 0-.17-.059h-.434a.329.329 0 0 0-.305.213l-.909 2.446-.113.28c-.031.078.024.164.106.164h.361c.068 0 .13-.02.182-.06a.316.316 0 0 0 .111-.161l.681-1.917a.019.019 0 0 1 .036.003l.471 2.077a.072.072 0 0 0 .07.058h.386c.093 0 .161-.028.206-.084.045-.055.056-.128.032-.22Zm4.493-2.799c.493 0 .864.122 1.114.363.268.259.383.65.348 1.172-.036.523-.205.92-.506 1.189-.28.253-.656.38-1.128.38h-.854a.073.073 0 0 1-.073-.079l.034-.472.156-2.281a.285.285 0 0 1 .088-.196.282.282 0 0 1 .2-.076h.62Zm.412 2.294c.17-.158.265-.411.29-.759.023-.347-.04-.596-.187-.746-.13-.131-.33-.196-.602-.196h-.1l-.13 1.91h.1c.269 0 .479-.07.63-.209Zm-2.372-2.294a.275.275 0 0 0-.285.272l-.097 1.441a.019.019 0 0 1-.036.007l-.764-1.545a.28.28 0 0 0-.27-.175h-.287a.275.275 0 0 0-.284.272l-.158 2.34-.03.412a.073.073 0 0 0 .07.08h.274c.232 0 .357-.119.373-.355l.103-1.38c.002-.02.028-.026.036-.007l.802 1.7a.071.071 0 0 0 .064.042h.437a.256.256 0 0 0 .189-.075.287.287 0 0 0 .08-.117c.02-.046.032-.1.036-.163l.181-2.67a.073.073 0 0 0-.071-.079h-.363Z" data-follow-fill="#2B263B"/></svg>