<svg xmlns="http://www.w3.org/2000/svg" fill="none" viewBox="0 0 24 24"><path fill="#2B263B" d="M12.588 16.726a.804.804 0 0 1-1.315-.102 33.338 33.338 0 0 0-5.688-7.14.4.4 0 0 1 .046-.622l.84-.582a.405.405 0 0 1 .404-.034c1.374.653 2.82 1.545 3.973 2.498l.069.057a.766.766 0 0 0 .973 0c3.342-2.776 6.9-5.269 10.61-7.509A20.262 20.262 0 0 1 12.56.996l-.38-.2a.4.4 0 0 0-.375 0l-.313.166A20.171 20.171 0 0 1 2.229 3.3h-.322a.404.404 0 0 0-.407.403v6.58c0 6.343 4.113 10.851 10.24 12.923a.826.826 0 0 0 .523 0c6.126-2.072 10.237-6.58 10.237-12.92V5.705c-3.322 3.083-8.096 8.807-9.915 11.021h.003Z" data-follow-fill="#2B263B"/></svg>