<svg xmlns="http://www.w3.org/2000/svg" fill="none" viewBox="0 0 24 24"><path fill="#2B263B" d="M1 9.5a6.5 6.5 0 0 1 11-4.69A6.5 6.5 0 0 1 23 9.5c0 3.134-1.836 6-3.977 8.162-2.15 2.172-4.78 3.81-6.708 4.45a1 1 0 0 1-.63 0c-1.927-.64-4.557-2.278-6.708-4.45C2.836 15.498 1 12.634 1 9.5ZM7.5 5A4.5 4.5 0 0 0 3 9.5c0 2.366 1.414 4.75 3.398 6.754 1.847 1.865 4.039 3.248 5.602 3.847 1.563-.599 3.755-1.982 5.602-3.847C19.586 14.251 21 11.866 21 9.5a4.5 4.5 0 0 0-8.182-2.587 1 1 0 0 1-1.636 0A4.494 4.494 0 0 0 7.5 5Z" data-follow-fill="#2B263B"/></svg>