<svg xmlns="http://www.w3.org/2000/svg" fill="none" viewBox="0 0 24 24"><path data-follow-fill="#000" d="M12 5.936a2 2 0 0 1-1.432-.604 4.33 4.33 0 0 0-6.249 0c-1.7 1.745-1.758 4.562-.165 6.377l.182.196L12 19.767l7.621-7.819.243-.26c1.575-1.816 1.51-4.618-.183-6.356a4.33 4.33 0 0 0-6.249 0A2 2 0 0 1 12 5.936Zm9.348 7.093-.28.3-8.017 8.224a1.46 1.46 0 0 1-2.103 0l-8.06-8.27-.216-.23C.373 10.457.445 6.44 2.887 3.935a6.327 6.327 0 0 1 9.113 0 6.327 6.327 0 0 1 9.113 0c2.435 2.498 2.514 6.498.235 9.093Z" fill="#000"/></svg>