<svg xmlns="http://www.w3.org/2000/svg" fill="none" viewBox="0 0 24 24"><path fill="#2B263B" d="M19.002 4H6.5c-.53 0-1.013.207-1.37.544a8.224 8.224 0 0 0 1.046 2.281c.659.99 1.684 2.013 3.304 2.547A2.998 2.998 0 0 1 12 8c1.057 0 1.986.546 2.52 1.372 1.62-.535 2.645-1.557 3.305-2.547A8.227 8.227 0 0 0 19.002 4ZM4.5 8.06V20h13a2 2 0 0 0 2-2V8.06l-.075.115c-.925 1.386-2.35 2.737-4.48 3.4a3.001 3.001 0 0 1-5.89 0c-2.13-.662-3.556-2.014-4.48-3.4a9.647 9.647 0 0 1-.075-.114ZM2.5 6a4 4 0 0 1 4-4h14a1 1 0 0 1 1 1v15a4 4 0 0 1-4 4h-14a1 1 0 0 1-1-1V6ZM13 11a1 1 0 1 0-2 0 1 1 0 0 0 2 0Z" data-follow-fill="#2B263B"/></svg>