<svg xmlns="http://www.w3.org/2000/svg" fill="none" viewBox="0 0 24 24"><path fill="#000" d="M12 1a6 6 0 0 0-3.897 10.562l-.028.008a19.236 19.236 0 0 0-1.64.52 7.9 7.9 0 0 0-.1.037l-.028.011-.009.004h-.002l-.002.002a1 1 0 0 0-.476.4L3.15 16.828a1 1 0 0 0 .327 1.381l1.855 1.136V22h2v-3.214a1 1 0 0 0-.478-.853L5.38 17.03l1.954-3.14.116-.04c.273-.095.667-.221 1.141-.348C9.55 13.245 10.788 13 12 13c1.212 0 2.451.245 3.408.502a17.237 17.237 0 0 1 1.239.381l1.94 3.38-1.338.614a1 1 0 0 0-.582.909V22h2v-2.573l1.75-.804a1 1 0 0 0 .45-1.407l-2.666-4.643a1.003 1.003 0 0 0-.496-.43l-.003-.001-.009-.004-.028-.01a13.959 13.959 0 0 0-.464-.169 19.237 19.237 0 0 0-1.304-.397A6 6 0 0 0 12 1ZM8 7a4 4 0 1 1 8 0 4 4 0 0 1-8 0Zm9.333 6.071.372-.928-.372.928Zm-10.666 0-.373-.928.373.928Z" data-follow-fill="#000"/></svg>