<svg xmlns="http://www.w3.org/2000/svg" fill="none" viewBox="0 0 24 24"><path data-follow-fill="#000" d="M18.28 18.62c0-.755-.626-1.367-1.396-1.367-.77 0-1.396.612-1.396 1.366 0 .755.625 1.366 1.396 1.366.77 0 1.395-.611 1.395-1.366Zm.021 2.353c-.415.24-.9.378-1.417.378-1.542 0-2.791-1.223-2.791-2.732 0-1.509 1.25-2.732 2.79-2.732 1.542 0 2.791 1.223 2.791 2.732 0 .507-.14.981-.386 1.388l.182.178 1.395 1.366.494.483-.987.966-.493-.483-1.396-1.366-.182-.178ZM2 4.732C2 3.223 3.25 2 4.79 2h14.42C20.75 2 22 3.223 22 4.732v10.964h-1.818L20.14 4.732a.92.92 0 0 0-.93-.91H4.79a.92.92 0 0 0-.93.91v14.616c0 .503.417.91.93.91h8.092v1.822H4.79C3.249 22.08 2 20.857 2 19.348V4.732Zm9.45 9.79H9.82l1.066-5.465h1.218v.003l.306.001c.373.008.69.075.95.203.26.127.469.299.625.514.158.215.264.459.318.732.054.272.06.559.017.86l-.144.847a3.202 3.202 0 0 1-.302.908 2.47 2.47 0 0 1-1.363 1.223 2.913 2.913 0 0 1-1.06.173Zm.475-4.55-.714 3.644h.299c.334.003.6-.057.798-.18.2-.124.35-.292.45-.502a2.81 2.81 0 0 0 .216-.72l.136-.856c.023-.158.038-.317.047-.477a1.252 1.252 0 0 0-.043-.443.59.59 0 0 0-.237-.326c-.116-.085-.29-.131-.518-.139l-.434-.001ZM7.511 12.6l-.901-.003-.377 1.924h-1.21L6.09 9.057l1.99.004c.377.01.694.095.952.255.26.158.45.37.568.635.122.265.167.559.136.881a1.811 1.811 0 0 1-.356.939 2.005 2.005 0 0 1-.777.615c-.32.145-.684.216-1.091.214Zm-.386-2.63-.337 1.717.782.005a.962.962 0 0 0 .48-.12.874.874 0 0 0 .31-.308 1.216 1.216 0 0 0 .157-.792.636.636 0 0 0-.136-.338c-.073-.095-.192-.147-.356-.157l-.9-.008Zm9.287 1.41.276-1.41h2.106l.183-.913h-3.328l-1.066 5.464h1.214l.437-2.232h1.877l.182-.909h-1.88Z" fill="#000"/></svg>