<svg xmlns="http://www.w3.org/2000/svg" fill="none" viewBox="0 0 24 24"><path data-follow-fill="#000" d="M21 12a9 9 0 1 1-18 0 9 9 0 0 1 18 0Zm-9 11c6.075 0 11-4.925 11-11S18.075 1 12 1 1 5.925 1 12s4.925 11 11 11ZM7.015 12.75h.22c.558 0 1.015-.507 1.015-1.127v-1.496C8.25 9.507 7.793 9 7.235 9h-.22C6.457 9 6 9.507 6 10.127v1.496c0 .62.457 1.127 1.015 1.127Zm6 0h.22c.559 0 1.015-.507 1.015-1.127v-1.496c0-.62-.457-1.127-1.015-1.127h-.22C12.457 9 12 9.507 12 10.127v1.496c0 .62.457 1.127 1.015 1.127Zm-3.777 3.135a.8.8 0 0 1 1.118.093l.003.002a1.492 1.492 0 0 0 .272.209c.209.125.537.261.994.261.457 0 .786-.136.995-.261a1.492 1.492 0 0 0 .271-.209l.003-.002a.8.8 0 0 1 1.22 1.034l-.6-.5.6.5v.001l-.002.002-.002.002-.005.007-.014.016a1.783 1.783 0 0 1-.173.172c-.11.1-.269.225-.475.349a3.502 3.502 0 0 1-1.818.489c-.793 0-1.402-.24-1.818-.489a3.08 3.08 0 0 1-.607-.477 1.82 1.82 0 0 1-.04-.044l-.015-.016-.005-.007-.002-.002-.002-.002.614-.513-.615.512a.8.8 0 0 1 .103-1.127Z" fill="#000"/></svg>