<svg xmlns="http://www.w3.org/2000/svg" fill="none" viewBox="0 0 24 24"><path fill="#000" d="M12 3c-1.934 0-3.326.92-3.868 2h7.735c-.542-1.08-1.934-2-3.868-2Zm5.999 2h1.122c1.597 0 2.922 1.22 3.032 2.793l.84 12C23.114 21.527 21.722 23 19.96 23H4.04c-1.762 0-3.154-1.473-3.033-3.207l.84-12C1.957 6.22 3.282 5 4.88 5H6c.58-2.42 3.23-4 6-4s5.42 1.58 5.999 4ZM3.869 7.931l-.84 12A1.006 1.006 0 0 0 4.039 21H19.96c.587 0 1.052-.49 1.011-1.069l-.84-12A1.008 1.008 0 0 0 19.121 7H4.879c-.532 0-.974.407-1.01.931ZM9 11v3H7v-3h2Zm8 3v-3h-2v3h2Z" data-follow-fill="#000"/></svg>