<svg xmlns="http://www.w3.org/2000/svg" fill="none" viewBox="0 0 24 24"><path fill="#000" d="M12 23c6.075 0 11-4.925 11-11S18.075 1 12 1 1 5.925 1 12s4.925 11 11 11Zm.81-9.15h-2.028c-.189-1.402.82-2.186 1.72-2.883.672-.522 1.282-.996 1.282-1.643 0-.936-.755-1.467-1.98-1.467-.975 0-1.745.421-2.515 1.233L8 7.904C8.99 6.749 10.373 6 12.055 6 14.334 6 16 7.046 16 9.12c0 1.141-.847 1.78-1.67 2.401-.832.628-1.64 1.237-1.52 2.328Zm.377 2.777c0 .811-.582 1.373-1.383 1.373-.802 0-1.384-.562-1.384-1.373 0-.827.598-1.389 1.383-1.389.802 0 1.384.562 1.384 1.389Z" data-follow-fill="#000"/></svg>