<svg xmlns="http://www.w3.org/2000/svg" fill="none" viewBox="0 0 24 24"><path fill="#2B263B" d="m15.446 7.812-4.415 4.652-1.611-1.698-1.451 1.377 2.337 2.462a1 1 0 0 0 1.45 0l5.14-5.417-1.45-1.376Z" data-follow-fill="#2B263B"/><path fill="#2B263B" d="M12.278 1.038a1 1 0 0 0-.548 0L2.726 3.602A1 1 0 0 0 2 4.564v6.255c0 6.068 4.017 10.288 9.692 12.132a1 1 0 0 0 .618 0c5.674-1.844 9.69-6.063 9.69-12.13V4.564a1 1 0 0 0-.726-.962l-8.996-2.564ZM4 10.818v-5.5l8.004-2.278L20 5.319v5.502c0 4.883-3.103 8.43-7.999 10.124C7.104 19.252 4 15.703 4 10.82Z" clip-rule="evenodd" fill-rule="evenodd" data-follow-fill="#2B263B"/></svg>