<svg xmlns="http://www.w3.org/2000/svg" fill="none" viewBox="0 0 24 24"><path fill="#2B263B" d="M1.781 13.001c0-5.647 4.138-9.31 9.395-9.66a.928.928 0 0 1 1.628-.002c5.273.336 9.429 4.003 9.429 9.662 0 .561-.62.73-.934.267-.568-.835-1.333-1.667-2.328-1.667a3.16 3.16 0 0 0-2.23.924c-.293.288-.779.348-1.105.098a5.914 5.914 0 0 0-7.238 0c-.326.25-.812.19-1.105-.098a3.177 3.177 0 0 0-2.23-.924c-1.001 0-1.773.833-2.344 1.669-.317.463-.938.292-.938-.269Zm9.111 0h1.998v6.946c0 .124-.037 1.135-.801 1.862-.333.321-.938.69-1.887.69h-.173c-1.06-.048-1.899-.825-2.195-1.565a3.22 3.22 0 0 1-.21-.999L7.6 19.26h2.01l.025.638v.087a.646.646 0 0 0 .64.604.627.627 0 0 0 .543-.309v-.012a.62.62 0 0 0 .1-.333v-.012L10.892 13Z" data-follow-fill="#2B263B"/></svg>