<svg xmlns="http://www.w3.org/2000/svg" fill="none" viewBox="0 0 24 24"><path fill="#2B263B" d="M6.215 10.719a.995.995 0 0 1-.493.283 4.285 4.285 0 1 0 2.168 8.293l.962-.273.546 1.924-.963.273A6.285 6.285 0 0 1 4.691 9.22a7.343 7.343 0 0 1 14.63.052 6.287 6.287 0 0 1-3.89 11.947l-.962-.273.545-1.924.962.273a4.285 4.285 0 1 0 2.168-8.293 1 1 0 0 1-.761-.848 1.003 1.003 0 0 1-.037-.268 5.342 5.342 0 0 0-10.684 0 1 1 0 0 1-.447.833Zm5.077-.963a1 1 0 0 1 1.412-.004l4.276 4.242-1.408 1.42L13 12.863V20h-2v-7.118l-2.465 2.473-1.416-1.412 4.173-4.187Z" data-follow-fill="#2B263B"/></svg>